<?xml version="1.0" encoding="UTF-8" standalone="no"?>
<!-- Created with Inkscape (http://www.inkscape.org/) -->

<svg
   width="60.279907mm"
   height="71.2173mm"
   viewBox="0 0 60.279907 71.2173"
   version="1.1"
   id="svg1"
   xml:space="preserve"
   sodipodi:docname="UkkonenIzgradnjaAbstraknoNaÄi2.svg"
   inkscape:version="1.4 (86a8ad7, 2024-10-11)"
   xmlns:inkscape="http://www.inkscape.org/namespaces/inkscape"
   xmlns:sodipodi="http://sodipodi.sourceforge.net/DTD/sodipodi-0.dtd"
   xmlns="http://www.w3.org/2000/svg"
   xmlns:svg="http://www.w3.org/2000/svg"><sodipodi:namedview
     id="namedview1"
     pagecolor="#ffffff"
     bordercolor="#000000"
     borderopacity="0.25"
     inkscape:showpageshadow="2"
     inkscape:pageopacity="0.0"
     inkscape:pagecheckerboard="0"
     inkscape:deskcolor="#d1d1d1"
     inkscape:document-units="mm"
     inkscape:zoom="3.1615972"
     inkscape:cx="114.18279"
     inkscape:cy="134.58387"
     inkscape:window-width="1157"
     inkscape:window-height="1101"
     inkscape:window-x="745"
     inkscape:window-y="0"
     inkscape:window-maximized="0"
     inkscape:current-layer="svg1" /><defs
     id="defs1" /><path
     style="fill:none;fill-opacity:1;stroke:#000000;stroke-width:0.264999;stroke-opacity:1"
     d="m 21.853861,48.6256 c 0.03528,0.88323 -0.140329,2.84797 -0.154466,3.87833 -0.01414,1.03037 0.258032,2.91891 0.308475,4.19528 0.05044,1.27638 0.627986,2.33928 0.678649,3.17731 0.05066,0.83802 0.555256,1.63492 0.555256,1.63492"
     id="path15" /><path
     style="fill:none;fill-opacity:1;stroke:#51a2ff;stroke-width:0.264999;stroke-opacity:1"
     d="m 21.975368,48.82622 4.842391,3.18464"
     id="path20" /><path
     d="m 22.082358,39.74393 c 0.285881,0.66843 0.645819,2.87187 0.663679,3.31952 0.01786,0.44764 -1.853841,1.86875 -2.02052,2.83027 -0.166679,0.96151 -0.05055,0.86074 -0.0617,1.24161 -0.01114,0.38087 1.012613,1.08146 1.24933,1.66578"
     style="fill:none;fill-opacity:1;stroke:#05e972;stroke-width:0.264999;stroke-opacity:1"
     id="path1-1" /><rect
     style="fill:#000000;fill-opacity:1;stroke:#000000;stroke-width:0.264999;stroke-opacity:1"
     id="rect15"
     width="4"
     height="4"
     x="-0.56735027"
     y="64.331169"
     transform="rotate(-19.483421)" /><path
     d="m 26.685278,0.25094 c 0,0 -0.990609,2.71371 -0.798751,3.94299 0.191859,1.22927 1.367884,1.42019 1.604078,2.17475 0.236194,0.75456 -0.104829,1.4899 -0.547547,2.1979 -0.442718,0.708 -1.501306,1.24006 -1.349582,2.51408 0.151724,1.27403 1.331547,2.58949 1.110514,4.41121 -0.221032,1.82173 -2.175573,2.7498 -1.958825,3.67858 0.216748,0.92878 0.791261,0.21708 0.863735,1.07967 0.07247,0.86259 -1.826433,2.00449 -1.850858,3.33155 -0.02442,1.32705 1.857061,2.2554 1.881706,3.70171 0.02465,1.44632 -1.444551,2.99218 -1.912554,4.10274 -0.468003,1.11056 -0.595457,1.77338 -0.956276,2.5295 -0.360819,0.75613 -0.880665,1.2251 -1.172212,2.0051 -0.291547,0.78 0.277185,2.34457 -0.03856,3.35468"
     style="fill:none;fill-opacity:1;stroke:#ff6467;stroke-width:0.264999;stroke-opacity:1"
     id="path1" /><circle
     style="fill:#000000;fill-opacity:1;stroke:#000000;stroke-width:0.264999;stroke-opacity:1"
     id="circle15"
     cx="21.822676"
     cy="39.490444"
     r="1.3523796" /><circle
     style="fill:#000000;fill-opacity:0.69999999;stroke:#000000;stroke-width:0.264999;stroke-opacity:1"
     id="circle15-8"
     cx="22.085945"
     cy="49.150452"
     r="1.3523796" /><text
     xml:space="preserve"
     style="font-weight:bold;font-size:4.9389px;line-height:1;font-family:Calibri;-inkscape-font-specification:'Calibri, Bold';text-align:end;writing-mode:lr-tb;direction:ltr;text-anchor:end;fill:#05e972;fill-opacity:1;stroke:#05e972;stroke-width:0.165;stroke-dasharray:none;stroke-opacity:1"
     x="20.136417"
     y="45.870426"
     id="text18"><tspan
       id="tspan18"
       style="stroke-width:0.165;stroke-dasharray:none"
       x="20.136417"
       y="45.870426">$\beta$</tspan></text><text
     xml:space="preserve"
     style="font-weight:bold;font-size:4.9389px;line-height:1;font-family:Calibri;-inkscape-font-specification:'Calibri, Bold';text-align:end;writing-mode:lr-tb;direction:ltr;text-anchor:end;fill:#51a2ff;fill-opacity:1;stroke:#51a2ff;stroke-width:0.165;stroke-dasharray:none;stroke-opacity:1"
     x="28.99251"
     y="49.574959"
     id="text20"
     inkscape:transform-center-x="1.5063589"
     inkscape:transform-center-y="0.33474642"><tspan
       id="tspan20"
       style="fill:#51a2ff;fill-opacity:1;stroke:#51a2ff;stroke-width:0.165;stroke-dasharray:none"
       x="28.99251"
       y="49.574959">$x$</tspan></text><path
     style="fill:#ffffff;fill-opacity:0;stroke:#000000;stroke-width:0.264999"
     d="M 0.229441,70.98167 26.635018,0.27888 60.073856,46.79712 Z"
     id="path14" /><text
     xml:space="preserve"
     style="font-weight:bold;font-size:4.9389px;line-height:1;font-family:Calibri;-inkscape-font-specification:'Calibri, Bold';text-align:end;writing-mode:lr-tb;direction:ltr;text-anchor:end;fill:#ff6467;fill-opacity:1;stroke:#ff6467;stroke-width:0.165;stroke-dasharray:none;stroke-opacity:1"
     x="28.704504"
     y="24.687546"
     id="text1"><tspan
       sodipodi:role="line"
       id="tspan1"
       style="fill:#ff6467;fill-opacity:1;stroke:#ff6467;stroke-width:0.165;stroke-dasharray:none;stroke-opacity:1"
       x="28.704504"
       y="24.687546">$\delta$</tspan></text><rect
     style="fill:#000000;fill-opacity:1;stroke:#000000;stroke-width:0.264999;stroke-opacity:1"
     id="rect15-8"
     width="4"
     height="4"
     x="27.451109"
     y="51.311333"
     transform="rotate(0.85660067)" /></svg>
