<?xml version="1.0" encoding="UTF-8" standalone="no"?>
<!-- Created with Inkscape (http://www.inkscape.org/) -->

<svg
   width="60.279911mm"
   height="71.217293mm"
   viewBox="0 0 60.279911 71.217293"
   version="1.1"
   id="svg1"
   xml:space="preserve"
   sodipodi:docname="UkkonenIzgradnjaAbstraknoNači1.svg"
   inkscape:version="1.4 (86a8ad7, 2024-10-11)"
   inkscape:export-filename="UkkonenIzgradnjaAbstraknoNači1.pdf"
   inkscape:export-xdpi="96"
   inkscape:export-ydpi="96"
   xmlns:inkscape="http://www.inkscape.org/namespaces/inkscape"
   xmlns:sodipodi="http://sodipodi.sourceforge.net/DTD/sodipodi-0.dtd"
   xmlns="http://www.w3.org/2000/svg"
   xmlns:svg="http://www.w3.org/2000/svg"><sodipodi:namedview
     id="namedview1"
     pagecolor="#ffffff"
     bordercolor="#000000"
     borderopacity="0.25"
     inkscape:showpageshadow="2"
     inkscape:pageopacity="0.0"
     inkscape:pagecheckerboard="0"
     inkscape:deskcolor="#d1d1d1"
     inkscape:document-units="mm"
     inkscape:zoom="3.1615975"
     inkscape:cx="114.02463"
     inkscape:cy="134.58386"
     inkscape:window-width="1920"
     inkscape:window-height="1111"
     inkscape:window-x="-9"
     inkscape:window-y="-9"
     inkscape:window-maximized="1"
     inkscape:current-layer="svg1" /><defs
     id="defs1" /><path
     style="fill:none;fill-opacity:1;stroke:#ff6467;stroke-width:0.264999;stroke-opacity:1"
     d="m 26.650441,0.363708 c 0,0 -1.034235,2.51739 -0.842377,3.746665 0.191859,1.229276 1.084321,1.398385 1.320515,2.152945 0.236194,0.754559 -0.104829,1.489899 -0.547547,2.197896 -0.442718,0.707998 -1.501306,1.240055 -1.349582,2.514082 0.151724,1.274028 1.331547,2.58949 1.110514,4.411212 -0.221032,1.821722 -2.175573,2.749798 -1.958825,3.678579 0.216748,0.928781 0.791261,0.217073 0.863735,1.079667 0.07247,0.862594 -1.826433,2.00449 -1.850858,3.331546 -0.02442,1.327056 1.857061,2.255402 1.881706,3.701717 0.02465,1.446315 -1.444551,2.992176 -1.912554,4.102734 -0.468003,1.110558 -0.595457,1.773379 -0.956276,2.529507 -0.360819,0.756128 -0.880665,1.225099 -1.172212,2.005097 -0.291547,0.779998 0.277185,2.344571 -0.03856,3.354679 -0.315743,1.010108 -5.37e-4,2.393192 0.285344,3.061628 0.285881,0.668436 0.90757,0.385242 0.92543,0.832888 0.01786,0.447646 -1.853841,1.868752 -2.02052,2.830269 -0.166679,0.961518 -0.05055,0.860749 -0.0617,1.241617 -0.01114,0.380868 1.012613,1.081458 1.24933,1.665775 0.236717,0.584317 0.373451,0.859656 0.408732,1.74289 0.03528,0.883235 -0.271204,0.928464 -0.285341,1.958827 -0.01414,1.030363 0.258032,2.918902 0.308475,4.195278 0.05044,1.276376 0.627986,2.339279 0.678649,3.177304 0.05066,0.838025 0.555256,1.634928 0.555256,1.634928"
     id="path12" /><rect
     style="fill:#000000;fill-opacity:1;stroke:#000000;stroke-width:0.264999;stroke-opacity:1"
     id="rect13"
     width="4.1007638"
     height="4.0135136"
     x="-0.5673489"
     y="64.331161"
     transform="rotate(-19.483421)" /><text
     xml:space="preserve"
     style="font-weight:bold;font-size:4.93889px;line-height:1;font-family:Calibri;-inkscape-font-specification:'Calibri, Bold';text-align:end;writing-mode:lr-tb;direction:ltr;text-anchor:end;fill:#ff6467;fill-opacity:1;stroke:#ff6467;stroke-width:0.165;stroke-dasharray:none;stroke-opacity:1"
     x="28.720743"
     y="23.535547"
     id="text13"><tspan
       id="tspan13"
       style="font-size:4.93889px;fill:#ff6467;stroke:#ff6467;stroke-width:0.165;stroke-dasharray:none"
       x="28.720743"
       y="23.535547">$\alpha$</tspan></text><path
     style="fill:#ffffff;fill-opacity:0;stroke:#000000;stroke-width:0.264999"
     d="M 0.229441,70.98166 26.635018,0.278877 60.07386,46.797114 Z"
     id="path3" /></svg>
