<?xml version="1.0" encoding="UTF-8" standalone="no"?>
<!-- Created with Inkscape (http://www.inkscape.org/) -->

<svg
   width="77.016739mm"
   height="95.905045mm"
   viewBox="0 0 77.016739 95.905045"
   version="1.1"
   id="svg1"
   sodipodi:docname="KokosSTBP.svg"
   inkscape:version="1.4 (86a8ad7, 2024-10-11)"
   xmlns:inkscape="http://www.inkscape.org/namespaces/inkscape"
   xmlns:sodipodi="http://sodipodi.sourceforge.net/DTD/sodipodi-0.dtd"
   xmlns="http://www.w3.org/2000/svg"
   xmlns:svg="http://www.w3.org/2000/svg"
   xmlns:ns24="http://www.iki.fi/pav/software/textext/">
  <sodipodi:namedview
     id="namedview1"
     pagecolor="#ffffff"
     bordercolor="#000000"
     borderopacity="0.25"
     inkscape:showpageshadow="2"
     inkscape:pageopacity="0.0"
     inkscape:pagecheckerboard="0"
     inkscape:deskcolor="#d1d1d1"
     inkscape:document-units="mm"
     inkscape:zoom="6.6404205"
     inkscape:cx="162.03793"
     inkscape:cy="275.35907"
     inkscape:window-width="1920"
     inkscape:window-height="1111"
     inkscape:window-x="-9"
     inkscape:window-y="-9"
     inkscape:window-maximized="1"
     inkscape:current-layer="layer1"
     showgrid="true">
    <inkscape:grid
       id="grid1"
       units="mm"
       originx="0"
       originy="0"
       spacingx="1"
       spacingy="0.99999998"
       empcolor="#0099e5"
       empopacity="0.30196078"
       color="#0099e5"
       opacity="0.14901961"
       empspacing="5"
       enabled="true"
       visible="true" />
  </sodipodi:namedview>
  <defs
     id="defs1">
    <marker
       style="overflow:visible"
       id="Triangle"
       refX="0"
       refY="0"
       orient="auto"
       markerWidth="1"
       markerHeight="1"
       viewBox="0 0 1 1"
       preserveAspectRatio="xMidYMid">
      <path
         transform="scale(0.5)"
         style="fill:context-stroke;fill-rule:evenodd;stroke:context-stroke;stroke-width:1pt"
         d="M 5.77,0 -2.88,5 V -5 Z"
         id="path135" />
    </marker>
    <marker
       style="overflow:visible"
       id="Triangle-58"
       refX="0"
       refY="0"
       orient="auto-start-reverse"
       markerWidth="1"
       markerHeight="1"
       viewBox="0 0 1 1"
       preserveAspectRatio="xMidYMid">
      <path
         transform="scale(0.5)"
         style="fill:context-stroke;fill-rule:evenodd;stroke:context-stroke;stroke-width:1pt"
         d="M 5.77,0 -2.88,5 V -5 Z"
         id="path135-1" />
    </marker>
    <rect
       x="173.45633"
       y="550.37762"
       width="62.325565"
       height="20.115658"
       id="rect43" />
    <rect
       x="173.45633"
       y="550.37762"
       width="62.325565"
       height="20.115658"
       id="rect42" />
    <rect
       x="173.45633"
       y="550.37762"
       width="62.325565"
       height="20.115658"
       id="rect41" />
    <marker
       style="overflow:visible"
       id="Triangle-1-27-0-3-8-3-9"
       refX="0"
       refY="0"
       orient="auto-start-reverse"
       markerWidth="1"
       markerHeight="1"
       viewBox="0 0 1 1"
       preserveAspectRatio="xMidYMid">
      <path
         transform="scale(0.5)"
         style="fill:context-stroke;fill-rule:evenodd;stroke:context-stroke;stroke-width:1pt"
         d="M 5.77,0 -2.88,5 V -5 Z"
         id="path135-7-9-9-8-4-3-0" />
    </marker>
    <marker
       style="overflow:visible"
       id="Triangle-1-27-0-35-7-2"
       refX="0"
       refY="0"
       orient="auto-start-reverse"
       markerWidth="1"
       markerHeight="1"
       viewBox="0 0 1 1"
       preserveAspectRatio="xMidYMid">
      <path
         transform="scale(0.5)"
         style="fill:context-stroke;fill-rule:evenodd;stroke:context-stroke;stroke-width:1pt"
         d="M 5.77,0 -2.88,5 V -5 Z"
         id="path135-7-9-9-9-7-8" />
    </marker>
    <rect
       x="173.45633"
       y="550.37762"
       width="62.325565"
       height="20.115658"
       id="rect40" />
    <rect
       x="173.45633"
       y="550.37762"
       width="62.325565"
       height="20.115658"
       id="rect39" />
    <marker
       style="overflow:visible"
       id="Triangle-1-2-4-6-7"
       refX="0"
       refY="0"
       orient="auto-start-reverse"
       markerWidth="1"
       markerHeight="1"
       viewBox="0 0 1 1"
       preserveAspectRatio="xMidYMid">
      <path
         transform="scale(0.5)"
         style="fill:context-stroke;fill-rule:evenodd;stroke:context-stroke;stroke-width:1pt"
         d="M 5.77,0 -2.88,5 V -5 Z"
         id="path135-7-2-3-3-2" />
    </marker>
    <rect
       x="173.45633"
       y="550.37762"
       width="62.325565"
       height="20.115658"
       id="rect38" />
    <rect
       x="173.45633"
       y="550.37762"
       width="62.325565"
       height="20.115658"
       id="rect37" />
    <marker
       style="overflow:visible"
       id="Triangle-1-27-0-3-8-1"
       refX="0"
       refY="0"
       orient="auto-start-reverse"
       markerWidth="1"
       markerHeight="1"
       viewBox="0 0 1 1"
       preserveAspectRatio="xMidYMid">
      <path
         transform="scale(0.5)"
         style="fill:context-stroke;fill-rule:evenodd;stroke:context-stroke;stroke-width:1pt"
         d="M 5.77,0 -2.88,5 V -5 Z"
         id="path135-7-9-9-8-4-9" />
    </marker>
    <marker
       style="overflow:visible"
       id="Triangle-1-27-0-35-6"
       refX="0"
       refY="0"
       orient="auto-start-reverse"
       markerWidth="1"
       markerHeight="1"
       viewBox="0 0 1 1"
       preserveAspectRatio="xMidYMid">
      <path
         transform="scale(0.5)"
         style="fill:context-stroke;fill-rule:evenodd;stroke:context-stroke;stroke-width:1pt"
         d="M 5.77,0 -2.88,5 V -5 Z"
         id="path135-7-9-9-9-8" />
    </marker>
    <marker
       style="overflow:visible"
       id="Triangle-1-27-2-8"
       refX="0"
       refY="0"
       orient="auto-start-reverse"
       markerWidth="1"
       markerHeight="1"
       viewBox="0 0 1 1"
       preserveAspectRatio="xMidYMid">
      <path
         transform="scale(0.5)"
         style="fill:context-stroke;fill-rule:evenodd;stroke:context-stroke;stroke-width:1pt"
         d="M 5.77,0 -2.88,5 V -5 Z"
         id="path135-7-9-91-0" />
    </marker>
    <marker
       style="overflow:visible"
       id="Triangle-1-2-4-6-7-1-3-9"
       refX="0"
       refY="0"
       orient="auto-start-reverse"
       markerWidth="1"
       markerHeight="1"
       viewBox="0 0 1 1"
       preserveAspectRatio="xMidYMid">
      <path
         transform="scale(0.5)"
         style="fill:context-stroke;fill-rule:evenodd;stroke:context-stroke;stroke-width:1pt"
         d="M 5.77,0 -2.88,5 V -5 Z"
         id="path135-7-2-3-3-2-6-1-3" />
    </marker>
    <marker
       style="overflow:visible"
       id="Triangle-1-2-4-6-7-13-1"
       refX="0"
       refY="0"
       orient="auto-start-reverse"
       markerWidth="1"
       markerHeight="1"
       viewBox="0 0 1 1"
       preserveAspectRatio="xMidYMid">
      <path
         transform="scale(0.5)"
         style="fill:context-stroke;fill-rule:evenodd;stroke:context-stroke;stroke-width:1pt"
         d="M 5.77,0 -2.88,5 V -5 Z"
         id="path135-7-2-3-3-2-8-9" />
    </marker>
    <marker
       style="overflow:visible"
       id="Triangle-58-6"
       refX="0"
       refY="0"
       orient="auto-start-reverse"
       markerWidth="1"
       markerHeight="1"
       viewBox="0 0 1 1"
       preserveAspectRatio="xMidYMid">
      <path
         transform="scale(0.5)"
         style="fill:context-stroke;fill-rule:evenodd;stroke:context-stroke;stroke-width:1pt"
         d="M 5.77,0 -2.88,5 V -5 Z"
         id="path135-1-1" />
    </marker>
    <marker
       style="overflow:visible"
       id="Triangle-58-4"
       refX="0"
       refY="0"
       orient="auto-start-reverse"
       markerWidth="1"
       markerHeight="1"
       viewBox="0 0 1 1"
       preserveAspectRatio="xMidYMid">
      <path
         transform="scale(0.5)"
         style="fill:context-stroke;fill-rule:evenodd;stroke:context-stroke;stroke-width:1pt"
         d="M 5.77,0 -2.88,5 V -5 Z"
         id="path135-1-8" />
    </marker>
    <rect
       x="173.45633"
       y="550.37762"
       width="68.141243"
       height="21.403152"
       id="rect43-8" />
    <rect
       x="173.45633"
       y="550.37762"
       width="51.109615"
       height="36.853081"
       id="rect42-2" />
    <rect
       x="173.45633"
       y="550.37762"
       width="50.69421"
       height="34.707256"
       id="rect41-4" />
    <rect
       x="173.45633"
       y="550.37762"
       width="54.432858"
       height="27.840622"
       id="rect40-5" />
    <rect
       x="173.45633"
       y="550.37762"
       width="62.325565"
       height="29.557281"
       id="rect39-5" />
    <marker
       style="overflow:visible"
       id="Triangle-1-2-4-6-7-1-3"
       refX="0"
       refY="0"
       orient="auto-start-reverse"
       markerWidth="1"
       markerHeight="1"
       viewBox="0 0 1 1"
       preserveAspectRatio="xMidYMid">
      <path
         transform="scale(0.5)"
         style="fill:context-stroke;fill-rule:evenodd;stroke:context-stroke;stroke-width:1pt"
         d="M 5.77,0 -2.88,5 V -5 Z"
         id="path135-7-2-3-3-2-6-1" />
    </marker>
    <marker
       style="overflow:visible"
       id="Triangle-1-2-4-6-7-1"
       refX="0"
       refY="0"
       orient="auto-start-reverse"
       markerWidth="1"
       markerHeight="1"
       viewBox="0 0 1 1"
       preserveAspectRatio="xMidYMid">
      <path
         transform="scale(0.5)"
         style="fill:context-stroke;fill-rule:evenodd;stroke:context-stroke;stroke-width:1pt"
         d="M 5.77,0 -2.88,5 V -5 Z"
         id="path135-7-2-3-3-2-6" />
    </marker>
    <marker
       style="overflow:visible"
       id="Triangle-1-2-4-6-7-13"
       refX="0"
       refY="0"
       orient="auto-start-reverse"
       markerWidth="1"
       markerHeight="1"
       viewBox="0 0 1 1"
       preserveAspectRatio="xMidYMid">
      <path
         transform="scale(0.5)"
         style="fill:context-stroke;fill-rule:evenodd;stroke:context-stroke;stroke-width:1pt"
         d="M 5.77,0 -2.88,5 V -5 Z"
         id="path135-7-2-3-3-2-8" />
    </marker>
    <marker
       style="overflow:visible"
       id="Triangle-1-2-4-6-7-17"
       refX="0"
       refY="0"
       orient="auto-start-reverse"
       markerWidth="1"
       markerHeight="1"
       viewBox="0 0 1 1"
       preserveAspectRatio="xMidYMid">
      <path
         transform="scale(0.5)"
         style="fill:context-stroke;fill-rule:evenodd;stroke:context-stroke;stroke-width:1pt"
         d="M 5.77,0 -2.88,5 V -5 Z"
         id="path135-7-2-3-3-2-1" />
    </marker>
    <rect
       x="173.45633"
       y="550.37762"
       width="46.124748"
       height="38.140575"
       id="rect38-1" />
    <rect
       x="173.45633"
       y="550.37762"
       width="27.431498"
       height="29.986446"
       id="rect37-5" />
  </defs>
  <g
     id="layer1"
     transform="translate(-66.4916, -3.42425)">
    <text
       xml:space="preserve"
       style="font-style:normal;font-variant:normal;font-weight:300;font-stretch:normal;font-size:8.46667px;line-height:0;font-family:Calibri;-inkscape-font-specification:'Calibri, Light';font-variant-ligatures:normal;font-variant-caps:normal;font-variant-numeric:normal;font-variant-east-asian:normal;text-align:start;writing-mode:lr-tb;direction:ltr;text-anchor:start;white-space:pre;inline-size:1397.34;display:inline;fill:#000000;fill-opacity:1;stroke:#000000;stroke-width:0.270999;stroke-opacity:1"
       x="425.46844"
       y="81.237671"
       id="text4"
       transform="matrix(0.05823851,0,0,1.0262459,49.16631,4.0895301)"><tspan
         x="425.46844"
         y="81.237671"
         id="tspan12"><tspan
           dx="0 0 0 0 0 0 0 0 0 0 0 0 0 0 0 0 0 0 0 0 0 0 0 0 0 0 0 0 0 0 0 0 0 0 0 0 0 0 0 0 0 0 0 0 0 0 0 0 0 0 0 0 0 0 0 0 0 0 0 0 0 0 0 0 0 0 0 0 0 0 0 0 0 0 0 0 0 0 0 0 0 0 0 0 0 0 0 0 0 0 0 0 0 0 0 0 0 0 0 0 0 0 0 0 0 0 0 0 0 0 0 0 0 0 0 0 0 0 0 0 0 0 0 0 0 0 0 0 0 0 0 0 0 0 0 0 0 0 0 0 0 0 0 0 0 0 0 0 0 0 0 0 0 0 0 0 0 0 0 0 0 0 0 0 0 0 0 0 0 0 0 0 0 0 0 0 0 0 0 0 0 0 0 0 0 0 0 0 0 0 0 0 0 0 0 0 0 0 0 0 0 0 0 0 0 0 0 0 0 0 0 0 0 0 0 0 0 0 0 0 0 0 0 0 0 0 0 0 0 0 0 0 0 0 0 0 0 0 0 0 0 0 0 0 0 0 0 0 0 0 0 0 0 0 0 0 0 0 0 0 0 0 0 0 0 0 0 0 0 0 0 0 0 0 0 0 0 0 0 0 0 0 0 0 0 0 0 0 0 0 0 0 0 0 0 0 0 0 -0.00010704994"
           id="tspan11">{\LARGE$\textcolor{mred}{0}\overset{\textcolor{mgrey}{6}}{01}\textcolor{mgreen}{0}\overset{\textcolor{mgrey}{1}}{01}\overset{\textcolor{mgrey}{3}}{01}\textcolor{mgreen}{1}\textcolor{mblue}{0}\overset{\textcolor{mgrey}{2}}{01}\overset{\textcolor{mgrey}{4}}{01}\textcolor{mblue}{1}\overset{\textcolor{mgrey}{5}}{01}\textcolor{mred}{1}$}</tspan></tspan></text>
    <g
       id="g1"
       transform="translate(-1.1780383)">
      <g
         transform="matrix(0.352778,0,0,0.352778,276.957,86.4964)"
         ns24:version="1.11.1"
         ns24:texconverter="lualatex"
         ns24:pdfconverter="inkscape"
         ns24:text="\\definecolor{mred}{RGB}{255,0,0}\n\\definecolor{mblue}{RGB}{0,0,255}\n\\definecolor{mgreen}{RGB}{0,128,0}\n\\definecolor{mgrey}{RGB}{150,150,150}\n$$\n\\textcolor{mred}{0}\\overset{\\textcolor{mgrey}{6}}{01}\\textcolor{mgreen}{0}\\overset{\\textcolor{mgrey}{1}}{01}\\overset{\\textcolor{mgrey}{3}}{01}\\textcolor{mgreen}{1}\\textcolor{mblue}{0}\\overset{\\textcolor{mgrey}{2}}{01}\\overset{\\textcolor{mgrey}{4}}{01}\\textcolor{mblue}{1}\\overset{\\textcolor{mgrey}{5}}{01}\\textcolor{mred}{1}\n$$"
         ns24:preamble="C:\Users\janis\AppData\Roaming\inkscape\extensions\textext\default_packages.tex"
         ns24:scale="1.0"
         ns24:alignment="middle center"
         ns24:inkscapeversion="1.4"
         ns24:jacobian_sqrt="0.352778"
         id="g25">
        <defs
           id="id-ef030095-ab3c-4823-975e-348d3cce9539">
          <g
             id="id-e618f541-3143-4812-b65b-e544a75602b9">
            <g
               id="id-5eb57012-bab0-4289-881b-a00f46dacf93">
              <path
                 d="m 4.578125,-3.1875 c 0,-0.796875 -0.046875,-1.59375 -0.390625,-2.328125 -0.453125,-0.96875 -1.28125,-1.125 -1.6875,-1.125 -0.609375,0 -1.328125,0.265625 -1.75,1.1875 -0.3125,0.6875 -0.359375,1.46875 -0.359375,2.265625 0,0.75 0.03125,1.640625 0.453125,2.40625 0.421875,0.796875 1.15625,1 1.640625,1 0.53125,0 1.296875,-0.203125 1.734375,-1.15625 0.3125,-0.6875 0.359375,-1.46875 0.359375,-2.25 z M 2.484375,0 C 2.09375,0 1.5,-0.25 1.328125,-1.203125 1.21875,-1.796875 1.21875,-2.71875 1.21875,-3.3125 c 0,-0.640625 0,-1.296875 0.078125,-1.828125 0.1875,-1.1875 0.9375,-1.28125 1.1875,-1.28125 0.328125,0 0.984375,0.1875 1.171875,1.171875 0.109375,0.5625 0.109375,1.3125 0.109375,1.9375 0,0.75 0,1.421875 -0.109375,2.0625 C 3.5,-0.296875 2.9375,0 2.484375,0 Z m 0,0"
                 id="id-8946f217-def7-4445-8e8a-34e748bd5baf" />
            </g>
            <g
               id="id-d40f3a49-3bd4-4704-9ca5-056099f62054">
              <path
                 d="m 2.9375,-6.375 c 0,-0.25 0,-0.265625 -0.234375,-0.265625 C 2.078125,-6 1.203125,-6 0.890625,-6 v 0.3125 c 0.203125,0 0.78125,0 1.296875,-0.265625 v 5.171875 c 0,0.359375 -0.03125,0.46875 -0.921875,0.46875 h -0.3125 V 0 c 0.34375,-0.03125 1.203125,-0.03125 1.609375,-0.03125 0.390625,0 1.265625,0 1.609375,0.03125 v -0.3125 h -0.3125 c -0.90625,0 -0.921875,-0.109375 -0.921875,-0.46875 z m 0,0"
                 id="id-a40e40f9-69df-469e-9845-697358d90683" />
            </g>
            <g
               id="id-d35ab459-4bcc-407a-8d10-f8f461a163fa">
              <path
                 d="m 1.046875,-2.28125 c 0,-0.5625 0.046875,-1.078125 0.3125,-1.515625 0.234375,-0.375 0.609375,-0.625 1.0625,-0.625 0.203125,0 0.484375,0.046875 0.625,0.234375 C 2.875,-4.171875 2.71875,-4.046875 2.71875,-3.84375 c 0,0.171875 0.125,0.328125 0.328125,0.328125 0.21875,0 0.34375,-0.140625 0.34375,-0.34375 0,-0.40625 -0.296875,-0.765625 -0.984375,-0.765625 -1,0 -2.03125,0.921875 -2.03125,2.421875 0,1.796875 0.84375,2.34375 1.625,2.34375 0.84375,0 1.578125,-0.65625 1.578125,-1.5625 0,-0.890625 -0.703125,-1.546875 -1.515625,-1.546875 -0.5625,0 -0.859375,0.375 -1.015625,0.6875 z M 2,-0.078125 c -0.359375,0 -0.625,-0.203125 -0.78125,-0.515625 C 1.125,-0.796875 1.0625,-1.15625 1.0625,-1.5625 c 0,-0.6875 0.40625,-1.203125 0.96875,-1.203125 0.3125,0 0.53125,0.125 0.703125,0.375 0.171875,0.265625 0.171875,0.5625 0.171875,0.96875 0,0.390625 0,0.6875 -0.1875,0.96875 -0.15625,0.234375 -0.390625,0.375 -0.71875,0.375 z m 0,0"
                 id="id-d06ab196-4fad-44af-abec-32662c8c03b5" />
            </g>
            <g
               id="id-0c592732-e326-434b-8be6-6d7bb9292526">
              <path
                 d="m 2.328125,-4.4375 c 0,-0.1875 0,-0.1875 -0.203125,-0.1875 -0.453125,0.4375 -1.078125,0.4375 -1.359375,0.4375 v 0.25 c 0.15625,0 0.625,0 1,-0.1875 v 3.546875 c 0,0.234375 0,0.328125 -0.6875,0.328125 H 0.8125 V 0 c 0.125,0 0.984375,-0.03125 1.234375,-0.03125 0.21875,0 1.09375,0.03125 1.25,0.03125 V -0.25 H 3.03125 c -0.703125,0 -0.703125,-0.09375 -0.703125,-0.328125 z m 0,0"
                 id="id-082a331b-2eb6-4d7a-9338-b9b395979e30" />
            </g>
            <g
               id="id-90731ef5-8f8c-4654-9cfa-800a60489fe9">
              <path
                 d="m 1.90625,-2.328125 c 0.546875,0 0.9375,0.375 0.9375,1.125 0,0.859375 -0.515625,1.125 -0.90625,1.125 -0.28125,0 -0.90625,-0.078125 -1.1875,-0.5 0.328125,0 0.40625,-0.234375 0.40625,-0.390625 0,-0.21875 -0.171875,-0.375 -0.390625,-0.375 -0.1875,0 -0.390625,0.125 -0.390625,0.40625 0,0.65625 0.71875,1.078125 1.5625,1.078125 0.96875,0 1.640625,-0.65625 1.640625,-1.34375 0,-0.546875 -0.4375,-1.09375 -1.203125,-1.25 0.71875,-0.265625 0.984375,-0.78125 0.984375,-1.21875 0,-0.546875 -0.625,-0.953125 -1.40625,-0.953125 -0.765625,0 -1.359375,0.375 -1.359375,0.9375 0,0.234375 0.15625,0.359375 0.359375,0.359375 0.21875,0 0.359375,-0.15625 0.359375,-0.34375 0,-0.203125 -0.140625,-0.359375 -0.359375,-0.375 0.25,-0.296875 0.71875,-0.375 0.984375,-0.375 0.3125,0 0.75,0.15625 0.75,0.75 0,0.296875 -0.09375,0.625 -0.28125,0.828125 -0.21875,0.265625 -0.421875,0.28125 -0.765625,0.3125 -0.171875,0.015625 -0.1875,0.015625 -0.21875,0.015625 -0.015625,0 -0.078125,0.015625 -0.078125,0.09375 0,0.09375 0.0625,0.09375 0.1875,0.09375 z m 0,0"
                 id="id-9c0b5194-7478-4d77-998d-9025fab0bc61" />
            </g>
            <g
               id="id-0e4e5c35-2fbc-421c-b77b-f7b9dc30e877">
              <path
                 d="M 3.515625,-1.265625 H 3.28125 c -0.015625,0.15625 -0.09375,0.5625 -0.1875,0.625 C 3.046875,-0.59375 2.515625,-0.59375 2.40625,-0.59375 H 1.125 c 0.734375,-0.640625 0.984375,-0.84375 1.390625,-1.171875 0.515625,-0.40625 1,-0.84375 1,-1.5 0,-0.84375 -0.734375,-1.359375 -1.625,-1.359375 -0.859375,0 -1.453125,0.609375 -1.453125,1.25 0,0.34375 0.296875,0.390625 0.375,0.390625 0.15625,0 0.359375,-0.125 0.359375,-0.375 0,-0.125 -0.046875,-0.375 -0.40625,-0.375 C 0.984375,-4.21875 1.453125,-4.375 1.78125,-4.375 c 0.703125,0 1.0625,0.546875 1.0625,1.109375 0,0.609375 -0.4375,1.078125 -0.65625,1.328125 L 0.515625,-0.265625 C 0.4375,-0.203125 0.4375,-0.1875 0.4375,0 h 2.875 z m 0,0"
                 id="id-6bb32c78-c737-43d3-ad5b-e239029d68c9" />
            </g>
            <g
               id="id-f153d3a5-4e5f-4b5b-a157-6431527bd33a">
              <path
                 d="m 3.6875,-1.140625 v -0.25 H 2.90625 V -4.5 c 0,-0.140625 0,-0.203125 -0.140625,-0.203125 -0.09375,0 -0.125,0 -0.1875,0.109375 l -2.3125,3.203125 v 0.25 h 2.0625 v 0.5625 c 0,0.25 0,0.328125 -0.578125,0.328125 H 1.5625 V 0 C 1.921875,-0.015625 2.359375,-0.03125 2.609375,-0.03125 2.875,-0.03125 3.3125,-0.015625 3.671875,0 v -0.25 h -0.1875 C 2.90625,-0.25 2.90625,-0.328125 2.90625,-0.578125 v -0.5625 z M 2.375,-3.9375 v 2.546875 H 0.53125 Z m 0,0"
                 id="id-fb407a93-4c3c-419b-9842-9f24274ee5fd" />
            </g>
            <g
               id="id-da556c79-ee48-4dbe-9e50-11387da51938">
              <path
                 d="m 1.078125,-3.890625 c 0.359375,0.09375 0.5625,0.09375 0.671875,0.09375 0.921875,0 1.46875,-0.625 1.46875,-0.734375 0,-0.078125 -0.046875,-0.09375 -0.078125,-0.09375 -0.015625,0 -0.03125,0 -0.0625,0.015625 -0.171875,0.0625 -0.53125,0.203125 -1.046875,0.203125 -0.203125,0 -0.5625,-0.015625 -1.015625,-0.1875 C 0.9375,-4.625 0.921875,-4.625 0.921875,-4.625 c -0.09375,0 -0.09375,0.078125 -0.09375,0.1875 v 2.046875 c 0,0.125 0,0.203125 0.109375,0.203125 0.0625,0 0.078125,0 0.140625,-0.09375 0.296875,-0.375 0.734375,-0.4375 0.96875,-0.4375 0.421875,0 0.609375,0.328125 0.640625,0.390625 0.125,0.234375 0.171875,0.5 0.171875,0.90625 0,0.203125 0,0.609375 -0.21875,0.921875 -0.171875,0.25 -0.46875,0.421875 -0.8125,0.421875 -0.453125,0 -0.921875,-0.25 -1.09375,-0.71875 0.265625,0.015625 0.40625,-0.15625 0.40625,-0.34375 0,-0.296875 -0.265625,-0.34375 -0.359375,-0.34375 0,0 -0.34375,0 -0.34375,0.375 0,0.625 0.578125,1.25 1.40625,1.25 0.890625,0 1.671875,-0.65625 1.671875,-1.546875 0,-0.78125 -0.59375,-1.5 -1.453125,-1.5 -0.3125,0 -0.671875,0.0625 -0.984375,0.328125 z m 0,0"
                 id="id-79b2b653-5436-4469-9d5f-b980a78bfafc" />
            </g>
          </g>
        </defs>
      </g>
      <text
         xml:space="preserve"
         style="font-style:normal;font-variant:normal;font-weight:normal;font-stretch:normal;font-size:4.23333px;font-family:sans-serif;-inkscape-font-specification:'sans-serif, Normal';font-variant-ligatures:normal;font-variant-caps:normal;font-variant-numeric:normal;font-variant-east-asian:normal;text-align:center;writing-mode:lr-tb;direction:ltr;text-anchor:middle;display:inline;fill:#000000;fill-opacity:1;fill-rule:nonzero;stroke:#000000;stroke-width:0.365001;stroke-dasharray:none;stroke-opacity:1"
         x="93.747467"
         y="73.613289"
         id="text1"><tspan
           id="tspan1"
           style="font-size:4.23333px;text-align:center;text-anchor:middle;fill:#000000;fill-opacity:1;stroke:#000000;stroke-width:0.365"
           x="92.914444"
           y="73.613289">1</tspan></text>
      <ellipse
         style="display:inline;fill:#ff6467;fill-opacity:1;fill-rule:nonzero;stroke:#ff6476;stroke-width:0.229762;stroke-dasharray:none;stroke-opacity:1"
         id="ellipse1"
         cx="107.4054"
         cy="32.184345"
         rx="4.1166363"
         ry="4.0389638" />
      <text
         xml:space="preserve"
         style="font-style:normal;font-variant:normal;font-weight:normal;font-stretch:normal;font-size:4.23333px;font-family:sans-serif;-inkscape-font-specification:'sans-serif, Normal';font-variant-ligatures:normal;font-variant-caps:normal;font-variant-numeric:normal;font-variant-east-asian:normal;text-align:center;writing-mode:lr-tb;direction:ltr;text-anchor:middle;display:inline;fill:#000000;fill-opacity:1;fill-rule:nonzero;stroke:#000000;stroke-width:0.365001;stroke-dasharray:none;stroke-opacity:1"
         x="104.12419"
         y="73.608116"
         id="text3"><tspan
           id="tspan3"
           style="font-size:4.23333px;text-align:center;text-anchor:middle;fill:#000000;fill-opacity:1;stroke:#000000;stroke-width:0.365"
           x="103.11029"
           y="73.608116">3</tspan></text>
      <text
         xml:space="preserve"
         transform="matrix(0.23266826,0,0,0.22520886,55.317038,-85.411398)"
         id="text28"
         style="font-style:normal;font-variant:normal;font-weight:300;font-stretch:normal;font-size:18.4936px;font-family:Calibri;-inkscape-font-specification:'Calibri, Light';font-variant-ligatures:normal;font-variant-caps:normal;font-variant-numeric:normal;font-variant-east-asian:normal;text-align:start;writing-mode:lr-tb;direction:ltr;white-space:pre;shape-inside:url(#rect37-5);display:inline;fill:none;fill-opacity:0;fill-rule:nonzero;stroke:#000000;stroke-width:1.37953;stroke-dasharray:none;stroke-opacity:1"
         x="-2.8777868e-07"
         y="0"><tspan
           x="173.45703"
           y="566.55885"
           id="tspan13">KO</tspan></text>
      <text
         xml:space="preserve"
         transform="matrix(0.23266826,0,0,0.22520886,62.254256,-62.541316)"
         id="text29"
         style="font-style:normal;font-variant:normal;font-weight:300;font-stretch:normal;font-size:18.4936px;font-family:Calibri;-inkscape-font-specification:'Calibri, Light';font-variant-ligatures:normal;font-variant-caps:normal;font-variant-numeric:normal;font-variant-east-asian:normal;text-align:start;writing-mode:lr-tb;direction:ltr;white-space:pre;shape-inside:url(#rect38-1);shape-padding:0.830811;display:inline;fill:none;fill-opacity:0;fill-rule:nonzero;stroke:#000000;stroke-width:1.37953;stroke-dasharray:none;stroke-opacity:1"
         x="2.5285408e-07"
         y="0"><tspan
           x="174.28711"
           y="567.38893"
           id="tspan14">Š\$</tspan></text>
      <ellipse
         style="display:inline;fill:#05e972;fill-opacity:1;fill-rule:nonzero;stroke:#05e972;stroke-width:0.229762;stroke-dasharray:none;stroke-opacity:1"
         id="ellipse2"
         cx="99.431252"
         cy="52.157261"
         rx="4.1166363"
         ry="4.0389638" />
      <ellipse
         style="display:inline;fill:#51a2ff;fill-opacity:1;fill-rule:nonzero;stroke:#51a2ff;stroke-width:0.229762;stroke-dasharray:none;stroke-opacity:1"
         id="ellipse29"
         cx="115.37954"
         cy="52.157261"
         rx="4.1166363"
         ry="4.0389638" />
      <path
         style="display:inline;fill:none;fill-opacity:0;fill-rule:nonzero;stroke:#000000;stroke-width:0.163364;stroke-dasharray:none;stroke-opacity:1;marker-end:url(#Triangle-1-2-4-6-7-17)"
         d="m 109.93071,35.313055 4.95965,12.251654"
         id="path29" />
      <path
         style="display:inline;fill:none;fill-opacity:0;fill-rule:nonzero;stroke:#000000;stroke-width:0.165162;stroke-dasharray:none;stroke-opacity:1;marker-end:url(#Triangle-1-2-4-6-7-13)"
         d="m 98.380219,56.083816 5.369691,11.566528"
         id="path29-2" />
      <path
         style="display:inline;fill:none;fill-opacity:0;fill-rule:nonzero;stroke:#000000;stroke-width:0.163364;stroke-dasharray:none;stroke-opacity:1;marker-end:url(#Triangle-1-2-4-6-7-1)"
         d="M 104.67404,35.296717 99.714383,47.548371"
         id="path29-7" />
      <path
         style="display:inline;fill:none;fill-opacity:0;fill-rule:nonzero;stroke:#000000;stroke-width:0.157315;stroke-dasharray:none;stroke-opacity:1;marker-end:url(#Triangle-1-2-4-6-7-1-3)"
         d="M 98.147401,56.13192 93.169134,67.450642"
         id="path29-7-3" />
      <text
         xml:space="preserve"
         transform="matrix(0.23266826,0,0,0.22520886,73.046603,-85.411398)"
         id="text30"
         style="font-style:normal;font-variant:normal;font-weight:300;font-stretch:normal;font-size:18.4936px;font-family:Calibri;-inkscape-font-specification:'Calibri, Light';font-variant-ligatures:normal;font-variant-caps:normal;font-variant-numeric:normal;font-variant-east-asian:normal;text-align:start;writing-mode:lr-tb;direction:ltr;white-space:pre;shape-inside:url(#rect39-5);display:inline;fill:none;fill-opacity:0;fill-rule:nonzero;stroke:#000000;stroke-width:1.37953;stroke-dasharray:none;stroke-opacity:1"
         x="-2.2351742e-07"
         y="0"><tspan
           x="173.45703"
           y="566.55885"
           id="tspan15">O</tspan></text>
      <text
         xml:space="preserve"
         transform="matrix(0.23266826,0,0,0.22520886,42.10022,-67.419003)"
         id="text31"
         style="font-style:normal;font-variant:normal;font-weight:300;font-stretch:normal;font-size:15.4113px;font-family:Calibri;-inkscape-font-specification:'Calibri, Light';font-variant-ligatures:normal;font-variant-caps:normal;font-variant-numeric:normal;font-variant-east-asian:normal;text-align:start;writing-mode:lr-tb;direction:ltr;white-space:pre;shape-inside:url(#rect40-5);display:inline;fill:none;fill-opacity:0;fill-rule:nonzero;stroke:#000000;stroke-width:1.37953;stroke-dasharray:none;stroke-opacity:1"
         x="-5.2340329e-07"
         y="0"><tspan
           x="173.45703"
           y="563.86184"
           id="tspan16">KOŠ\$</tspan></text>
      <text
         xml:space="preserve"
         style="font-style:normal;font-variant:normal;font-weight:normal;font-stretch:normal;font-size:4.23333px;font-family:sans-serif;-inkscape-font-specification:'sans-serif, Normal';font-variant-ligatures:normal;font-variant-caps:normal;font-variant-numeric:normal;font-variant-east-asian:normal;text-align:center;writing-mode:lr-tb;direction:ltr;text-anchor:middle;display:inline;fill:#000000;fill-opacity:1;fill-rule:nonzero;stroke:#000000;stroke-width:0.365001;stroke-dasharray:none;stroke-opacity:1"
         x="112.85526"
         y="73.64016"
         id="text32"><tspan
           id="tspan32"
           style="font-size:4.23333px;text-align:center;text-anchor:middle;fill:#000000;fill-opacity:1;stroke:#000000;stroke-width:0.365"
           x="111.81347"
           y="73.64016">2</tspan></text>
      <text
         xml:space="preserve"
         style="font-style:normal;font-variant:normal;font-weight:normal;font-stretch:normal;font-size:4.23333px;font-family:sans-serif;-inkscape-font-specification:'sans-serif, Normal';font-variant-ligatures:normal;font-variant-caps:normal;font-variant-numeric:normal;font-variant-east-asian:normal;text-align:center;writing-mode:lr-tb;direction:ltr;text-anchor:middle;display:inline;fill:#000000;fill-opacity:1;fill-rule:nonzero;stroke:#000000;stroke-width:0.365001;stroke-dasharray:none;stroke-opacity:1"
         x="123.02082"
         y="73.608116"
         id="text33"><tspan
           id="tspan33"
           style="font-size:4.23333px;text-align:center;text-anchor:middle;fill:#000000;fill-opacity:1;stroke:#000000;stroke-width:0.365"
           x="121.85707"
           y="73.608116">4</tspan></text>
      <ellipse
         style="display:inline;fill:none;fill-opacity:0;fill-rule:nonzero;stroke:#000000;stroke-width:0.229762;stroke-dasharray:none;stroke-opacity:1"
         id="ellipse3"
         cx="92.976456"
         cy="72.069199"
         rx="4.1166363"
         ry="4.0389638" />
      <ellipse
         style="display:inline;fill:none;fill-opacity:0;fill-rule:nonzero;stroke:#000000;stroke-width:0.229762;stroke-dasharray:none;stroke-opacity:1"
         id="ellipse4"
         cx="103.12373"
         cy="72.069199"
         rx="4.1166363"
         ry="4.0389638" />
      <ellipse
         style="display:inline;fill:none;fill-opacity:0;fill-rule:nonzero;stroke:#000000;stroke-width:0.229762;stroke-dasharray:none;stroke-opacity:1"
         id="ellipse32"
         cx="111.84241"
         cy="72.069199"
         rx="4.1166363"
         ry="4.0389638" />
      <ellipse
         style="display:inline;fill:none;fill-opacity:0;fill-rule:nonzero;stroke:#000000;stroke-width:0.229762;stroke-dasharray:none;stroke-opacity:1"
         id="ellipse33"
         cx="121.83433"
         cy="72.069199"
         rx="4.1166363"
         ry="4.0389638" />
      <text
         xml:space="preserve"
         transform="matrix(0.23266826,0,0,0.22520886,80.504621,-62.354375)"
         id="text34"
         style="font-style:normal;font-variant:normal;font-weight:300;font-stretch:normal;font-size:18.4936px;font-family:Calibri;-inkscape-font-specification:'Calibri, Light';font-variant-ligatures:normal;font-variant-caps:normal;font-variant-numeric:normal;font-variant-east-asian:normal;text-align:start;writing-mode:lr-tb;direction:ltr;white-space:pre;shape-inside:url(#rect41-4);display:inline;fill:none;fill-opacity:0;fill-rule:nonzero;stroke:#000000;stroke-width:1.37953;stroke-dasharray:none;stroke-opacity:1"
         x="2.5285408e-07"
         y="0"><tspan
           x="173.45703"
           y="566.55885"
           id="tspan17">Š\$</tspan></text>
      <text
         xml:space="preserve"
         transform="matrix(0.23266826,0,0,0.22520886,61.885053,-67.784726)"
         id="text35"
         style="font-style:normal;font-variant:normal;font-weight:300;font-stretch:normal;font-size:18.4936px;font-family:Calibri;-inkscape-font-specification:'Calibri, Light';font-variant-ligatures:normal;font-variant-caps:normal;font-variant-numeric:normal;font-variant-east-asian:normal;text-align:start;writing-mode:lr-tb;direction:ltr;white-space:pre;shape-inside:url(#rect42-2);display:inline;fill:none;fill-opacity:0;fill-rule:nonzero;stroke:#000000;stroke-width:1.37953;stroke-dasharray:none;stroke-opacity:1"
         x="-1.6205013e-06"
         y="0"><tspan
           x="173.45703"
           y="566.55885"
           id="tspan18">KOŠ\$</tspan></text>
      <text
         xml:space="preserve"
         style="font-style:normal;font-variant:normal;font-weight:normal;font-stretch:normal;font-size:4.23333px;font-family:sans-serif;-inkscape-font-specification:'sans-serif, Normal';font-variant-ligatures:normal;font-variant-caps:normal;font-variant-numeric:normal;font-variant-east-asian:normal;text-align:center;writing-mode:lr-tb;direction:ltr;text-anchor:middle;display:inline;fill:none;fill-opacity:0;fill-rule:nonzero;stroke:#000000;stroke-width:0.365001;stroke-dasharray:none;stroke-opacity:1"
         x="126.45243"
         y="42.078121"
         id="text36"><tspan
           id="tspan36"
           style="font-size:4.23333px;text-align:center;text-anchor:middle;stroke-width:0.365"
           x="125.44992"
           y="42.078121">5</tspan></text>
      <text
         xml:space="preserve"
         style="font-style:normal;font-variant:normal;font-weight:normal;font-stretch:normal;font-size:4.23333px;font-family:sans-serif;-inkscape-font-specification:'sans-serif, Normal';font-variant-ligatures:normal;font-variant-caps:normal;font-variant-numeric:normal;font-variant-east-asian:normal;text-align:center;writing-mode:lr-tb;direction:ltr;text-anchor:middle;display:inline;fill:none;fill-opacity:0;fill-rule:nonzero;stroke:#000000;stroke-width:0.365001;stroke-dasharray:none;stroke-opacity:1"
         x="90.379921"
         y="42.107059"
         id="text36-8"><tspan
           id="tspan36-8"
           style="font-size:4.23333px;text-align:center;text-anchor:middle;stroke-width:0.365"
           x="89.290581"
           y="42.107059">6</tspan></text>
      <ellipse
         style="display:inline;fill:none;fill-opacity:0;fill-rule:nonzero;stroke:#000000;stroke-width:0.229762;stroke-dasharray:none;stroke-opacity:1"
         id="ellipse36"
         cx="125.49332"
         cy="40.571239"
         rx="4.1166363"
         ry="4.0389638" />
      <ellipse
         style="display:inline;fill:none;fill-opacity:0;fill-rule:nonzero;stroke:#000000;stroke-width:0.229762;stroke-dasharray:none;stroke-opacity:1"
         id="ellipse36-2"
         cx="89.317451"
         cy="40.571239"
         rx="4.1166363"
         ry="4.0389638" />
      <text
         xml:space="preserve"
         transform="matrix(0.23266826,0,0,0.22520886,75.639236,-92.706458)"
         id="text37"
         style="font-style:normal;font-variant:normal;font-weight:300;font-stretch:normal;font-size:18.4936px;font-family:Calibri;-inkscape-font-specification:'Calibri, Light';font-variant-ligatures:normal;font-variant-caps:normal;font-variant-numeric:normal;font-variant-east-asian:normal;text-align:start;writing-mode:lr-tb;direction:ltr;white-space:pre;shape-inside:url(#rect43-8);display:inline;fill:none;fill-opacity:0;fill-rule:nonzero;stroke:#000000;stroke-width:1.37953;stroke-dasharray:none;stroke-opacity:1"
         x="2.5285408e-07"
         y="0"><tspan
           x="173.45703"
           y="566.55885"
           id="tspan19">Š\$</tspan></text>
      <path
         style="display:inline;fill:none;fill-opacity:0;fill-rule:nonzero;stroke:#000000;stroke-width:0.171021;stroke-dasharray:none;stroke-dashoffset:0;stroke-opacity:1;marker-end:url(#Triangle-58-4)"
         d="m 111.40076,33.239357 c 10.02253,5.062549 10.02253,5.062549 10.02253,5.062549"
         id="path37" />
      <text
         xml:space="preserve"
         style="font-style:normal;font-variant:normal;font-weight:300;font-stretch:normal;font-size:4.23333px;font-family:Calibri;-inkscape-font-specification:'Calibri, Light';font-variant-ligatures:normal;font-variant-caps:normal;font-variant-numeric:normal;font-variant-east-asian:normal;text-align:end;writing-mode:lr-tb;direction:ltr;text-anchor:end;display:inline;fill:none;fill-opacity:0;stroke:#000000;stroke-width:0.270999"
         x="103.96598"
         y="35.074703"
         id="text38"><tspan
           id="tspan31"
           style="font-style:normal;font-variant:normal;font-weight:300;font-stretch:normal;font-size:4.23333px;font-family:Calibri;-inkscape-font-specification:'Calibri, Light';font-variant-ligatures:normal;font-variant-caps:normal;font-variant-numeric:normal;font-variant-east-asian:normal;text-align:end;text-anchor:end;stroke-width:0.271"
           x="98.812813"
           y="35.074703">\<tspan
   style="text-align:end;text-anchor:end"
   id="tspan4">$</tspan></tspan></text>
      <path
         style="display:inline;fill:none;fill-opacity:0;fill-rule:nonzero;stroke:#000000;stroke-width:0.170639;stroke-dasharray:none;stroke-dashoffset:0;stroke-opacity:1;marker-end:url(#Triangle-58-6)"
         d="M 103.53007,33.238792 C 93.554322,38.30242 93.554322,38.30242 93.554322,38.30242"
         id="path37-3" />
      <path
         style="display:inline;fill:none;fill-opacity:0;fill-rule:nonzero;stroke:#000000;stroke-width:0.165162;stroke-dasharray:none;stroke-opacity:1;marker-end:url(#Triangle-1-2-4-6-7-13-1)"
         d="m 116.421,55.984249 -5.36969,11.566528"
         id="path29-2-5" />
      <path
         style="display:inline;fill:none;fill-opacity:0;fill-rule:nonzero;stroke:#000000;stroke-width:0.157315;stroke-dasharray:none;stroke-opacity:1;marker-end:url(#Triangle-1-2-4-6-7-1-3-9)"
         d="m 116.65382,56.032353 4.97827,11.318722"
         id="path29-7-3-0" />
    </g>
  </g>
</svg>
