<?xml version="1.0" encoding="UTF-8" standalone="no"?>
<!-- Created with Inkscape (http://www.inkscape.org/) -->

<svg
   width="77.016739mm"
   height="95.905045mm"
   viewBox="0 0 77.016739 95.905045"
   version="1.1"
   id="svg1"
   sodipodi:docname="KokosSTBP.svg"
   inkscape:version="1.4 (86a8ad7, 2024-10-11)"
   xmlns:inkscape="http://www.inkscape.org/namespaces/inkscape"
   xmlns:sodipodi="http://sodipodi.sourceforge.net/DTD/sodipodi-0.dtd"
   xmlns="http://www.w3.org/2000/svg"
   xmlns:svg="http://www.w3.org/2000/svg"
   xmlns:ns24="http://www.iki.fi/pav/software/textext/">
  <sodipodi:namedview
     id="namedview1"
     pagecolor="#ffffff"
     bordercolor="#000000"
     borderopacity="0.25"
     inkscape:showpageshadow="2"
     inkscape:pageopacity="0.0"
     inkscape:pagecheckerboard="0"
     inkscape:deskcolor="#d1d1d1"
     inkscape:document-units="mm"
     inkscape:zoom="0.5869358"
     inkscape:cx="-149.07934"
     inkscape:cy="189.96967"
     inkscape:window-width="1920"
     inkscape:window-height="1111"
     inkscape:window-x="-9"
     inkscape:window-y="-9"
     inkscape:window-maximized="1"
     inkscape:current-layer="layer1" />
  <defs
     id="defs1">
    <marker
       style="overflow:visible"
       id="Triangle"
       refX="0"
       refY="0"
       orient="auto"
       markerWidth="1"
       markerHeight="1"
       viewBox="0 0 1 1"
       preserveAspectRatio="xMidYMid">
      <path
         transform="scale(0.5)"
         style="fill:context-stroke;fill-rule:evenodd;stroke:context-stroke;stroke-width:1pt"
         d="M 5.77,0 -2.88,5 V -5 Z"
         id="path135" />
    </marker>
    <marker
       style="overflow:visible"
       id="Triangle-58"
       refX="0"
       refY="0"
       orient="auto-start-reverse"
       markerWidth="1"
       markerHeight="1"
       viewBox="0 0 1 1"
       preserveAspectRatio="xMidYMid">
      <path
         transform="scale(0.5)"
         style="fill:context-stroke;fill-rule:evenodd;stroke:context-stroke;stroke-width:1pt"
         d="M 5.77,0 -2.88,5 V -5 Z"
         id="path135-1" />
    </marker>
    <rect
       x="173.45633"
       y="550.37762"
       width="62.325565"
       height="20.115658"
       id="rect43" />
    <rect
       x="173.45633"
       y="550.37762"
       width="62.325565"
       height="20.115658"
       id="rect42" />
    <rect
       x="173.45633"
       y="550.37762"
       width="62.325565"
       height="20.115658"
       id="rect41" />
    <marker
       style="overflow:visible"
       id="Triangle-1-27-0-3-8-3-9"
       refX="0"
       refY="0"
       orient="auto-start-reverse"
       markerWidth="1"
       markerHeight="1"
       viewBox="0 0 1 1"
       preserveAspectRatio="xMidYMid">
      <path
         transform="scale(0.5)"
         style="fill:context-stroke;fill-rule:evenodd;stroke:context-stroke;stroke-width:1pt"
         d="M 5.77,0 -2.88,5 V -5 Z"
         id="path135-7-9-9-8-4-3-0" />
    </marker>
    <marker
       style="overflow:visible"
       id="Triangle-1-27-0-35-7-2"
       refX="0"
       refY="0"
       orient="auto-start-reverse"
       markerWidth="1"
       markerHeight="1"
       viewBox="0 0 1 1"
       preserveAspectRatio="xMidYMid">
      <path
         transform="scale(0.5)"
         style="fill:context-stroke;fill-rule:evenodd;stroke:context-stroke;stroke-width:1pt"
         d="M 5.77,0 -2.88,5 V -5 Z"
         id="path135-7-9-9-9-7-8" />
    </marker>
    <rect
       x="173.45633"
       y="550.37762"
       width="62.325565"
       height="20.115658"
       id="rect40" />
    <rect
       x="173.45633"
       y="550.37762"
       width="62.325565"
       height="20.115658"
       id="rect39" />
    <marker
       style="overflow:visible"
       id="Triangle-1-2-4-6-7"
       refX="0"
       refY="0"
       orient="auto-start-reverse"
       markerWidth="1"
       markerHeight="1"
       viewBox="0 0 1 1"
       preserveAspectRatio="xMidYMid">
      <path
         transform="scale(0.5)"
         style="fill:context-stroke;fill-rule:evenodd;stroke:context-stroke;stroke-width:1pt"
         d="M 5.77,0 -2.88,5 V -5 Z"
         id="path135-7-2-3-3-2" />
    </marker>
    <rect
       x="173.45633"
       y="550.37762"
       width="62.325565"
       height="20.115658"
       id="rect38" />
    <rect
       x="173.45633"
       y="550.37762"
       width="62.325565"
       height="20.115658"
       id="rect37" />
    <marker
       style="overflow:visible"
       id="Triangle-1-27-0-3-8-1"
       refX="0"
       refY="0"
       orient="auto-start-reverse"
       markerWidth="1"
       markerHeight="1"
       viewBox="0 0 1 1"
       preserveAspectRatio="xMidYMid">
      <path
         transform="scale(0.5)"
         style="fill:context-stroke;fill-rule:evenodd;stroke:context-stroke;stroke-width:1pt"
         d="M 5.77,0 -2.88,5 V -5 Z"
         id="path135-7-9-9-8-4-9" />
    </marker>
    <marker
       style="overflow:visible"
       id="Triangle-1-27-0-35-6"
       refX="0"
       refY="0"
       orient="auto-start-reverse"
       markerWidth="1"
       markerHeight="1"
       viewBox="0 0 1 1"
       preserveAspectRatio="xMidYMid">
      <path
         transform="scale(0.5)"
         style="fill:context-stroke;fill-rule:evenodd;stroke:context-stroke;stroke-width:1pt"
         d="M 5.77,0 -2.88,5 V -5 Z"
         id="path135-7-9-9-9-8" />
    </marker>
    <marker
       style="overflow:visible"
       id="Triangle-1-27-2-8"
       refX="0"
       refY="0"
       orient="auto-start-reverse"
       markerWidth="1"
       markerHeight="1"
       viewBox="0 0 1 1"
       preserveAspectRatio="xMidYMid">
      <path
         transform="scale(0.5)"
         style="fill:context-stroke;fill-rule:evenodd;stroke:context-stroke;stroke-width:1pt"
         d="M 5.77,0 -2.88,5 V -5 Z"
         id="path135-7-9-91-0" />
    </marker>
  </defs>
  <g
     id="layer1"
     transform="translate(-66.4916, -3.42425)">
    <g
       id="g41">
      <text
         xml:space="preserve"
         style="font-style:normal;font-variant:normal;font-weight:normal;font-stretch:normal;font-size:3.67773px;font-family:sans-serif;-inkscape-font-specification:'sans-serif, Normal';font-variant-ligatures:normal;font-variant-caps:normal;font-variant-numeric:normal;font-variant-east-asian:normal;text-align:start;writing-mode:lr-tb;direction:ltr;text-anchor:start;display:inline;fill:none;fill-opacity:0;fill-rule:nonzero;stroke:#000000;stroke-width:0.365001;stroke-dasharray:none;stroke-opacity:1"
         x="82.38269"
         y="66.25264"
         id="text1"><tspan
           id="tspan1"
           style="stroke-width:0.365"
           x="82.38269"
           y="66.25264">1</tspan></text>
      <ellipse
         style="display:inline;fill:#ff6467;fill-opacity:1;fill-rule:nonzero;stroke:#ff6467;stroke-width:0.365;stroke-dasharray:none;stroke-opacity:1"
         id="ellipse1"
         cx="105.93503"
         cy="10.023063"
         rx="6.5396991"
         ry="6.4163084" />
      <ellipse
         style="display:inline;fill:#05e972;fill-opacity:1;fill-rule:nonzero;stroke:#05e972;stroke-width:0.365;stroke-dasharray:none;stroke-opacity:1"
         id="ellipse2"
         cx="93.47979"
         cy="41.802296"
         rx="6.5396991"
         ry="6.4163084" />
      <ellipse
         style="display:inline;fill:none;fill-opacity:0;fill-rule:nonzero;stroke:#000000;stroke-width:0.365;stroke-dasharray:none;stroke-opacity:1"
         id="ellipse3"
         cx="83.276901"
         cy="65.684464"
         rx="6.5396991"
         ry="6.4163084" />
      <text
         xml:space="preserve"
         style="font-style:normal;font-variant:normal;font-weight:normal;font-stretch:normal;font-size:3.67773px;font-family:sans-serif;-inkscape-font-specification:'sans-serif, Normal';font-variant-ligatures:normal;font-variant-caps:normal;font-variant-numeric:normal;font-variant-east-asian:normal;text-align:start;writing-mode:lr-tb;direction:ltr;text-anchor:start;display:inline;fill:none;fill-opacity:0;fill-rule:nonzero;stroke:#000000;stroke-width:0.365001;stroke-dasharray:none;stroke-opacity:1"
         x="98.502655"
         y="66.25444"
         id="text3"><tspan
           id="tspan3"
           style="stroke-width:0.365"
           x="98.502655"
           y="66.25444">3</tspan></text>
      <ellipse
         style="display:inline;fill:none;fill-opacity:0;fill-rule:nonzero;stroke:#000000;stroke-width:0.365;stroke-dasharray:none;stroke-opacity:1"
         id="ellipse4"
         cx="99.396881"
         cy="65.686264"
         rx="6.5396991"
         ry="6.4163084" />
      <path
         style="display:inline;fill:none;fill-opacity:0;fill-rule:nonzero;stroke:#000000;stroke-width:0.280268;stroke-dasharray:none;stroke-opacity:1;marker-end:url(#Triangle-1-27-2-8)"
         d="m 103.40273,15.674133 -7.639122,19.08171"
         id="path5" />
      <path
         style="display:inline;fill:none;fill-opacity:0;fill-rule:nonzero;stroke:#000000;stroke-width:0.271174;stroke-dasharray:none;stroke-opacity:1;marker-end:url(#Triangle-1-27-0-35-6)"
         d="m 90.741521,47.319703 -5.38094,11.2273"
         id="path8" />
      <path
         style="display:inline;fill:none;fill-opacity:0;fill-rule:nonzero;stroke:#000000;stroke-width:0.271;stroke-dasharray:none;stroke-opacity:1;marker-end:url(#Triangle-1-27-0-3-8-1)"
         d="m 94.409458,48.184783 3.86488,10.44436"
         id="path9" />
      <text
         xml:space="preserve"
         transform="matrix(0.23266826,0,0,0.22520886,51.365226,-99.936881)"
         id="text28"
         style="font-style:normal;font-variant:normal;font-weight:300;font-stretch:normal;font-size:15.4113px;font-family:Calibri;-inkscape-font-specification:'Calibri, Light';font-variant-ligatures:normal;font-variant-caps:normal;font-variant-numeric:normal;font-variant-east-asian:normal;text-align:start;writing-mode:lr-tb;direction:ltr;white-space:pre;shape-inside:url(#rect37);display:inline;fill:none;fill-opacity:0;fill-rule:nonzero;stroke:#000000;stroke-width:1.37953;stroke-dasharray:none;stroke-opacity:1"><tspan
           x="173.45703"
           y="563.86184"
           id="tspan10">KO</tspan></text>
      <text
         xml:space="preserve"
         transform="matrix(0.23266826,0,0,0.22520886,56.465001,-74.071565)"
         id="text29"
         style="font-style:normal;font-variant:normal;font-weight:300;font-stretch:normal;font-size:15.4113px;font-family:Calibri;-inkscape-font-specification:'Calibri, Light';font-variant-ligatures:normal;font-variant-caps:normal;font-variant-numeric:normal;font-variant-east-asian:normal;text-align:start;writing-mode:lr-tb;direction:ltr;white-space:pre;shape-inside:url(#rect38);display:inline;fill:none;fill-opacity:0;fill-rule:nonzero;stroke:#000000;stroke-width:1.37953;stroke-dasharray:none;stroke-opacity:1"><tspan
           x="173.45703"
           y="563.86184"
           id="tspan11">Š\$</tspan></text>
      <ellipse
         style="display:inline;fill:#51a2ff;fill-opacity:1;fill-rule:nonzero;stroke:#51a2ff;stroke-width:0.365;stroke-dasharray:none;stroke-opacity:1"
         id="ellipse29"
         cx="118.81527"
         cy="41.701878"
         rx="6.5396991"
         ry="6.4163084" />
      <path
         style="display:inline;fill:none;fill-opacity:0;fill-rule:nonzero;stroke:#000000;stroke-width:0.274785;stroke-dasharray:none;stroke-opacity:1;marker-end:url(#Triangle-1-2-4-6-7)"
         d="m 109.06202,15.385563 8.98903,19.1252"
         id="path29" />
      <text
         xml:space="preserve"
         transform="matrix(0.23266826,0,0,0.22520886,69.478981,-99.936881)"
         id="text30"
         style="font-style:normal;font-variant:normal;font-weight:300;font-stretch:normal;font-size:15.4113px;font-family:Calibri;-inkscape-font-specification:'Calibri, Light';font-variant-ligatures:normal;font-variant-caps:normal;font-variant-numeric:normal;font-variant-east-asian:normal;text-align:start;writing-mode:lr-tb;direction:ltr;white-space:pre;shape-inside:url(#rect39);display:inline;fill:none;fill-opacity:0;fill-rule:nonzero;stroke:#000000;stroke-width:1.37953;stroke-dasharray:none;stroke-opacity:1"><tspan
           x="173.45703"
           y="563.86184"
           id="tspan12">O</tspan></text>
      <text
         xml:space="preserve"
         transform="matrix(0.23266826,0,0,0.22520886,34.869523,-71.954897)"
         id="text31"
         style="font-style:normal;font-variant:normal;font-weight:300;font-stretch:normal;font-size:15.4113px;font-family:Calibri;-inkscape-font-specification:'Calibri, Light';font-variant-ligatures:normal;font-variant-caps:normal;font-variant-numeric:normal;font-variant-east-asian:normal;text-align:start;writing-mode:lr-tb;direction:ltr;white-space:pre;shape-inside:url(#rect40);display:inline;fill:none;fill-opacity:0;fill-rule:nonzero;stroke:#000000;stroke-width:1.37953;stroke-dasharray:none;stroke-opacity:1"><tspan
           x="173.45703"
           y="563.86184"
           id="tspan13">KOŠ\$</tspan></text>
      <text
         xml:space="preserve"
         style="font-style:normal;font-variant:normal;font-weight:normal;font-stretch:normal;font-size:3.67773px;font-family:sans-serif;-inkscape-font-specification:'sans-serif, Normal';font-variant-ligatures:normal;font-variant-caps:normal;font-variant-numeric:normal;font-variant-east-asian:normal;text-align:start;writing-mode:lr-tb;direction:ltr;text-anchor:start;display:inline;fill:none;fill-opacity:0;fill-rule:nonzero;stroke:#000000;stroke-width:0.365001;stroke-dasharray:none;stroke-opacity:1"
         x="112.3532"
         y="66.518936"
         id="text32"><tspan
           id="tspan32"
           style="stroke-width:0.365"
           x="112.3532"
           y="66.518936">2</tspan></text>
      <ellipse
         style="display:inline;fill:none;fill-opacity:0;fill-rule:nonzero;stroke:#000000;stroke-width:0.365;stroke-dasharray:none;stroke-opacity:1"
         id="ellipse32"
         cx="113.2474"
         cy="65.95076"
         rx="6.5396991"
         ry="6.4163084" />
      <text
         xml:space="preserve"
         style="font-style:normal;font-variant:normal;font-weight:normal;font-stretch:normal;font-size:3.67773px;font-family:sans-serif;-inkscape-font-specification:'sans-serif, Normal';font-variant-ligatures:normal;font-variant-caps:normal;font-variant-numeric:normal;font-variant-east-asian:normal;text-align:start;writing-mode:lr-tb;direction:ltr;text-anchor:start;display:inline;fill:none;fill-opacity:0;fill-rule:nonzero;stroke:#000000;stroke-width:0.365001;stroke-dasharray:none;stroke-opacity:1"
         x="128.22641"
         y="66.520737"
         id="text33"><tspan
           id="tspan33"
           style="stroke-width:0.365"
           x="128.22641"
           y="66.520737">4</tspan></text>
      <ellipse
         style="display:inline;fill:none;fill-opacity:0;fill-rule:nonzero;stroke:#000000;stroke-width:0.365;stroke-dasharray:none;stroke-opacity:1"
         id="ellipse33"
         cx="129.12059"
         cy="65.95256"
         rx="6.5396991"
         ry="6.4163084" />
      <path
         style="display:inline;fill:none;fill-opacity:0;fill-rule:nonzero;stroke:#000000;stroke-width:0.271;stroke-dasharray:none;stroke-opacity:1;marker-end:url(#Triangle-1-27-0-35-7-2)"
         d="m 116.10091,47.768563 -2.92992,10.79901"
         id="path33" />
      <path
         style="display:inline;fill:none;fill-opacity:0;fill-rule:nonzero;stroke:#000000;stroke-width:0.271;stroke-dasharray:none;stroke-opacity:1;marker-end:url(#Triangle-1-27-0-3-8-3-9)"
         d="m 122.31758,47.463893 5.52528,11.68321"
         id="path34" />
      <text
         xml:space="preserve"
         transform="matrix(0.23266826,0,0,0.22520886,85.588751,-74.071565)"
         id="text34"
         style="font-style:normal;font-variant:normal;font-weight:300;font-stretch:normal;font-size:15.4113px;font-family:Calibri;-inkscape-font-specification:'Calibri, Light';font-variant-ligatures:normal;font-variant-caps:normal;font-variant-numeric:normal;font-variant-east-asian:normal;text-align:start;writing-mode:lr-tb;direction:ltr;white-space:pre;shape-inside:url(#rect41);display:inline;fill:none;fill-opacity:0;fill-rule:nonzero;stroke:#000000;stroke-width:1.37953;stroke-dasharray:none;stroke-opacity:1"><tspan
           x="173.45703"
           y="563.86184"
           id="tspan14">Š\$</tspan></text>
      <text
         xml:space="preserve"
         transform="matrix(0.23266826,0,0,0.22520886,61.651915,-71.954897)"
         id="text35"
         style="font-style:normal;font-variant:normal;font-weight:300;font-stretch:normal;font-size:15.4113px;font-family:Calibri;-inkscape-font-specification:'Calibri, Light';font-variant-ligatures:normal;font-variant-caps:normal;font-variant-numeric:normal;font-variant-east-asian:normal;text-align:start;writing-mode:lr-tb;direction:ltr;white-space:pre;shape-inside:url(#rect42);display:inline;fill:none;fill-opacity:0;fill-rule:nonzero;stroke:#000000;stroke-width:1.37953;stroke-dasharray:none;stroke-opacity:1"><tspan
           x="173.45703"
           y="563.86184"
           id="tspan15">KOŠ\$</tspan></text>
      <text
         xml:space="preserve"
         style="font-style:normal;font-variant:normal;font-weight:normal;font-stretch:normal;font-size:3.67773px;font-family:sans-serif;-inkscape-font-specification:'sans-serif, Normal';font-variant-ligatures:normal;font-variant-caps:normal;font-variant-numeric:normal;font-variant-east-asian:normal;text-align:start;writing-mode:lr-tb;direction:ltr;text-anchor:start;display:inline;fill:none;fill-opacity:0;fill-rule:nonzero;stroke:#000000;stroke-width:0.365001;stroke-dasharray:none;stroke-opacity:1"
         x="132.31117"
         y="25.259325"
         id="text36"><tspan
           id="tspan36"
           style="stroke-width:0.365"
           x="132.31117"
           y="25.259325">5</tspan></text>
      <ellipse
         style="display:inline;fill:none;fill-opacity:0;fill-rule:nonzero;stroke:#000000;stroke-width:0.365;stroke-dasharray:none;stroke-opacity:1"
         id="ellipse36"
         cx="133.73454"
         cy="24.187138"
         rx="6.5396991"
         ry="6.4163084" />
      <text
         xml:space="preserve"
         style="font-style:normal;font-variant:normal;font-weight:normal;font-stretch:normal;font-size:3.67773px;font-family:sans-serif;-inkscape-font-specification:'sans-serif, Normal';font-variant-ligatures:normal;font-variant-caps:normal;font-variant-numeric:normal;font-variant-east-asian:normal;text-align:start;writing-mode:lr-tb;direction:ltr;text-anchor:start;display:inline;fill:none;fill-opacity:0;fill-rule:nonzero;stroke:#000000;stroke-width:0.365001;stroke-dasharray:none;stroke-opacity:1"
         x="74.842079"
         y="25.284466"
         id="text36-8"><tspan
           id="tspan36-8"
           style="stroke-width:0.365"
           x="74.842079"
           y="25.284466">6</tspan></text>
      <ellipse
         style="display:inline;fill:none;fill-opacity:0;fill-rule:nonzero;stroke:#000000;stroke-width:0.365;stroke-dasharray:none;stroke-opacity:1"
         id="ellipse36-2"
         cx="76.265457"
         cy="24.187138"
         rx="6.5396991"
         ry="6.4163084" />
      <text
         xml:space="preserve"
         transform="matrix(0.23266826,0,0,0.22520886,79.632162,-112.68478)"
         id="text37"
         style="font-style:normal;font-variant:normal;font-weight:300;font-stretch:normal;font-size:15.4113px;font-family:Calibri;-inkscape-font-specification:'Calibri, Light';font-variant-ligatures:normal;font-variant-caps:normal;font-variant-numeric:normal;font-variant-east-asian:normal;text-align:start;writing-mode:lr-tb;direction:ltr;white-space:pre;shape-inside:url(#rect43);display:inline;fill:none;fill-opacity:0;fill-rule:nonzero;stroke:#000000;stroke-width:1.37953;stroke-dasharray:none;stroke-opacity:1"><tspan
           x="173.45703"
           y="563.86184"
           id="tspan16">Š\$</tspan></text>
      <path
         style="display:inline;fill:none;fill-opacity:0;fill-rule:nonzero;stroke:#000000;stroke-width:0.276976;stroke-dasharray:none;stroke-dashoffset:0;stroke-opacity:1;marker-end:url(#Triangle-58)"
         d="m 112.2173,11.232596 c 15.34282,8.674121 15.34282,8.674121 15.34282,8.674121"
         id="path37" />
      <path
         style="display:inline;fill:none;fill-opacity:0;stroke:#000000;stroke-width:0.260491;marker-end:url(#Triangle)"
         d="M 99.475465,11.399151 82.227224,19.56091"
         id="path43" />
      <text
         xml:space="preserve"
         style="font-style:normal;font-variant:normal;font-weight:300;font-stretch:normal;font-size:3.52778px;font-family:Calibri;-inkscape-font-specification:'Calibri, Light';font-variant-ligatures:normal;font-variant-caps:normal;font-variant-numeric:normal;font-variant-east-asian:normal;text-align:start;writing-mode:lr-tb;direction:ltr;text-anchor:start;display:inline;fill:none;fill-opacity:0;stroke:#000000;stroke-width:0.270999"
         x="86.534485"
         y="14.416465"
         id="text38"><tspan
           id="tspan31"
           style="font-style:normal;font-variant:normal;font-weight:300;font-stretch:normal;font-size:3.52778px;font-family:Calibri;-inkscape-font-specification:'Calibri, Light';font-variant-ligatures:normal;font-variant-caps:normal;font-variant-numeric:normal;font-variant-east-asian:normal;stroke-width:0.271"
           x="86.534485"
           y="14.416465">\$</tspan></text>
    </g>
    <text
       xml:space="preserve"
       style="font-style:normal;font-variant:normal;font-weight:300;font-stretch:normal;font-size:8.46667px;line-height:0;font-family:Calibri;-inkscape-font-specification:'Calibri, Light';font-variant-ligatures:normal;font-variant-caps:normal;font-variant-numeric:normal;font-variant-east-asian:normal;text-align:start;writing-mode:lr-tb;direction:ltr;text-anchor:start;white-space:pre;inline-size:1066.2;display:inline;fill:#000000;fill-opacity:1;stroke:#000000;stroke-width:0.270999;stroke-opacity:1"
       x="-104.39919"
       y="81.237671"
       id="text4"
       transform="matrix(0.05823851,0,0,1.0262459,76.267095,2.50203)"><tspan
         x="-104.39919"
         y="81.237671"
         id="tspan17">{\huge$\textcolor{mred}{0}\overset{\textcolor{mgrey}{6}}{01}\textcolor{mgreen}{0}\overset{\textcolor{mgrey}{1}}{01}\overset{\textcolor{mgrey}{3}}{01}\textcolor{mgreen}{1}\textcolor{mblue}{0}\overset{\textcolor{mgrey}{2}}{01}\overset{\textcolor{mgrey}{4}}{01}\textcolor{mblue}{1}\overset{\textcolor{mgrey}{5}}</tspan><tspan
         x="-104.39919"
         y="81.23767"
         id="tspan18">{01}\textcolor{mred}{1}$}</tspan></text>
    <g
       transform="matrix(0.352778 0 0 0.352778 276.957 86.4964)"
       ns24:version="1.11.1"
       ns24:texconverter="lualatex"
       ns24:pdfconverter="inkscape"
       ns24:text="\\definecolor{mred}{RGB}{255,0,0}\n\\definecolor{mblue}{RGB}{0,0,255}\n\\definecolor{mgreen}{RGB}{0,128,0}\n\\definecolor{mgrey}{RGB}{150,150,150}\n$$\n\\textcolor{mred}{0}\\overset{\\textcolor{mgrey}{6}}{01}\\textcolor{mgreen}{0}\\overset{\\textcolor{mgrey}{1}}{01}\\overset{\\textcolor{mgrey}{3}}{01}\\textcolor{mgreen}{1}\\textcolor{mblue}{0}\\overset{\\textcolor{mgrey}{2}}{01}\\overset{\\textcolor{mgrey}{4}}{01}\\textcolor{mblue}{1}\\overset{\\textcolor{mgrey}{5}}{01}\\textcolor{mred}{1}\n$$"
       ns24:preamble="C:\Users\janis\AppData\Roaming\inkscape\extensions\textext\default_packages.tex"
       ns24:scale="1.0"
       ns24:alignment="middle center"
       ns24:inkscapeversion="1.4"
       ns24:jacobian_sqrt="0.352778"
       id="g25">
      <defs
         id="id-ef030095-ab3c-4823-975e-348d3cce9539">
        <g
           id="id-e618f541-3143-4812-b65b-e544a75602b9">
          <g
             id="id-5eb57012-bab0-4289-881b-a00f46dacf93">
            <path
               d="m 4.578125,-3.1875 c 0,-0.796875 -0.046875,-1.59375 -0.390625,-2.328125 -0.453125,-0.96875 -1.28125,-1.125 -1.6875,-1.125 -0.609375,0 -1.328125,0.265625 -1.75,1.1875 -0.3125,0.6875 -0.359375,1.46875 -0.359375,2.265625 0,0.75 0.03125,1.640625 0.453125,2.40625 0.421875,0.796875 1.15625,1 1.640625,1 0.53125,0 1.296875,-0.203125 1.734375,-1.15625 0.3125,-0.6875 0.359375,-1.46875 0.359375,-2.25 z M 2.484375,0 C 2.09375,0 1.5,-0.25 1.328125,-1.203125 1.21875,-1.796875 1.21875,-2.71875 1.21875,-3.3125 c 0,-0.640625 0,-1.296875 0.078125,-1.828125 0.1875,-1.1875 0.9375,-1.28125 1.1875,-1.28125 0.328125,0 0.984375,0.1875 1.171875,1.171875 0.109375,0.5625 0.109375,1.3125 0.109375,1.9375 0,0.75 0,1.421875 -0.109375,2.0625 C 3.5,-0.296875 2.9375,0 2.484375,0 Z m 0,0"
               id="id-8946f217-def7-4445-8e8a-34e748bd5baf" />
          </g>
          <g
             id="id-d40f3a49-3bd4-4704-9ca5-056099f62054">
            <path
               d="m 2.9375,-6.375 c 0,-0.25 0,-0.265625 -0.234375,-0.265625 C 2.078125,-6 1.203125,-6 0.890625,-6 v 0.3125 c 0.203125,0 0.78125,0 1.296875,-0.265625 v 5.171875 c 0,0.359375 -0.03125,0.46875 -0.921875,0.46875 h -0.3125 V 0 c 0.34375,-0.03125 1.203125,-0.03125 1.609375,-0.03125 0.390625,0 1.265625,0 1.609375,0.03125 v -0.3125 h -0.3125 c -0.90625,0 -0.921875,-0.109375 -0.921875,-0.46875 z m 0,0"
               id="id-a40e40f9-69df-469e-9845-697358d90683" />
          </g>
          <g
             id="id-d35ab459-4bcc-407a-8d10-f8f461a163fa">
            <path
               d="m 1.046875,-2.28125 c 0,-0.5625 0.046875,-1.078125 0.3125,-1.515625 0.234375,-0.375 0.609375,-0.625 1.0625,-0.625 0.203125,0 0.484375,0.046875 0.625,0.234375 C 2.875,-4.171875 2.71875,-4.046875 2.71875,-3.84375 c 0,0.171875 0.125,0.328125 0.328125,0.328125 0.21875,0 0.34375,-0.140625 0.34375,-0.34375 0,-0.40625 -0.296875,-0.765625 -0.984375,-0.765625 -1,0 -2.03125,0.921875 -2.03125,2.421875 0,1.796875 0.84375,2.34375 1.625,2.34375 0.84375,0 1.578125,-0.65625 1.578125,-1.5625 0,-0.890625 -0.703125,-1.546875 -1.515625,-1.546875 -0.5625,0 -0.859375,0.375 -1.015625,0.6875 z M 2,-0.078125 c -0.359375,0 -0.625,-0.203125 -0.78125,-0.515625 C 1.125,-0.796875 1.0625,-1.15625 1.0625,-1.5625 c 0,-0.6875 0.40625,-1.203125 0.96875,-1.203125 0.3125,0 0.53125,0.125 0.703125,0.375 0.171875,0.265625 0.171875,0.5625 0.171875,0.96875 0,0.390625 0,0.6875 -0.1875,0.96875 -0.15625,0.234375 -0.390625,0.375 -0.71875,0.375 z m 0,0"
               id="id-d06ab196-4fad-44af-abec-32662c8c03b5" />
          </g>
          <g
             id="id-0c592732-e326-434b-8be6-6d7bb9292526">
            <path
               d="m 2.328125,-4.4375 c 0,-0.1875 0,-0.1875 -0.203125,-0.1875 -0.453125,0.4375 -1.078125,0.4375 -1.359375,0.4375 v 0.25 c 0.15625,0 0.625,0 1,-0.1875 v 3.546875 c 0,0.234375 0,0.328125 -0.6875,0.328125 H 0.8125 V 0 c 0.125,0 0.984375,-0.03125 1.234375,-0.03125 0.21875,0 1.09375,0.03125 1.25,0.03125 V -0.25 H 3.03125 c -0.703125,0 -0.703125,-0.09375 -0.703125,-0.328125 z m 0,0"
               id="id-082a331b-2eb6-4d7a-9338-b9b395979e30" />
          </g>
          <g
             id="id-90731ef5-8f8c-4654-9cfa-800a60489fe9">
            <path
               d="m 1.90625,-2.328125 c 0.546875,0 0.9375,0.375 0.9375,1.125 0,0.859375 -0.515625,1.125 -0.90625,1.125 -0.28125,0 -0.90625,-0.078125 -1.1875,-0.5 0.328125,0 0.40625,-0.234375 0.40625,-0.390625 0,-0.21875 -0.171875,-0.375 -0.390625,-0.375 -0.1875,0 -0.390625,0.125 -0.390625,0.40625 0,0.65625 0.71875,1.078125 1.5625,1.078125 0.96875,0 1.640625,-0.65625 1.640625,-1.34375 0,-0.546875 -0.4375,-1.09375 -1.203125,-1.25 0.71875,-0.265625 0.984375,-0.78125 0.984375,-1.21875 0,-0.546875 -0.625,-0.953125 -1.40625,-0.953125 -0.765625,0 -1.359375,0.375 -1.359375,0.9375 0,0.234375 0.15625,0.359375 0.359375,0.359375 0.21875,0 0.359375,-0.15625 0.359375,-0.34375 0,-0.203125 -0.140625,-0.359375 -0.359375,-0.375 0.25,-0.296875 0.71875,-0.375 0.984375,-0.375 0.3125,0 0.75,0.15625 0.75,0.75 0,0.296875 -0.09375,0.625 -0.28125,0.828125 -0.21875,0.265625 -0.421875,0.28125 -0.765625,0.3125 -0.171875,0.015625 -0.1875,0.015625 -0.21875,0.015625 -0.015625,0 -0.078125,0.015625 -0.078125,0.09375 0,0.09375 0.0625,0.09375 0.1875,0.09375 z m 0,0"
               id="id-9c0b5194-7478-4d77-998d-9025fab0bc61" />
          </g>
          <g
             id="id-0e4e5c35-2fbc-421c-b77b-f7b9dc30e877">
            <path
               d="M 3.515625,-1.265625 H 3.28125 c -0.015625,0.15625 -0.09375,0.5625 -0.1875,0.625 C 3.046875,-0.59375 2.515625,-0.59375 2.40625,-0.59375 H 1.125 c 0.734375,-0.640625 0.984375,-0.84375 1.390625,-1.171875 0.515625,-0.40625 1,-0.84375 1,-1.5 0,-0.84375 -0.734375,-1.359375 -1.625,-1.359375 -0.859375,0 -1.453125,0.609375 -1.453125,1.25 0,0.34375 0.296875,0.390625 0.375,0.390625 0.15625,0 0.359375,-0.125 0.359375,-0.375 0,-0.125 -0.046875,-0.375 -0.40625,-0.375 C 0.984375,-4.21875 1.453125,-4.375 1.78125,-4.375 c 0.703125,0 1.0625,0.546875 1.0625,1.109375 0,0.609375 -0.4375,1.078125 -0.65625,1.328125 L 0.515625,-0.265625 C 0.4375,-0.203125 0.4375,-0.1875 0.4375,0 h 2.875 z m 0,0"
               id="id-6bb32c78-c737-43d3-ad5b-e239029d68c9" />
          </g>
          <g
             id="id-f153d3a5-4e5f-4b5b-a157-6431527bd33a">
            <path
               d="m 3.6875,-1.140625 v -0.25 H 2.90625 V -4.5 c 0,-0.140625 0,-0.203125 -0.140625,-0.203125 -0.09375,0 -0.125,0 -0.1875,0.109375 l -2.3125,3.203125 v 0.25 h 2.0625 v 0.5625 c 0,0.25 0,0.328125 -0.578125,0.328125 H 1.5625 V 0 C 1.921875,-0.015625 2.359375,-0.03125 2.609375,-0.03125 2.875,-0.03125 3.3125,-0.015625 3.671875,0 v -0.25 h -0.1875 C 2.90625,-0.25 2.90625,-0.328125 2.90625,-0.578125 v -0.5625 z M 2.375,-3.9375 v 2.546875 H 0.53125 Z m 0,0"
               id="id-fb407a93-4c3c-419b-9842-9f24274ee5fd" />
          </g>
          <g
             id="id-da556c79-ee48-4dbe-9e50-11387da51938">
            <path
               d="m 1.078125,-3.890625 c 0.359375,0.09375 0.5625,0.09375 0.671875,0.09375 0.921875,0 1.46875,-0.625 1.46875,-0.734375 0,-0.078125 -0.046875,-0.09375 -0.078125,-0.09375 -0.015625,0 -0.03125,0 -0.0625,0.015625 -0.171875,0.0625 -0.53125,0.203125 -1.046875,0.203125 -0.203125,0 -0.5625,-0.015625 -1.015625,-0.1875 C 0.9375,-4.625 0.921875,-4.625 0.921875,-4.625 c -0.09375,0 -0.09375,0.078125 -0.09375,0.1875 v 2.046875 c 0,0.125 0,0.203125 0.109375,0.203125 0.0625,0 0.078125,0 0.140625,-0.09375 0.296875,-0.375 0.734375,-0.4375 0.96875,-0.4375 0.421875,0 0.609375,0.328125 0.640625,0.390625 0.125,0.234375 0.171875,0.5 0.171875,0.90625 0,0.203125 0,0.609375 -0.21875,0.921875 -0.171875,0.25 -0.46875,0.421875 -0.8125,0.421875 -0.453125,0 -0.921875,-0.25 -1.09375,-0.71875 0.265625,0.015625 0.40625,-0.15625 0.40625,-0.34375 0,-0.296875 -0.265625,-0.34375 -0.359375,-0.34375 0,0 -0.34375,0 -0.34375,0.375 0,0.625 0.578125,1.25 1.40625,1.25 0.890625,0 1.671875,-0.65625 1.671875,-1.546875 0,-0.78125 -0.59375,-1.5 -1.453125,-1.5 -0.3125,0 -0.671875,0.0625 -0.984375,0.328125 z m 0,0"
               id="id-79b2b653-5436-4469-9d5f-b980a78bfafc" />
          </g>
        </g>
      </defs>
    </g>
  </g>
</svg>
