<?xml version="1.0" encoding="UTF-8" standalone="no"?>
<!-- Created with Inkscape (http://www.inkscape.org/) -->

<svg
   width="91.605766mm"
   height="80.156647mm"
   viewBox="0 0 91.605766 80.156647"
   version="1.1"
   id="svg1"
   xmlns="http://www.w3.org/2000/svg"
   xmlns:svg="http://www.w3.org/2000/svg">
  <defs
     id="defs1" />
  <g
     id="layer1"
     style="display:inline"
     transform="translate(-0.59060634,-0.33406406)">
    <path
       style="fill:none;stroke:#646464;stroke-width:0.270999"
       id="path1"
       d="M 70.323733,49.732666 -20.812652,49.65111 24.826169,-29.234537 Z"
       transform="translate(21.638072,29.8396)" />
    <path
       style="fill:#000000;fill-opacity:1;stroke:#05e972;stroke-width:0.27679;stroke-opacity:1"
       id="path2"
       d="m 46.453906,0.98697835 c -0.378324,0.82360985 -0.729033,1.65699505 -1.0136,2.51594845 -0.116299,0.4038458 -0.238071,0.8128409 -0.25731,1.235086 -0.02083,0.4568023 0.07239,0.9013972 0.160981,1.3464891 0.276461,1.0774352 0.386941,2.1781297 0.450182,3.2837819 0.09569,1.3145622 -0.275288,2.3451162 -0.821743,3.5190762 -0.774343,1.616404 -1.638319,3.188202 -2.511185,4.755263 -0.886823,1.511093 -1.701995,3.063188 -2.383467,4.673522 -0.41991,0.99226 -0.493055,1.242296 -0.852038,2.248165 -0.552221,1.641164 -0.820605,3.351689 -1.123998,5.047866 -0.44406,2.482611 -0.160807,0.833408 -0.583747,3.361423 -0.429273,2.526123 -0.659869,5.075329 -0.828414,7.628421 -0.18511,2.179833 -0.234521,4.366366 -0.240566,6.552623 1.18e-4,3.904143 0.07525,7.80761 0.145273,11.710989 0.0125,1.559614 0.09186,3.11968 0.03,4.67892 -0.04676,1.004494 -0.06429,2.009492 -0.116905,3.013743 -0.03091,0.555475 -0.03568,1.115972 -0.116324,1.667866 -0.08015,0.548517 -0.233088,1.081769 -0.386123,1.613843 -0.211978,0.764919 -0.557442,1.484093 -0.827682,2.228827 -0.07087,0.195299 -0.38737,1.158024 -0.448792,1.343897 -0.357263,1.07833 -0.675388,2.168785 -1.082951,3.230397 -0.176374,0.40997 -0.351286,0.819217 -0.53173,1.227421 -0.191609,0.408613 -0.321071,0.848274 -0.573284,1.227123 0,0 8.2e-4,5.33e-4 8.2e-4,5.33e-4 v 0 c 0.252196,-0.378863 0.381678,-0.818517 0.57329,-1.227139 0.180444,-0.408203 0.355357,-0.817452 0.531716,-1.227431 0.407535,-1.061627 0.725654,-2.152089 1.082919,-3.230421 0.06151,-0.186131 0.377843,-1.148335 0.448802,-1.343885 0.270246,-0.744736 0.6157,-1.463915 0.82769,-2.228834 0.153035,-0.532075 0.305984,-1.065333 0.386131,-1.613853 0.08065,-0.551897 0.08541,-1.112397 0.116327,-1.66787 0.05261,-1.00425 0.07017,-2.009251 0.116914,-3.013742 0.06185,-1.55926 -0.01756,-3.119346 -0.0301,-4.678976 -0.0701,-3.903376 -0.145262,-7.806843 -0.145265,-11.710982 0.0061,-2.18625 0.05551,-4.372769 0.240609,-6.552598 0.168521,-2.5531 0.39906,-5.102319 0.828334,-7.628449 0.423012,-2.528399 0.139622,-0.878436 0.583775,-3.361409 0.303413,-1.696168 0.571803,-3.406682 1.124017,-5.047841 0.358973,-1.00585 0.432131,-1.255922 0.852028,-2.248164 0.68146,-1.610334 1.496627,-3.162431 2.38347,-4.67351 0.87289,-1.567049 1.736887,-3.138839 2.511237,-4.755243 C 45.519673,11.71388 45.890662,10.683328 45.79497,9.3687419 45.731731,8.2630878 45.621268,7.1623908 45.344801,6.0849539 45.256214,5.639874 45.163009,5.1952862 45.183815,4.738496 45.203041,4.3162559 45.324816,3.9072647 45.441107,3.5034221 45.725663,2.6444678 46.076364,1.8110785 46.454746,0.98749497 Z" />
    <path
       style="fill:#000000;fill-opacity:1;stroke:#05e972;stroke-width:0.280358;stroke-opacity:1"
       id="path3"
       d="m 46.536526,1.0496906 c 2e-5,0.8448083 1.7e-5,1.6896167 2e-5,2.5344251 -0.01609,0.783069 0.01248,1.5656085 0.09418,2.344823 0.124499,0.7258441 0.309211,1.4421582 0.483071,2.1586647 0.311248,1.3321539 0.423747,2.6940466 0.554969,4.0501776 0.197343,1.948188 0.33298,3.903634 0.587403,5.846337 0.06196,0.473114 0.139448,0.944246 0.209171,1.416371 0.434185,2.495658 0.926111,4.981583 1.367867,7.476178 0.386316,2.176264 0.427431,4.386057 0.46944,6.587237 0.03636,1.936876 -0.0092,3.875631 0.09443,5.811159 0.06039,1.127586 0.151251,2.010088 0.253576,3.134387 0.321286,2.837062 0.923714,5.637519 1.475214,8.439954 0.424307,1.977101 0.732642,3.973124 1.03403,5.969751 0.290618,1.975673 0.457506,3.965744 0.674855,5.949791 0.260712,2.26544 0.564309,4.525559 0.93133,6.777445 0.236321,1.325703 0.413868,2.660836 0.653446,3.9859 0.130288,0.648373 0.209044,1.303651 0.333445,1.953037 0.08309,0.523488 0.180563,1.044375 0.283782,1.564581 0.100287,0.478489 0.123317,0.966481 0.184016,1.450139 0.03941,0.291064 0.05132,0.584171 0.09545,0.874522 0,0 8.39e-4,5.36e-4 8.39e-4,5.36e-4 v 0 C 56.27291,79.084755 56.26102,78.791647 56.22161,78.500587 56.1609,78.016923 56.13787,77.528932 56.037596,77.05044 55.934375,76.530233 55.836904,76.009343 55.753817,75.485855 55.62941,74.836467 55.550663,74.181187 55.420356,73.53281 55.180746,72.207741 55.0032,70.872597 54.766853,69.546887 54.399806,67.295003 54.096211,65.034886 53.835515,62.769444 53.61817,60.7854 53.451285,58.795331 53.160679,56.819661 c -0.301392,-1.996637 -0.609741,-3.992669 -1.034067,-5.969775 -0.551506,-2.80244 -1.15395,-5.602895 -1.475242,-8.439959 -0.102336,-1.124411 -0.193178,-2.00668 -0.253571,-3.134382 -0.103658,-1.935523 -0.05807,-3.874275 -0.09442,-5.811148 -0.042,-2.201174 -0.08308,-4.410971 -0.469409,-6.587235 -0.441777,-2.494599 -0.933733,-4.980527 -1.367906,-7.476194 -0.06972,-0.472122 -0.147205,-0.943251 -0.20916,-1.416362 -0.25441,-1.942697 -0.39005,-3.898136 -0.587369,-5.846319 C 47.53833,10.782162 47.425849,9.4202741 47.114624,8.0881226 46.940768,7.3716207 46.756067,6.6553098 46.631555,5.9294725 c -0.0817,-0.7792141 -0.110282,-1.5617539 -0.09421,-2.3448231 2e-6,-0.8448026 0,-1.6896049 1.9e-5,-2.5344074 z" />
    <path
       style="fill:#000000;fill-opacity:1;stroke:#05e972;stroke-width:0.278487;stroke-opacity:1"
       id="path4"
       d="m 36.450808,49.710508 c 0.217525,0.759233 0.354277,1.538905 0.490885,2.31442 0.140274,1.07393 0.265189,2.146674 0.477007,3.210735 0.286504,1.560496 0.607443,3.11393 0.991316,4.655579 0.412843,1.619243 0.802819,3.243105 1.165618,4.873023 0.290145,1.309571 0.567812,2.621012 0.901275,3.921433 0.32845,1.218082 0.617774,2.445149 0.871045,3.679141 0.163898,0.701063 0.210285,1.416407 0.279763,2.128773 0.04866,0.63632 0.183326,1.261737 0.356784,1.876905 0.103723,0.395143 0.323791,0.740298 0.511601,1.100719 0.112758,0.272866 0.223296,0.547493 0.315727,0.827248 0.06446,0.265882 0.167329,0.524419 0.295808,0.768427 0.08941,0.112071 0.03919,0.06243 0.149592,0.149881 0,0 8.38e-4,2.64e-4 8.38e-4,2.64e-4 v 0 c -0.110421,-0.08741 -0.06019,-0.0378 -0.149611,-0.149844 -0.128494,-0.243997 -0.23136,-0.502539 -0.29582,-0.768413 -0.09242,-0.279762 -0.202971,-0.55439 -0.315718,-0.827261 -0.187804,-0.360424 -0.407901,-0.705568 -0.511629,-1.100709 -0.173463,-0.615162 -0.308127,-1.240575 -0.356786,-1.876893 -0.06949,-0.712371 -0.115875,-1.427722 -0.279783,-2.128793 -0.25328,-1.233994 -0.542609,-2.461061 -0.871058,-3.679148 -0.333459,-1.300425 -0.611134,-2.611866 -0.901284,-3.921436 -0.362808,-1.629921 -0.752787,-3.253784 -1.165627,-4.873028 -0.38387,-1.541645 -0.70481,-3.095076 -0.991299,-4.655566 -0.211813,-1.064058 -0.336717,-2.1368 -0.476994,-3.210727 -0.136601,-0.775517 -0.273361,-1.555177 -0.490831,-2.314423 z" />
    <path
       style="fill:#000000;fill-opacity:1;stroke:#05e972;stroke-width:0.276304;stroke-opacity:1"
       id="path5"
       d="m 36.321573,65.692723 c -0.584745,-0.05466 -1.188625,-0.02167 -1.762428,0.112146 -0.157324,0.03668 -0.310497,0.09008 -0.465745,0.135096 -0.732319,0.256011 -1.431647,0.615891 -2.036521,1.115308 -0.126469,0.10442 -0.243316,0.220544 -0.364972,0.330814 -0.978439,0.973885 -1.905367,1.993383 -2.744806,3.095623 -0.593737,0.788915 -0.96417,1.710783 -1.392337,2.59596 -0.406752,0.828789 -1.001885,1.53298 -1.58562,2.233537 -0.418143,0.48612 -0.7912,1.016321 -1.084321,1.592042 -0.188809,0.370844 -0.297697,0.675178 -0.449885,1.062312 -0.139238,0.414876 -0.285859,0.826073 -0.450385,1.230988 0,0 8.52e-4,5.47e-4 8.52e-4,5.47e-4 v 0 c 0.164517,-0.404921 0.31113,-0.81612 0.450364,-1.231 0.152198,-0.387162 0.26106,-0.691427 0.449883,-1.062301 0.293117,-0.575715 0.666186,-1.105901 1.084322,-1.592018 0.583737,-0.700567 1.17887,-1.404768 1.585627,-2.233561 0.428167,-0.885173 0.798594,-1.807034 1.392313,-2.595951 0.839426,-1.102246 1.766348,-2.121744 2.744811,-3.0956 0.121657,-0.110269 0.2385,-0.226387 0.364967,-0.330804 0.604872,-0.499404 1.30419,-0.859283 2.036501,-1.11528 0.155247,-0.04503 0.308422,-0.09841 0.465741,-0.135086 0.573808,-0.133788 1.177695,-0.166796 1.762445,-0.1121 z" />
    <path
       style="fill:#000000;fill-opacity:1;stroke:#05e972;stroke-width:0.2814;stroke-opacity:1"
       id="path6"
       d="m 54.564702,67.359334 c 1.222994,0.514855 2.274221,1.348178 3.287096,2.175776 1.07542,0.903495 2.092856,1.873027 2.989976,2.946291 0.60854,0.701306 1.070399,1.502976 1.484624,2.323565 0.404163,0.792663 0.713256,1.626357 1.097866,2.427784 0.257186,0.527525 0.498663,1.061051 0.770752,1.581398 0.112366,0.189567 0.174925,0.372666 0.204286,0.586975 0,0 8.35e-4,5.43e-4 8.35e-4,5.43e-4 v 0 c -0.02935,-0.214329 -0.0919,-0.39743 -0.204277,-0.587007 -0.272092,-0.520351 -0.513575,-1.053873 -0.770761,-1.581402 -0.384627,-0.801423 -0.693718,-1.635123 -1.097883,-2.427792 -0.414217,-0.820597 -0.876068,-1.622278 -1.484616,-2.323587 -0.897125,-1.073274 -1.914577,-2.042812 -2.990004,-2.946321 -1.013378,-0.82802 -2.065189,-1.661647 -3.288804,-2.176742 z" />
    <circle
       style="fill:#05e972;fill-opacity:0.5;stroke:#05e972;stroke-width:0.270999;stroke-opacity:1"
       id="path8"
       cx="36.735786"
       cy="65.919449"
       r="0.80203843" />
    <circle
       style="fill:#05e972;fill-opacity:0.5;stroke:#05e972;stroke-width:0.270999;stroke-opacity:1"
       id="path8-4"
       cx="36.717983"
       cy="49.982754"
       r="0.80203843" />
    <circle
       style="fill:#05e972;fill-opacity:0.5;stroke:#05e972;stroke-width:0.270999;stroke-opacity:1"
       id="path8-7"
       cx="54.665756"
       cy="67.241142"
       r="0.80203843" />
    <circle
       style="fill:#05e972;fill-opacity:0.5;stroke:#05e972;stroke-width:0.270999;stroke-opacity:1"
       id="path8-2"
       cx="23.948288"
       cy="79.553169"
       r="0.80203843" />
    <circle
       style="fill:#05e972;fill-opacity:0.5;stroke:#05e972;stroke-width:0.270999;stroke-opacity:1"
       id="path8-42"
       cx="32.657658"
       cy="79.323853"
       r="0.80203843" />
    <circle
       style="fill:#05e972;fill-opacity:0.5;stroke:#05e972;stroke-width:0.270999;stroke-opacity:1"
       id="path8-1"
       cx="43.126003"
       cy="79.400291"
       r="0.80203843" />
    <circle
       style="fill:#05e972;fill-opacity:0.5;stroke:#05e972;stroke-width:0.270999;stroke-opacity:1"
       id="path8-76"
       cx="56.393223"
       cy="79.292252"
       r="0.80203843" />
    <circle
       style="fill:#05e972;fill-opacity:0.5;stroke:#05e972;stroke-width:0.270999;stroke-opacity:1"
       id="path8-27"
       cx="64.509972"
       cy="79.40519"
       r="0.80203843" />
    <path
       style="fill:#ff6467;fill-opacity:0.5;stroke:#ff6467;stroke-width:0.270999;stroke-opacity:1"
       id="path9"
       d="m 36.557431,66.04115 c 0.0054,0.242657 -0.0052,0.484764 -0.01974,0.7269 -0.0098,0.210334 -0.02827,0.420238 -0.05392,0.629222 -0.03057,0.242454 -0.07944,0.482076 -0.115773,0.723683 -0.07733,0.398478 -0.163656,0.794623 -0.235225,1.194282 -0.07368,0.390112 -0.124437,0.783759 -0.206979,1.17218 -0.0744,0.371838 -0.19785,0.730412 -0.322294,1.087753 -0.122515,0.359333 -0.252817,0.716835 -0.354341,1.082945 -0.06485,0.233873 -0.06948,0.27764 -0.117128,0.512783 -0.06016,0.456224 -0.138872,0.908381 -0.244523,1.356236 -0.07511,0.364061 -0.195836,0.717074 -0.347376,1.055978 -0.159404,0.312434 -0.319331,0.624573 -0.475062,0.938927 -0.114702,0.253471 -0.231497,0.506124 -0.336915,0.763641 -0.0775,0.23832 -0.183473,0.464849 -0.283451,0.69406 -0.07543,0.165182 -0.153522,0.328877 -0.223338,0.496639 -0.05988,0.113744 -0.104698,0.23437 -0.164848,0.3479 -0.05434,0.09439 -0.105701,0.193972 -0.180351,0.274172 -0.03989,0.04318 -0.01987,0.02159 -0.0601,0.06474 0,0 7.94e-4,5.3e-4 7.94e-4,5.3e-4 v 0 c 0.04023,-0.04314 0.02021,-0.02156 0.06009,-0.06474 0.07465,-0.08021 0.126024,-0.179798 0.180359,-0.274196 0.06015,-0.113535 0.104973,-0.234159 0.164851,-0.347908 0.06981,-0.167765 0.147905,-0.331463 0.223327,-0.496642 0.09997,-0.229216 0.205952,-0.455745 0.283448,-0.694068 0.105415,-0.257514 0.222208,-0.510164 0.336902,-0.763641 0.155726,-0.314356 0.315653,-0.626498 0.475065,-0.938929 0.15154,-0.33891 0.272264,-0.69193 0.347371,-1.056 0.105643,-0.44786 0.18437,-0.900017 0.244512,-1.356243 0.04764,-0.235149 0.05227,-0.278903 0.117121,-0.512779 0.101518,-0.366109 0.231812,-0.723614 0.354348,-1.082939 0.124455,-0.357339 0.247928,-0.715907 0.322321,-1.087747 0.08254,-0.388427 0.133268,-0.782082 0.206957,-1.1722 0.07158,-0.399653 0.157922,-0.795795 0.235249,-1.194271 0.03634,-0.241604 0.08523,-0.481224 0.115789,-0.723677 0.02567,-0.208984 0.0441,-0.418894 0.05392,-0.62923 0.01453,-0.242133 0.02511,-0.484238 0.01976,-0.726892 z" />
    <path
       style="fill:#ff6467;fill-opacity:0.5;stroke:#ff6467;stroke-width:0.272628;stroke-dasharray:0.272628, 0.817884;stroke-dashoffset:0;stroke-opacity:1"
       id="path12"
       d="m 36.472121,65.691308 c -1.3e-5,-0.47737 -1e-5,-0.95474 -7e-6,-1.432112 l 7e-6,-0.982483 c -0.0056,-0.219209 -0.0064,-0.435571 0.04993,-0.64842 0.06632,-0.226535 0.136528,-0.450501 0.175046,-0.68397 0.03507,-0.25469 0.07858,-0.507029 0.100914,-0.763545 0.02056,-0.292946 0.02201,-0.586825 0.02352,-0.880371 7.93e-4,-0.419832 1.04e-4,-0.839666 -9.8e-5,-1.259498 -2.54e-4,-0.568971 -2.64e-4,-1.137939 -2.64e-4,-1.70691 -2.9e-5,-0.536489 -2.1e-5,-1.072975 -2.1e-5,-1.609461 0.01093,-0.436455 -0.03737,-0.87064 -0.08804,-1.303137 -0.08871,-0.588646 -0.127684,-1.182384 -0.152041,-1.776767 -0.02585,-0.581532 -0.07371,-1.16086 -0.133871,-1.739606 -0.04458,-0.375525 -0.05435,-0.753658 -0.0601,-1.131416 -0.01656,-0.486021 0.01061,-0.970866 0.03656,-1.455928 0.0573,-0.558193 0.08391,-1.118787 0.127456,-1.678022 0.04714,-0.488281 0.07334,-0.97787 0.0867,-1.468163 0.0096,-0.452418 0.0097,-0.904966 0.0098,-1.357467 0.02346,-0.384342 0.05483,-0.767882 0.07068,-1.152698 0.0339,-0.400719 0.0693,-0.801025 0.112231,-1.200828 0.05579,-0.561346 -0.159792,-0.953759 -0.101329,-1.514824 0.04971,-0.473239 0.08609,-1.067015 0.118895,-1.542004 0.03929,-0.408189 0.137439,-0.886652 0.179941,-1.294645 0.04336,-0.411919 0.103261,-0.849895 0.148124,-1.261584 0.04131,-0.443053 0.169231,-0.82662 0.173031,-1.271259 -0.01214,-0.370882 0.181302,-0.7391 0.210072,-1.108376 0.04723,-0.40074 0.119868,-0.797316 0.168095,-1.197971 0.05466,-0.341632 0.09703,-0.684862 0.14935,-1.026807 0.06686,-0.360321 0.11351,-0.721213 0.13719,-1.0871 0.0027,-0.435546 0.07262,-0.864377 0.131985,-1.294185 0.02736,-0.402473 0.136086,-0.788395 0.258945,-1.169733 0.104912,-0.373489 0.22072,-0.744104 0.321513,-1.118833 0.09717,-0.336957 0.208631,-0.668385 0.273914,-1.013514 0.108546,-0.540291 0.257146,-0.800475 0.282533,-1.349935 0.0051,-0.430619 0.272914,-0.595626 0.512496,-0.946778 0.161601,-0.234297 0.06414,-0.930414 0.288432,-1.105107 0.173268,-0.13012 0.284483,-0.322835 0.397194,-0.505076 0.158576,-0.249669 0.273454,-0.522613 0.367223,-0.802824 0.09571,-0.376861 0.21702,-0.745761 0.334035,-1.116118 0.122363,-0.394849 0.357046,-0.273855 0.483391,-0.66722 0.0729,-0.278519 0.396236,-0.432343 0.480649,-0.707497 0.04797,-0.156367 0.240752,-0.41027 0.314741,-0.552982 0.03723,-0.07182 0.205831,-0.493839 0.247051,-0.563385 0.277633,-0.358064 0.243986,-0.541085 0.494426,-0.921117 0.16481,-0.250094 0.248615,-0.27394 0.378047,-0.542904 0.186742,-0.421007 0.303637,-0.554123 0.434268,-0.995216 0.05082,-0.173719 0.262022,-0.686491 0.362345,-0.84002 0.06426,-0.09834 0.232852,-0.430792 0.300634,-0.511277 0.316529,-0.3873 0.159719,-0.952036 0.406349,-1.389875 0.207322,-0.404392 0.258249,-0.866455 0.353384,-1.306924 0.188025,-0.897329 0.317711,-1.8056997 0.456328,-2.7118117 0.101692,-0.6465238 -0.681991,-1.1861928 -0.632443,-1.839181 0.03593,-0.2839949 -0.04605,-0.6678149 -0.106071,-0.9446511 -0.08071,-0.2895331 0.09614,-0.9701272 0.06691,-1.2692429 -0.02851,-0.4023964 0.327128,-0.6354614 0.355012,-1.0376261 0.01646,-0.3398107 0.263902,-0.5151692 0.354987,-0.8409705 0.07908,-0.3143986 0.338958,-0.563997 0.404545,-0.8817446 l -7.94e-4,-4.661e-4 v 0 c -0.06559,0.3177461 -0.310036,0.5364937 -0.389118,0.850891 -0.09108,0.325808 -0.338531,0.5165962 -0.354992,0.8564149 -0.02795,0.4021682 -0.337307,0.681508 -0.308742,1.0839089 0.02922,0.2991187 -0.132203,0.9180208 -0.05149,1.2075569 0.06003,0.2768282 0.09575,0.6297928 0.05983,0.9137815 -0.04953,0.6529942 0.703329,1.2543655 0.601648,1.900895 -0.138614,0.9061059 -0.268322,1.8144673 -0.456368,2.7117858 -0.09514,0.440458 -0.146061,0.902509 -0.35337,1.306897 -0.246625,0.437833 -0.07438,1.017992 -0.390913,1.405285 -0.06778,0.08049 -0.205548,0.351253 -0.269812,0.449592 -0.100329,0.153532 -0.326964,0.635463 -0.377777,0.809188 -0.130621,0.441093 -0.278344,0.635907 -0.465081,1.056912 -0.129427,0.268953 -0.213234,0.292807 -0.378039,0.542891 -0.250443,0.380035 -0.232225,0.640173 -0.509868,0.998235 -0.04122,0.06954 -0.240678,0.368182 -0.277913,0.440001 -0.07397,0.142697 -0.220501,0.381225 -0.268464,0.537572 -0.08441,0.275156 -0.438585,0.475251 -0.511496,0.753768 -0.126357,0.393361 -0.3302,0.303214 -0.452552,0.698065 -0.117015,0.370356 -0.238332,0.739253 -0.334037,1.116113 -0.09377,0.280204 -0.208648,0.553139 -0.367224,0.802799 -0.112703,0.182231 -0.22391,0.374935 -0.39717,0.505048 -0.224296,0.174706 -0.111415,0.778287 -0.273019,1.012593 -0.239586,0.35117 -0.538235,0.608738 -0.543359,1.039376 -0.02537,0.549455 -0.158557,0.809634 -0.267109,1.349919 -0.06529,0.345126 -0.176743,0.67655 -0.273916,1.013504 -0.100785,0.374729 -0.216597,0.745341 -0.321506,1.11883 -0.122861,0.381346 -0.231602,0.767268 -0.258954,1.169746 -0.05937,0.429814 -0.129282,0.858648 -0.131983,1.294196 -0.02367,0.365885 -0.07035,0.726772 -0.137197,1.087089 -0.05232,0.341948 -0.09468,0.685177 -0.149346,1.026811 -0.04822,0.400657 -0.120866,0.797235 -0.168098,1.197976 -0.02878,0.369278 -0.237646,0.706651 -0.225496,1.077537 -0.0038,0.444634 -0.162538,0.92074 -0.203878,1.363789 -0.04486,0.41169 -0.08935,0.772547 -0.132703,1.184464 -0.0425,0.408 -0.06353,0.932736 -0.102819,1.340924 -0.0328,0.474989 -0.115454,1.007069 -0.165159,1.480312 -0.05846,0.561062 0.157123,0.984319 0.101321,1.545662 -0.04293,0.399806 -0.07833,0.800116 -0.112236,1.200835 -0.01588,0.384818 -0.04723,0.768361 -0.0707,1.152702 -1.53e-4,0.4525 -2.01e-4,0.905046 -0.0098,1.357466 -0.01336,0.490292 -0.03955,0.979883 -0.08669,1.468162 -0.04355,0.559235 -0.07015,1.119828 -0.127456,1.678024 -0.02595,0.485062 -0.05314,0.969905 -0.03657,1.455929 0.0057,0.37776 0.0155,0.755896 0.0601,1.131425 0.06017,0.578748 0.108045,1.158075 0.133888,1.739608 0.02437,0.59438 0.06333,1.18812 0.152023,1.776766 0.05067,0.432495 0.09898,0.866677 0.08805,1.303128 0,0.536488 -3e-6,1.072977 2.3e-5,1.609462 4.3e-5,0.568971 1.25e-4,1.137942 2.65e-4,1.706913 1.96e-4,0.419829 7.94e-4,0.839658 7.9e-5,1.259487 -0.0016,0.293544 -0.003,0.587419 -0.02352,0.880363 -0.02233,0.256513 -0.06585,0.508851 -0.100914,0.763538 -0.03851,0.233465 -0.108726,0.45743 -0.175042,0.683958 -0.05629,0.212857 -0.05558,0.429228 -0.04994,0.648448 0,0.327497 5e-6,0.654993 7e-6,0.98249 3e-6,0.477367 6e-6,0.954735 -1e-5,1.432102 z" />
    <path
       style="fill:#ff6467;fill-opacity:1;stroke:#ff6467;stroke-width:0.225309;stroke-opacity:1"
       id="path14"
       d="m 32.471201,79.530989 c 0.07547,0.0218 0.153479,0.0304 0.23082,0.04292 0.101462,0.01674 0.203344,0.02854 0.305867,0.03598 0.06765,0.0031 0.135473,0.002 0.203214,0.0029 0.0507,2.2e-4 0.101395,4.4e-4 0.152095,4.4e-4 0.05131,-0.0016 0.102647,-4.4e-4 0.153961,1.84e-4 0.01931,0.0073 0.03925,0.01052 0.05962,0.01295 0,0 -0.655884,-0.490732 -0.655884,-0.490732 v 0 c -0.02202,-0.0036 -0.04378,-0.007 -0.06615,-0.0035 -0.05115,6.6e-4 -0.102313,0.0017 -0.153455,4.4e-4 -0.04982,2.2e-4 -0.09963,9.15e-4 -0.149445,0.0013 -0.0653,0.0011 -0.130509,4.4e-4 -0.195697,-0.004 -0.09764,-0.0056 -0.194944,-0.01748 -0.290926,-0.03643 -0.08469,-0.01716 -0.168447,-0.03782 -0.252932,-0.05559 z" />
    <path
       style="fill:#ff6467;fill-opacity:1;stroke:#ff6467;stroke-width:0.225309;stroke-opacity:1"
       id="path14-3"
       d="m 36.36641,65.969624 c 0.07547,0.0218 0.153479,0.0304 0.23082,0.04292 0.101462,0.01674 0.203344,0.02854 0.305867,0.03598 0.06765,0.0031 0.135473,0.002 0.203214,0.0029 0.0507,2.2e-4 0.101395,4.4e-4 0.152095,4.4e-4 0.05131,-0.0016 0.102647,-4.4e-4 0.153961,1.84e-4 0.01931,0.0073 0.03925,0.01052 0.05962,0.01295 0,0 -0.655884,-0.490732 -0.655884,-0.490732 v 0 c -0.02202,-0.0036 -0.04378,-0.007 -0.06615,-0.0035 -0.05115,6.6e-4 -0.102313,0.0017 -0.153455,4.4e-4 -0.04982,2.2e-4 -0.09963,9.15e-4 -0.149445,0.0013 -0.0653,0.0011 -0.130509,4.4e-4 -0.195697,-0.004 -0.09764,-0.0056 -0.194944,-0.01748 -0.290926,-0.03643 -0.08469,-0.01716 -0.168447,-0.03782 -0.252932,-0.05559 z" />
    <path
       style="fill:#ff6467;fill-opacity:1;stroke:#ff6467;stroke-width:0.225309;stroke-opacity:1"
       id="path14-34"
       d="m 46.246076,1.2226274 c 0.07547,0.0218 0.153479,0.0304 0.23082,0.04292 0.101462,0.01674 0.203344,0.02854 0.305867,0.03598 0.06765,0.0031 0.135473,0.002 0.203214,0.0029 0.0507,2.2e-4 0.101395,4.4e-4 0.152095,4.4e-4 0.05131,-0.0016 0.102647,-4.4e-4 0.153961,1.84e-4 0.01931,0.0073 0.03925,0.01052 0.05962,0.01295 0,0 -0.655884,-0.49073199 -0.655884,-0.49073199 v 0 c -0.02202,-0.0036 -0.04378,-0.007 -0.06615,-0.0035 -0.05115,6.6e-4 -0.102313,0.0017 -0.153455,4.4e-4 -0.04982,2.2e-4 -0.09963,9.15e-4 -0.149445,0.0013 -0.0653,0.0011 -0.130509,4.4e-4 -0.195697,-0.004 -0.09764,-0.0056 -0.194944,-0.01748 -0.290926,-0.03643 -0.08469,-0.01716 -0.168447,-0.03782 -0.252932,-0.05559 z" />
    <text
       xml:space="preserve"
       style="font-style:normal;font-variant:normal;font-weight:bold;font-stretch:normal;font-size:3.52778px;line-height:1;font-family:Calibri;-inkscape-font-specification:'Calibri, Bold';font-variant-ligatures:normal;font-variant-caps:normal;font-variant-numeric:normal;font-variant-east-asian:normal;text-align:end;writing-mode:lr-tb;direction:ltr;text-anchor:end;fill:#ff6467;fill-opacity:1;stroke:#ff6467;stroke-width:0.270999;stroke-dasharray:none;stroke-dashoffset:0;stroke-opacity:1"
       x="35.336369"
       y="43.886898"
       id="text14"><tspan
         id="tspan14"
         style="font-style:normal;font-variant:normal;font-weight:bold;font-stretch:normal;font-size:3.52778px;font-family:Calibri;-inkscape-font-specification:'Calibri, Bold';font-variant-ligatures:normal;font-variant-caps:normal;font-variant-numeric:normal;font-variant-east-asian:normal;fill:#ff6467;fill-opacity:1;stroke-width:0.271;stroke-dasharray:none;stroke-dashoffset:0"
         x="35.336369"
         y="43.886898">δ<tspan
   style="font-style:normal;font-variant:normal;font-weight:bold;font-stretch:normal;font-size:2.11667px;font-family:Sans;-inkscape-font-specification:'Sans, Bold';font-variant-ligatures:normal;font-variant-caps:normal;font-variant-numeric:normal;font-variant-east-asian:normal;baseline-shift:sub;fill:#ff6467;fill-opacity:1;stroke-dasharray:none;stroke-dashoffset:0"
   id="tspan15">0</tspan></tspan></text>
    <text
       xml:space="preserve"
       style="font-style:normal;font-variant:normal;font-weight:bold;font-stretch:normal;font-size:2.11667px;line-height:1;font-family:Sans;-inkscape-font-specification:'Sans, Bold';font-variant-ligatures:normal;font-variant-caps:normal;font-variant-numeric:normal;font-variant-east-asian:normal;text-align:end;writing-mode:lr-tb;direction:ltr;text-anchor:end;fill:#ff6467;fill-opacity:1;stroke:#ff6467;stroke-width:0.270999;stroke-dasharray:none;stroke-dashoffset:0;stroke-opacity:1"
       x="36.12162"
       y="74.25"
       id="text16"><tspan
         id="tspan16"
         style="stroke-width:0.271"
         x="36.12162"
         y="74.25" /></text>
    <text
       xml:space="preserve"
       style="font-style:normal;font-variant:normal;font-weight:bold;font-stretch:normal;font-size:2.82222px;line-height:1;font-family:Calibri;-inkscape-font-specification:'Calibri, Bold';font-variant-ligatures:normal;font-variant-caps:normal;font-variant-numeric:normal;font-variant-east-asian:normal;text-align:end;writing-mode:lr-tb;direction:ltr;text-anchor:end;fill:#ff6467;fill-opacity:1;stroke:#ff6467;stroke-width:0.270999;stroke-dasharray:none;stroke-dashoffset:0;stroke-opacity:1"
       x="33.504116"
       y="73.551994"
       id="text17"><tspan
         id="tspan17"
         style="font-style:normal;font-variant:normal;font-weight:bold;font-stretch:normal;font-size:2.82222px;font-family:Calibri;-inkscape-font-specification:'Calibri, Bold';font-variant-ligatures:normal;font-variant-caps:normal;font-variant-numeric:normal;font-variant-east-asian:normal;stroke-width:0.271"
         x="33.504116"
         y="73.551994">α</tspan></text>
  </g>
</svg>
