<?xml version="1.0" encoding="UTF-8" standalone="no"?>
<!-- Created with Inkscape (http://www.inkscape.org/) -->

<svg
   width="109.16372mm"
   height="66.543159mm"
   viewBox="0 0 109.16372 66.543159"
   version="1.1"
   id="svg1"
   inkscape:version="1.4 (86a8ad7, 2024-10-11)"
   sodipodi:docname="UkkonenRazcep.svg"
   xmlns:inkscape="http://www.inkscape.org/namespaces/inkscape"
   xmlns:sodipodi="http://sodipodi.sourceforge.net/DTD/sodipodi-0.dtd"
   xmlns="http://www.w3.org/2000/svg"
   xmlns:svg="http://www.w3.org/2000/svg">
  <sodipodi:namedview
     id="namedview1"
     pagecolor="#ffffff"
     bordercolor="#000000"
     borderopacity="0.25"
     inkscape:showpageshadow="2"
     inkscape:pageopacity="0.0"
     inkscape:pagecheckerboard="0"
     inkscape:deskcolor="#d1d1d1"
     inkscape:document-units="mm"
     inkscape:zoom="2.1442755"
     inkscape:cx="249.26834"
     inkscape:cy="192.37267"
     inkscape:window-width="1920"
     inkscape:window-height="1111"
     inkscape:window-x="-9"
     inkscape:window-y="-9"
     inkscape:window-maximized="1"
     inkscape:current-layer="layer1">
    <inkscape:page
       x="0"
       y="0"
       width="109.16372"
       height="66.543159"
       id="page2"
       margin="0"
       bleed="0" />
  </sodipodi:namedview>
  <defs
     id="defs1">
    <marker
       style="overflow:visible"
       id="Triangle"
       refX="0"
       refY="0"
       orient="auto-start-reverse"
       inkscape:stockid="Triangle arrow"
       markerWidth="1"
       markerHeight="1"
       viewBox="0 0 1 1"
       inkscape:isstock="true"
       inkscape:collect="always"
       preserveAspectRatio="xMidYMid">
      <path
         transform="scale(0.5)"
         style="fill:context-stroke;fill-rule:evenodd;stroke:context-stroke;stroke-width:1pt"
         d="M 5.77,0 -2.88,5 V -5 Z"
         id="path135" />
    </marker>
  </defs>
  <g
     inkscape:label="Layer 1"
     inkscape:groupmode="layer"
     id="layer1"
     transform="translate(-8.4564426,-6.0819212)">
    <path
       style="fill:#000000;stroke:#000000;stroke-width:0.270999"
       id="path1"
       d="m 31.567636,7.5924785 c -0.151744,0.448501 -0.327766,0.8882792 -0.511183,1.3246491 -0.3193,0.7612203 -0.667155,1.5089584 -1.019869,2.2550884 -0.459009,0.959019 -0.936736,1.908855 -1.403559,2.864054 -0.620953,1.2607 -1.264867,2.509914 -1.902542,3.762221 -0.663522,1.271569 -1.306399,2.5537 -1.955,3.832908 -0.568132,1.124658 -1.124671,2.255125 -1.676477,3.387879 -0.524261,1.062758 -1.0181,2.139931 -1.525046,3.21089 -0.464683,0.957506 -0.949927,1.904746 -1.433403,2.852833 -0.459942,0.908187 -0.942297,1.804821 -1.425568,2.700742 -0.493023,0.889439 -0.991945,1.774748 -1.465502,2.674837 -0.478321,0.907995 -0.929109,1.830112 -1.383657,2.750135 -0.44182,0.841626 -0.832412,1.70851 -1.258164,2.558026 -0.386727,0.74586 -0.732315,1.511533 -1.094838,2.269011 -0.388028,0.845672 -0.761115,1.697746 -1.131159,2.551366 -0.412186,0.926897 -0.810037,1.859685 -1.202747,2.794934 -0.343854,0.792298 -0.671856,1.589585 -0.96858,2.400739 -0.3388861,0.836965 -0.6095305,1.695405 -0.8260724,2.57128 -0.2505707,1.090027 -0.4455485,2.191009 -0.6158084,3.296033 -0.1183029,0.737034 -0.059459,0.371361 -0.1765187,1.097016 0,0 0,1.113538 0,1.113538 v 0 c 0.1168974,-0.730469 0.058058,-0.3629 0.1765187,-1.102706 0.168857,-1.099254 0.3633888,-2.194365 0.6158084,-3.277915 0.2175827,-0.867696 0.4921133,-1.716646 0.8260724,-2.547078 0.299303,-0.816507 0.626668,-1.620673 0.96858,-2.42026 0.390208,-0.937353 0.786715,-1.871692 1.202747,-2.797982 0.369031,-0.847283 0.745334,-1.691203 1.131159,-2.530999 0.364246,-0.75923 0.713453,-1.525741 1.094838,-2.276803 0.424584,-0.855657 0.817766,-1.726679 1.258164,-2.574581 0.455538,-0.920644 0.906265,-1.843937 1.383657,-2.753524 0.472712,-0.898723 0.9778,-1.778743 1.465502,-2.669297 0.482888,-0.897286 0.966232,-1.794507 1.425568,-2.704165 0.485838,-0.952768 0.970462,-1.906149 1.433403,-2.87033 0.507477,-1.074116 1.001657,-2.154523 1.525046,-3.221145 0.5493,-1.137219 1.111875,-2.26795 1.676477,-3.397617 0.646002,-1.291499 1.285526,-2.586353 1.955,-3.865916 0.634376,-1.236943 1.281478,-2.467296 1.902542,-3.710985 0.467204,-0.944095 0.946759,-1.882062 1.403559,-2.831303 0.353719,-0.733589 0.699633,-1.469911 1.019869,-2.218897 0.179279,-0.4135805 0.352507,-0.8297076 0.511183,-1.2516683 z" />
    <path
       style="fill:#000000;stroke:#000000;stroke-width:0.270999"
       id="path2"
       d="m 43.947378,7.8415347 c 0.19144,0.4692333 0.370473,0.9435426 0.53371,1.4234017 0.288552,0.9091966 0.455702,1.8506706 0.607901,2.7904826 0.117269,0.701422 0.17231,1.411598 0.192371,2.122046 0.0053,0.189368 0.02524,0.379698 0.0072,0.568284 -0.01648,0.172725 -0.0079,-0.346931 -0.01183,-0.520397 -0.05383,1.316883 -0.211125,2.625906 -0.406345,3.928347 -0.238199,1.583682 -0.611883,3.141869 -0.966912,4.702116 -0.390077,1.611586 -0.72695,3.233273 -1.015992,4.865758 -0.317748,1.940623 -0.675621,3.873958 -1.038098,5.806601 -0.355663,1.91184 -0.738163,3.818427 -1.176753,5.713048 -0.399375,1.725125 -0.841369,3.440345 -1.301144,5.150286 -0.437202,1.563 -0.911301,3.115617 -1.398947,4.663538 -0.43226,1.329478 -0.87711,2.654869 -1.290267,3.990446 -0.360921,1.156284 -0.751697,2.302502 -1.084683,3.467348 -0.261583,0.927955 -0.478359,1.867477 -0.674177,2.811225 -0.116311,0.52506 -0.196509,1.054613 -0.231682,1.590839 0,0 0,1.161158 0,1.161158 v 0 c 0.03483,-0.541517 0.114924,-1.076066 0.231682,-1.606426 0.195786,-0.955259 0.412091,-1.906476 0.674177,-2.846001 0.333301,-1.174099 0.720428,-2.331061 1.084683,-3.49573 0.417174,-1.345166 0.855641,-2.683579 1.290267,-4.023186 0.489085,-1.556562 0.962279,-3.11858 1.398947,-4.690729 0.460404,-1.713746 0.903637,-3.432667 1.301144,-5.162182 0.436814,-1.903619 0.819637,-3.818723 1.176753,-5.738812 0.360503,-1.919873 0.717228,-3.840292 1.038098,-5.767282 0.291328,-1.625928 0.627158,-3.241834 1.015992,-4.847497 0.353058,-1.553956 0.725491,-3.105639 0.966912,-4.682076 0.195673,-1.288643 0.35356,-2.583865 0.406345,-3.887263 0.01024,-1.466724 0.06067,-2.944802 -0.187799,-4.397502 C 44.936018,9.9805465 44.765457,9.0289003 44.481083,8.1071367 44.313654,7.5989639 44.12802,7.0973184 43.947373,6.5938367 Z" />
    <path
       style="fill:#000000;stroke:#000000;stroke-width:0.270999"
       id="path3"
       d="m 59.268153,8.863091 c 0.255839,0.5918954 0.410519,1.22076 0.563142,1.845274 0.247417,0.989778 0.424344,1.995237 0.599075,2.999829 0.182985,1.166629 0.395554,2.328368 0.607972,3.489927 0.273775,1.434437 0.508701,2.875741 0.752071,4.315505 0.243726,1.416962 0.442274,2.841323 0.584361,4.272001 0.128918,1.435918 0.19196,2.876534 0.25295,4.316587 0.06614,1.557293 0.100978,3.115633 0.13245,4.673934 0.03323,1.563079 0.01378,2.224439 -2.65e-4,3.962849 0.0016,1.578616 -0.07406,3.155479 -0.149034,4.731835 -0.05764,1.524667 -0.178507,3.045643 -0.296971,4.566454 -0.09797,1.315929 -0.229217,2.629062 -0.341508,3.943816 -0.09576,1.106175 -0.152154,2.2151 -0.263803,3.319841 -0.103087,1.213125 -0.333732,2.409147 -0.555625,3.60459 -0.291719,1.441659 -0.627756,2.874317 -0.975511,4.303385 -0.05531,0.224504 -0.110612,0.449008 -0.16592,0.673513 0,0 0,1.072298 0,1.072298 v 0 c 0.05531,-0.227595 0.110614,-0.45519 0.16592,-0.682784 0.34309,-1.424517 0.681659,-2.850774 0.975511,-4.286372 0.222401,-1.183658 0.453657,-2.367886 0.555625,-3.569644 0.112591,-1.110599 0.16823,-2.225506 0.263803,-3.337634 0.112032,-1.326454 0.243411,-2.651263 0.341508,-3.978852 0.118044,-1.525349 0.239125,-3.050807 0.296971,-4.579961 0.07477,-1.578682 0.150945,-3.157845 0.149034,-4.738786 0.01627,-2.011664 0.03999,-4.023865 2.65e-4,-6.035357 -0.0315,-1.569522 -0.06574,-3.139115 -0.13245,-4.707618 -0.06137,-1.44263 -0.123894,-2.885885 -0.25295,-4.324395 -0.14261,-1.427381 -0.340757,-2.848583 -0.584361,-4.262294 -0.245756,-1.447054 -0.482386,-2.89573 -0.752071,-4.338619 C 60.827475,14.941638 60.614472,13.771054 60.43037,12.595714 60.25575,11.580358 60.076301,10.564758 59.831295,9.5635542 59.675169,8.9098 59.511035,8.2559098 59.268153,7.627908 Z" />
    <path
       style="fill:#000000;stroke:#000000;stroke-width:0.270999"
       id="path4"
       d="m 89.395791,8.0760524 c 0.532352,0.4945171 0.948177,1.0966624 1.356744,1.6929147 0.719285,1.0738209 1.292397,2.2329989 1.804474,3.4167939 0.52487,1.312548 0.989674,2.648641 1.422717,3.994006 0.425374,1.360954 0.721387,2.756366 0.983099,4.156438 0.253831,1.380879 0.461484,2.768861 0.636188,4.161758 0.192509,1.408794 0.351385,2.821468 0.479952,4.237436 0.161351,1.633505 0.194752,3.27416 0.205176,4.914249 0.0021,1.553493 -0.0055,3.166253 -0.01,4.780417 -0.01982,2.167713 0.0081,4.335129 0.04558,6.502448 0.01836,1.709576 0.06306,3.418403 0.115152,5.127217 0.04705,1.689304 0.104233,3.378549 0.119674,5.068507 0.01593,0.570216 -0.01294,1.723895 -0.16278,3.138834 -0.135731,1.299046 -0.394843,2.579703 -0.675669,3.853749 -0.236609,1.160983 -0.52116,2.309688 -0.84451,3.449227 -0.193241,0.744529 -0.449276,1.469729 -0.694492,2.198039 0,0 0,1.149541 0,1.149541 v 0 c 0.24542,-0.739143 0.500846,-1.475505 0.694492,-2.23057 0.32195,-1.15075 0.606396,-2.310106 0.84451,-3.481382 0.282424,-1.277038 0.540996,-2.560974 0.675669,-3.863443 0.186608,-1.748685 0.187942,-3.504438 0.16278,-5.262095 -0.01556,-1.682461 -0.07316,-3.3642 -0.119674,-5.046024 -0.05205,-1.708695 -0.09652,-3.417412 -0.115152,-5.126863 -0.02889,-1.659253 -0.06332,-2.886448 -0.04558,-4.476994 0.0064,-2.263579 0.01497,-4.527169 0.01,-6.790761 -0.0104,-1.657818 -0.04313,-3.316253 -0.205176,-4.967512 C 95.951073,27.254377 95.792241,25.840157 95.599013,24.429871 95.423991,23.035896 95.21813,21.646451 94.962825,20.264675 94.700166,18.864955 94.403306,17.470137 93.979726,16.10885 93.547577,14.764238 93.081069,13.430043 92.557009,12.118248 92.041511,10.919779 91.469878,9.7434068 90.752535,8.6505869 90.335136,8.0194144 89.900743,7.3978782 89.395791,6.8325367 Z" />
    <path
       style="fill:#000000;stroke:#000000;stroke-width:0.270999"
       id="path5"
       d="m 111.58574,7.3735292 c 0.3586,0.7206974 0.623,1.4842553 0.88403,2.2443902 0.46574,1.2880696 0.81837,2.6103496 1.13855,3.9406476 0.34987,1.528503 0.62983,3.071797 0.8722,4.620634 0.23841,1.618335 0.4015,3.246501 0.57532,4.872699 0.1829,1.749142 0.34529,3.500178 0.5021,5.251825 0.20035,1.980102 0.35467,3.964199 0.48748,5.949834 0.16708,2.185908 0.28584,4.37485 0.38796,6.564614 0.0826,2.251789 0.11383,4.50506 0.14699,6.758 0.0337,1.590995 0.0107,2.828592 -0.0345,4.468141 -0.066,1.497277 -0.13534,2.994718 -0.25502,4.488775 -0.11011,1.433901 -0.27586,2.862125 -0.48424,4.284808 -0.21207,1.534176 -0.53956,3.048476 -0.88217,4.557794 -0.2759,1.266979 -0.60681,2.520696 -0.92977,3.776171 -0.19442,0.77511 -0.44351,1.533395 -0.72126,2.282123 0,0 0,1.144612 0,1.144612 v 0 c 0.27807,-0.761347 0.52849,-1.531705 0.72126,-2.319608 0.3223,-1.272598 0.65241,-2.543466 0.92977,-3.826909 0.33877,-1.50645 0.66685,-3.016803 0.88217,-4.546796 0.20942,-1.423863 0.37337,-2.853595 0.48424,-4.288721 0.12039,-1.503013 0.1894,-3.009455 0.25502,-4.515739 0.0589,-2.159362 0.0681,-4.319897 0.0345,-6.479839 -0.0334,-2.242923 -0.0649,-4.486169 -0.14699,-6.727954 -0.10254,-2.202551 -0.22033,-4.404387 -0.38796,-6.60309 -0.13301,-1.992307 -0.28763,-3.983098 -0.48748,-5.969945 -0.15711,-1.763843 -0.31807,-3.527226 -0.5021,-5.288498 -0.17364,-1.626899 -0.33825,-3.255554 -0.57532,-4.874746 -0.24249,-1.554457 -0.52328,-3.103247 -0.8722,-4.637656 -0.32048,-1.346784 -0.67947,-2.6836143 -1.13855,-3.9908266 -0.26868,-0.8001857 -0.54851,-1.5974798 -0.88403,-2.3725172 z" />
    <ellipse
       style="fill:#323232;fill-opacity:0.5;stroke:#000000;stroke-width:0.270999"
       id="path6"
       cx="22.457079"
       cy="26.991684"
       rx="1.5423819"
       ry="1.5115342" />
    <ellipse
       style="fill:#323232;fill-opacity:0.5;stroke:#000000;stroke-width:0.270999"
       id="path6-8"
       cx="42.689526"
       cy="30.327623"
       rx="1.5423819"
       ry="1.5115342" />
    <ellipse
       style="fill:#323232;fill-opacity:0.5;stroke:#000000;stroke-width:0.270999"
       id="path6-5"
       cx="63.063663"
       cy="32.409908"
       rx="1.5423819"
       ry="1.5115342" />
    <ellipse
       style="fill:#323232;fill-opacity:0.5;stroke:#000000;stroke-width:0.270999"
       id="path6-1"
       cx="96.270424"
       cy="31.636412"
       rx="1.5423819"
       ry="1.5115342" />
    <ellipse
       style="fill:#323232;fill-opacity:0.5;stroke:#000000;stroke-width:0.270999"
       id="path6-7"
       cx="115.94228"
       cy="32.127522"
       rx="1.5423819"
       ry="1.5115342" />
    <path
       style="fill:none;fill-rule:evenodd;stroke:#ff6467;stroke-width:0.265;stroke-linecap:butt;stroke-linejoin:miter;stroke-dasharray:none;stroke-dashoffset:0;stroke-opacity:1;marker-end:url(#Triangle)"
       d="m 23.978056,27.242464 17.190493,2.83438"
       id="path7"
       inkscape:connector-type="polyline"
       inkscape:connector-curvature="0"
       inkscape:connection-start="#path6"
       inkscape:connection-end="#path6-8" />
    <path
       style="fill:none;fill-rule:evenodd;stroke:#ff6467;stroke-width:0.264583px;stroke-linecap:butt;stroke-linejoin:miter;stroke-opacity:1;marker-end:url(#Triangle)"
       d="M 42.709017,30.755727 61.52658,32.284993"
       id="path8"
       inkscape:connector-type="polyline"
       inkscape:connector-curvature="0"
       inkscape:connection-end="#path6-5" />
    <path
       style="fill:none;fill-rule:evenodd;stroke:#ff6467;stroke-width:0.264583px;stroke-linecap:butt;stroke-linejoin:miter;stroke-dasharray:0.793749, 0.793749;stroke-dashoffset:0;stroke-opacity:1;marker-end:url(#Triangle)"
       d="M 64.286476,32.698494 94.728948,31.687599"
       id="path9"
       inkscape:connector-type="polyline"
       inkscape:connector-curvature="0"
       inkscape:connection-end="#path6-1" />
    <path
       style="fill:none;fill-rule:evenodd;stroke:#ff6467;stroke-width:0.264583px;stroke-linecap:butt;stroke-linejoin:miter;stroke-opacity:1;marker-end:url(#Triangle)"
       d="m 97.812332,31.673796 16.817488,0.407745"
       id="path10"
       inkscape:connector-type="polyline"
       inkscape:connector-curvature="0"
       inkscape:connection-start="#path6-1" />
  </g>
</svg>
