<?xml version="1.0" encoding="UTF-8" standalone="no"?>
<!-- Created with Inkscape (http://www.inkscape.org/) -->

<svg
   width="210mm"
   height="297mm"
   viewBox="0 0 210 297"
   version="1.1"
   id="svg1"
   inkscape:version="1.4 (86a8ad7, 2024-10-11)"
   sodipodi:docname="UkkonenIzgradnjaABS.svg"
   inkscape:export-filename="UkkonenIzgradnjaABS.svg"
   inkscape:export-xdpi="96"
   inkscape:export-ydpi="96"
   xmlns:inkscape="http://www.inkscape.org/namespaces/inkscape"
   xmlns:sodipodi="http://sodipodi.sourceforge.net/DTD/sodipodi-0.dtd"
   xmlns="http://www.w3.org/2000/svg"
   xmlns:svg="http://www.w3.org/2000/svg">
  <sodipodi:namedview
     id="namedview1"
     pagecolor="#ffffff"
     bordercolor="#000000"
     borderopacity="0.25"
     inkscape:showpageshadow="2"
     inkscape:pageopacity="0.0"
     inkscape:pagecheckerboard="0"
     inkscape:deskcolor="#d1d1d1"
     inkscape:document-units="mm"
     inkscape:zoom="2.1442755"
     inkscape:cx="542.60751"
     inkscape:cy="280.04797"
     inkscape:window-width="1920"
     inkscape:window-height="1111"
     inkscape:window-x="-9"
     inkscape:window-y="-9"
     inkscape:window-maximized="1"
     inkscape:current-layer="layer1" />
  <defs
     id="defs1" />
  <g
     inkscape:label="[e]Način1"
     inkscape:groupmode="layer"
     id="layer1">
    <path
       sodipodi:type="star"
       style="fill:none;stroke:#646464;stroke-width:0.270999"
       id="path1"
       inkscape:flatsided="true"
       sodipodi:sides="3"
       sodipodi:cx="24.779083"
       sodipodi:cy="23.38308"
       sodipodi:r1="52.617638"
       sodipodi:r2="27.358219"
       sodipodi:arg1="0.52449365"
       sodipodi:arg2="1.5716912"
       inkscape:rounded="0"
       inkscape:randomized="0"
       d="M 70.323733,49.732666 -20.812652,49.65111 24.826169,-29.234537 Z"
       inkscape:transform-center-x="-0.078528493"
       inkscape:transform-center-y="-13.611046"
       transform="translate(21.638072,29.8396)" />
    <path
       style="fill:#000000;fill-opacity:1;stroke:#05e972;stroke-width:0.27679;stroke-opacity:1"
       id="path2"
       d="m 46.453906,0.98697835 c -0.378324,0.82360985 -0.729033,1.65699505 -1.0136,2.51594845 -0.116299,0.4038458 -0.238071,0.8128409 -0.25731,1.235086 -0.02083,0.4568023 0.07239,0.9013972 0.160981,1.3464891 0.276461,1.0774352 0.386941,2.1781297 0.450182,3.2837819 0.09569,1.3145622 -0.275288,2.3451162 -0.821743,3.5190762 -0.774343,1.616404 -1.638319,3.188202 -2.511185,4.755263 -0.886823,1.511093 -1.701995,3.063188 -2.383467,4.673522 -0.41991,0.99226 -0.493055,1.242296 -0.852038,2.248165 -0.552221,1.641164 -0.820605,3.351689 -1.123998,5.047866 -0.44406,2.482611 -0.160807,0.833408 -0.583747,3.361423 -0.429273,2.526123 -0.659869,5.075329 -0.828414,7.628421 -0.18511,2.179833 -0.234521,4.366366 -0.240566,6.552623 1.18e-4,3.904143 0.07525,7.80761 0.145273,11.710989 0.0125,1.559614 0.09186,3.11968 0.03,4.67892 -0.04676,1.004494 -0.06429,2.009492 -0.116905,3.013743 -0.03091,0.555475 -0.03568,1.115972 -0.116324,1.667866 -0.08015,0.548517 -0.233088,1.081769 -0.386123,1.613843 -0.211978,0.764919 -0.557442,1.484093 -0.827682,2.228827 -0.07087,0.195299 -0.38737,1.158024 -0.448792,1.343897 -0.357263,1.07833 -0.675388,2.168785 -1.082951,3.230397 -0.176374,0.40997 -0.351286,0.819217 -0.53173,1.227421 -0.191609,0.408613 -0.321071,0.848274 -0.573284,1.227123 0,0 8.2e-4,5.33e-4 8.2e-4,5.33e-4 v 0 c 0.252196,-0.378863 0.381678,-0.818517 0.57329,-1.227139 0.180444,-0.408203 0.355357,-0.817452 0.531716,-1.227431 0.407535,-1.061627 0.725654,-2.152089 1.082919,-3.230421 0.06151,-0.186131 0.377843,-1.148335 0.448802,-1.343885 0.270246,-0.744736 0.6157,-1.463915 0.82769,-2.228834 0.153035,-0.532075 0.305984,-1.065333 0.386131,-1.613853 0.08065,-0.551897 0.08541,-1.112397 0.116327,-1.66787 0.05261,-1.00425 0.07017,-2.009251 0.116914,-3.013742 0.06185,-1.55926 -0.01756,-3.119346 -0.0301,-4.678976 -0.0701,-3.903376 -0.145262,-7.806843 -0.145265,-11.710982 0.0061,-2.18625 0.05551,-4.372769 0.240609,-6.552598 0.168521,-2.5531 0.39906,-5.102319 0.828334,-7.628449 0.423012,-2.528399 0.139622,-0.878436 0.583775,-3.361409 0.303413,-1.696168 0.571803,-3.406682 1.124017,-5.047841 0.358973,-1.00585 0.432131,-1.255922 0.852028,-2.248164 0.68146,-1.610334 1.496627,-3.162431 2.38347,-4.67351 0.87289,-1.567049 1.736887,-3.138839 2.511237,-4.755243 C 45.519673,11.71388 45.890662,10.683328 45.79497,9.3687419 45.731731,8.2630878 45.621268,7.1623908 45.344801,6.0849539 45.256214,5.639874 45.163009,5.1952862 45.183815,4.738496 45.203041,4.3162559 45.324816,3.9072647 45.441107,3.5034221 45.725663,2.6444678 46.076364,1.8110785 46.454746,0.98749497 Z" />
    <path
       style="fill:#000000;fill-opacity:1;stroke:#05e972;stroke-width:0.280358;stroke-opacity:1"
       id="path3"
       d="m 46.536526,1.0496906 c 2e-5,0.8448083 1.7e-5,1.6896167 2e-5,2.5344251 -0.01609,0.783069 0.01248,1.5656085 0.09418,2.344823 0.124499,0.7258441 0.309211,1.4421582 0.483071,2.1586647 0.311248,1.3321539 0.423747,2.6940466 0.554969,4.0501776 0.197343,1.948188 0.33298,3.903634 0.587403,5.846337 0.06196,0.473114 0.139448,0.944246 0.209171,1.416371 0.434185,2.495658 0.926111,4.981583 1.367867,7.476178 0.386316,2.176264 0.427431,4.386057 0.46944,6.587237 0.03636,1.936876 -0.0092,3.875631 0.09443,5.811159 0.06039,1.127586 0.151251,2.010088 0.253576,3.134387 0.321286,2.837062 0.923714,5.637519 1.475214,8.439954 0.424307,1.977101 0.732642,3.973124 1.03403,5.969751 0.290618,1.975673 0.457506,3.965744 0.674855,5.949791 0.260712,2.26544 0.564309,4.525559 0.93133,6.777445 0.236321,1.325703 0.413868,2.660836 0.653446,3.9859 0.130288,0.648373 0.209044,1.303651 0.333445,1.953037 0.08309,0.523488 0.180563,1.044375 0.283782,1.564581 0.100287,0.478489 0.123317,0.966481 0.184016,1.450139 0.03941,0.291064 0.05132,0.584171 0.09545,0.874522 0,0 8.39e-4,5.36e-4 8.39e-4,5.36e-4 v 0 C 56.27291,79.084755 56.26102,78.791647 56.22161,78.500587 56.1609,78.016923 56.13787,77.528932 56.037596,77.05044 55.934375,76.530233 55.836904,76.009343 55.753817,75.485855 55.62941,74.836467 55.550663,74.181187 55.420356,73.53281 55.180746,72.207741 55.0032,70.872597 54.766853,69.546887 54.399806,67.295003 54.096211,65.034886 53.835515,62.769444 53.61817,60.7854 53.451285,58.795331 53.160679,56.819661 c -0.301392,-1.996637 -0.609741,-3.992669 -1.034067,-5.969775 -0.551506,-2.80244 -1.15395,-5.602895 -1.475242,-8.439959 -0.102336,-1.124411 -0.193178,-2.00668 -0.253571,-3.134382 -0.103658,-1.935523 -0.05807,-3.874275 -0.09442,-5.811148 -0.042,-2.201174 -0.08308,-4.410971 -0.469409,-6.587235 -0.441777,-2.494599 -0.933733,-4.980527 -1.367906,-7.476194 -0.06972,-0.472122 -0.147205,-0.943251 -0.20916,-1.416362 -0.25441,-1.942697 -0.39005,-3.898136 -0.587369,-5.846319 C 47.53833,10.782162 47.425849,9.4202741 47.114624,8.0881226 46.940768,7.3716207 46.756067,6.6553098 46.631555,5.9294725 c -0.0817,-0.7792141 -0.110282,-1.5617539 -0.09421,-2.3448231 2e-6,-0.8448026 0,-1.6896049 1.9e-5,-2.5344074 z" />
    <path
       style="fill:#000000;fill-opacity:1;stroke:#05e972;stroke-width:0.278487;stroke-opacity:1"
       id="path4"
       d="m 36.450808,49.710508 c 0.217525,0.759233 0.354277,1.538905 0.490885,2.31442 0.140274,1.07393 0.265189,2.146674 0.477007,3.210735 0.286504,1.560496 0.607443,3.11393 0.991316,4.655579 0.412843,1.619243 0.802819,3.243105 1.165618,4.873023 0.290145,1.309571 0.567812,2.621012 0.901275,3.921433 0.32845,1.218082 0.617774,2.445149 0.871045,3.679141 0.163898,0.701063 0.210285,1.416407 0.279763,2.128773 0.04866,0.63632 0.183326,1.261737 0.356784,1.876905 0.103723,0.395143 0.323791,0.740298 0.511601,1.100719 0.112758,0.272866 0.223296,0.547493 0.315727,0.827248 0.06446,0.265882 0.167329,0.524419 0.295808,0.768427 0.08941,0.112071 0.03919,0.06243 0.149592,0.149881 0,0 8.38e-4,2.64e-4 8.38e-4,2.64e-4 v 0 c -0.110421,-0.08741 -0.06019,-0.0378 -0.149611,-0.149844 -0.128494,-0.243997 -0.23136,-0.502539 -0.29582,-0.768413 -0.09242,-0.279762 -0.202971,-0.55439 -0.315718,-0.827261 -0.187804,-0.360424 -0.407901,-0.705568 -0.511629,-1.100709 -0.173463,-0.615162 -0.308127,-1.240575 -0.356786,-1.876893 -0.06949,-0.712371 -0.115875,-1.427722 -0.279783,-2.128793 -0.25328,-1.233994 -0.542609,-2.461061 -0.871058,-3.679148 -0.333459,-1.300425 -0.611134,-2.611866 -0.901284,-3.921436 -0.362808,-1.629921 -0.752787,-3.253784 -1.165627,-4.873028 -0.38387,-1.541645 -0.70481,-3.095076 -0.991299,-4.655566 -0.211813,-1.064058 -0.336717,-2.1368 -0.476994,-3.210727 -0.136601,-0.775517 -0.273361,-1.555177 -0.490831,-2.314423 z" />
    <path
       style="fill:#000000;fill-opacity:1;stroke:#05e972;stroke-width:0.276304;stroke-opacity:1"
       id="path5"
       d="m 36.321573,65.692723 c -0.584745,-0.05466 -1.188625,-0.02167 -1.762428,0.112146 -0.157324,0.03668 -0.310497,0.09008 -0.465745,0.135096 -0.732319,0.256011 -1.431647,0.615891 -2.036521,1.115308 -0.126469,0.10442 -0.243316,0.220544 -0.364972,0.330814 -0.978439,0.973885 -1.905367,1.993383 -2.744806,3.095623 -0.593737,0.788915 -0.96417,1.710783 -1.392337,2.59596 -0.406752,0.828789 -1.001885,1.53298 -1.58562,2.233537 -0.418143,0.48612 -0.7912,1.016321 -1.084321,1.592042 -0.188809,0.370844 -0.297697,0.675178 -0.449885,1.062312 -0.139238,0.414876 -0.285859,0.826073 -0.450385,1.230988 0,0 8.52e-4,5.47e-4 8.52e-4,5.47e-4 v 0 c 0.164517,-0.404921 0.31113,-0.81612 0.450364,-1.231 0.152198,-0.387162 0.26106,-0.691427 0.449883,-1.062301 0.293117,-0.575715 0.666186,-1.105901 1.084322,-1.592018 0.583737,-0.700567 1.17887,-1.404768 1.585627,-2.233561 0.428167,-0.885173 0.798594,-1.807034 1.392313,-2.595951 0.839426,-1.102246 1.766348,-2.121744 2.744811,-3.0956 0.121657,-0.110269 0.2385,-0.226387 0.364967,-0.330804 0.604872,-0.499404 1.30419,-0.859283 2.036501,-1.11528 0.155247,-0.04503 0.308422,-0.09841 0.465741,-0.135086 0.573808,-0.133788 1.177695,-0.166796 1.762445,-0.1121 z" />
    <path
       style="fill:#000000;fill-opacity:1;stroke:#05e972;stroke-width:0.2814;stroke-opacity:1"
       id="path6"
       d="m 54.564702,67.359334 c 1.222994,0.514855 2.274221,1.348178 3.287096,2.175776 1.07542,0.903495 2.092856,1.873027 2.989976,2.946291 0.60854,0.701306 1.070399,1.502976 1.484624,2.323565 0.404163,0.792663 0.713256,1.626357 1.097866,2.427784 0.257186,0.527525 0.498663,1.061051 0.770752,1.581398 0.112366,0.189567 0.174925,0.372666 0.204286,0.586975 0,0 8.35e-4,5.43e-4 8.35e-4,5.43e-4 v 0 c -0.02935,-0.214329 -0.0919,-0.39743 -0.204277,-0.587007 -0.272092,-0.520351 -0.513575,-1.053873 -0.770761,-1.581402 -0.384627,-0.801423 -0.693718,-1.635123 -1.097883,-2.427792 -0.414217,-0.820597 -0.876068,-1.622278 -1.484616,-2.323587 -0.897125,-1.073274 -1.914577,-2.042812 -2.990004,-2.946321 -1.013378,-0.82802 -2.065189,-1.661647 -3.288804,-2.176742 z" />
    <circle
       style="fill:#05e972;fill-opacity:0.5;stroke:#05e972;stroke-width:0.270999;stroke-opacity:1"
       id="path8"
       cx="36.735786"
       cy="65.919449"
       r="0.80203843" />
    <circle
       style="fill:#05e972;fill-opacity:0.5;stroke:#05e972;stroke-width:0.270999;stroke-opacity:1"
       id="path8-4"
       cx="36.717983"
       cy="49.982754"
       r="0.80203843" />
    <circle
       style="fill:#05e972;fill-opacity:0.5;stroke:#05e972;stroke-width:0.270999;stroke-opacity:1"
       id="path8-7"
       cx="54.665756"
       cy="67.241142"
       r="0.80203843" />
    <circle
       style="fill:#05e972;fill-opacity:0.5;stroke:#05e972;stroke-width:0.270999;stroke-opacity:1"
       id="path8-2"
       cx="23.948288"
       cy="79.553169"
       r="0.80203843" />
    <circle
       style="fill:#05e972;fill-opacity:0.5;stroke:#05e972;stroke-width:0.270999;stroke-opacity:1"
       id="path8-42"
       cx="32.657658"
       cy="79.323853"
       r="0.80203843" />
    <circle
       style="fill:#05e972;fill-opacity:0.5;stroke:#05e972;stroke-width:0.270999;stroke-opacity:1"
       id="path8-1"
       cx="43.126003"
       cy="79.400291"
       r="0.80203843" />
    <circle
       style="fill:#05e972;fill-opacity:0.5;stroke:#05e972;stroke-width:0.270999;stroke-opacity:1"
       id="path8-76"
       cx="56.393223"
       cy="79.292252"
       r="0.80203843" />
    <circle
       style="fill:#05e972;fill-opacity:0.5;stroke:#05e972;stroke-width:0.270999;stroke-opacity:1"
       id="path8-27"
       cx="64.509972"
       cy="79.40519"
       r="0.80203843" />
    <path
       style="fill:#ff6467;fill-opacity:0.5;stroke:#ff6467;stroke-width:0.270999;stroke-opacity:1"
       id="path9"
       d="m 36.557431,66.04115 c 0.0054,0.242657 -0.0052,0.484764 -0.01974,0.7269 -0.0098,0.210334 -0.02827,0.420238 -0.05392,0.629222 -0.03057,0.242454 -0.07944,0.482076 -0.115773,0.723683 -0.07733,0.398478 -0.163656,0.794623 -0.235225,1.194282 -0.07368,0.390112 -0.124437,0.783759 -0.206979,1.17218 -0.0744,0.371838 -0.19785,0.730412 -0.322294,1.087753 -0.122515,0.359333 -0.252817,0.716835 -0.354341,1.082945 -0.06485,0.233873 -0.06948,0.27764 -0.117128,0.512783 -0.06016,0.456224 -0.138872,0.908381 -0.244523,1.356236 -0.07511,0.364061 -0.195836,0.717074 -0.347376,1.055978 -0.159404,0.312434 -0.319331,0.624573 -0.475062,0.938927 -0.114702,0.253471 -0.231497,0.506124 -0.336915,0.763641 -0.0775,0.23832 -0.183473,0.464849 -0.283451,0.69406 -0.07543,0.165182 -0.153522,0.328877 -0.223338,0.496639 -0.05988,0.113744 -0.104698,0.23437 -0.164848,0.3479 -0.05434,0.09439 -0.105701,0.193972 -0.180351,0.274172 -0.03989,0.04318 -0.01987,0.02159 -0.0601,0.06474 0,0 7.94e-4,5.3e-4 7.94e-4,5.3e-4 v 0 c 0.04023,-0.04314 0.02021,-0.02156 0.06009,-0.06474 0.07465,-0.08021 0.126024,-0.179798 0.180359,-0.274196 0.06015,-0.113535 0.104973,-0.234159 0.164851,-0.347908 0.06981,-0.167765 0.147905,-0.331463 0.223327,-0.496642 0.09997,-0.229216 0.205952,-0.455745 0.283448,-0.694068 0.105415,-0.257514 0.222208,-0.510164 0.336902,-0.763641 0.155726,-0.314356 0.315653,-0.626498 0.475065,-0.938929 0.15154,-0.33891 0.272264,-0.69193 0.347371,-1.056 0.105643,-0.44786 0.18437,-0.900017 0.244512,-1.356243 0.04764,-0.235149 0.05227,-0.278903 0.117121,-0.512779 0.101518,-0.366109 0.231812,-0.723614 0.354348,-1.082939 0.124455,-0.357339 0.247928,-0.715907 0.322321,-1.087747 0.08254,-0.388427 0.133268,-0.782082 0.206957,-1.1722 0.07158,-0.399653 0.157922,-0.795795 0.235249,-1.194271 0.03634,-0.241604 0.08523,-0.481224 0.115789,-0.723677 0.02567,-0.208984 0.0441,-0.418894 0.05392,-0.62923 0.01453,-0.242133 0.02511,-0.484238 0.01976,-0.726892 z" />
    <path
       style="fill:#ff6467;fill-opacity:0.5;stroke:#ff6467;stroke-width:0.272628;stroke-opacity:1;stroke-dasharray:0.27262801,0.81788403;stroke-dashoffset:0"
       id="path12"
       d="m 36.472121,65.691308 c -1.3e-5,-0.47737 -1e-5,-0.95474 -7e-6,-1.432112 l 7e-6,-0.982483 c -0.0056,-0.219209 -0.0064,-0.435571 0.04993,-0.64842 0.06632,-0.226535 0.136528,-0.450501 0.175046,-0.68397 0.03507,-0.25469 0.07858,-0.507029 0.100914,-0.763545 0.02056,-0.292946 0.02201,-0.586825 0.02352,-0.880371 7.93e-4,-0.419832 1.04e-4,-0.839666 -9.8e-5,-1.259498 -2.54e-4,-0.568971 -2.64e-4,-1.137939 -2.64e-4,-1.70691 -2.9e-5,-0.536489 -2.1e-5,-1.072975 -2.1e-5,-1.609461 0.01093,-0.436455 -0.03737,-0.87064 -0.08804,-1.303137 -0.08871,-0.588646 -0.127684,-1.182384 -0.152041,-1.776767 -0.02585,-0.581532 -0.07371,-1.16086 -0.133871,-1.739606 -0.04458,-0.375525 -0.05435,-0.753658 -0.0601,-1.131416 -0.01656,-0.486021 0.01061,-0.970866 0.03656,-1.455928 0.0573,-0.558193 0.08391,-1.118787 0.127456,-1.678022 0.04714,-0.488281 0.07334,-0.97787 0.0867,-1.468163 0.0096,-0.452418 0.0097,-0.904966 0.0098,-1.357467 0.02346,-0.384342 0.05483,-0.767882 0.07068,-1.152698 0.0339,-0.400719 0.0693,-0.801025 0.112231,-1.200828 0.05579,-0.561346 -0.159792,-0.953759 -0.101329,-1.514824 0.04971,-0.473239 0.08609,-1.067015 0.118895,-1.542004 0.03929,-0.408189 0.137439,-0.886652 0.179941,-1.294645 0.04336,-0.411919 0.103261,-0.849895 0.148124,-1.261584 0.04131,-0.443053 0.169231,-0.82662 0.173031,-1.271259 -0.01214,-0.370882 0.181302,-0.7391 0.210072,-1.108376 0.04723,-0.40074 0.119868,-0.797316 0.168095,-1.197971 0.05466,-0.341632 0.09703,-0.684862 0.14935,-1.026807 0.06686,-0.360321 0.11351,-0.721213 0.13719,-1.0871 0.0027,-0.435546 0.07262,-0.864377 0.131985,-1.294185 0.02736,-0.402473 0.136086,-0.788395 0.258945,-1.169733 0.104912,-0.373489 0.22072,-0.744104 0.321513,-1.118833 0.09717,-0.336957 0.208631,-0.668385 0.273914,-1.013514 0.108546,-0.540291 0.257146,-0.800475 0.282533,-1.349935 0.0051,-0.430619 0.272914,-0.595626 0.512496,-0.946778 0.161601,-0.234297 0.06414,-0.930414 0.288432,-1.105107 0.173268,-0.13012 0.284483,-0.322835 0.397194,-0.505076 0.158576,-0.249669 0.273454,-0.522613 0.367223,-0.802824 0.09571,-0.376861 0.21702,-0.745761 0.334035,-1.116118 0.122363,-0.394849 0.357046,-0.273855 0.483391,-0.66722 0.0729,-0.278519 0.396236,-0.432343 0.480649,-0.707497 0.04797,-0.156367 0.240752,-0.41027 0.314741,-0.552982 0.03723,-0.07182 0.205831,-0.493839 0.247051,-0.563385 0.277633,-0.358064 0.243986,-0.541085 0.494426,-0.921117 0.16481,-0.250094 0.248615,-0.27394 0.378047,-0.542904 0.186742,-0.421007 0.303637,-0.554123 0.434268,-0.995216 0.05082,-0.173719 0.262022,-0.686491 0.362345,-0.84002 0.06426,-0.09834 0.232852,-0.430792 0.300634,-0.511277 0.316529,-0.3873 0.159719,-0.952036 0.406349,-1.389875 0.207322,-0.404392 0.258249,-0.866455 0.353384,-1.306924 0.188025,-0.897329 0.317711,-1.8056997 0.456328,-2.7118117 0.101692,-0.6465238 -0.681991,-1.1861928 -0.632443,-1.839181 0.03593,-0.2839949 -0.04605,-0.6678149 -0.106071,-0.9446511 -0.08071,-0.2895331 0.09614,-0.9701272 0.06691,-1.2692429 -0.02851,-0.4023964 0.327128,-0.6354614 0.355012,-1.0376261 0.01646,-0.3398107 0.263902,-0.5151692 0.354987,-0.8409705 0.07908,-0.3143986 0.338958,-0.563997 0.404545,-0.8817446 l -7.94e-4,-4.661e-4 v 0 c -0.06559,0.3177461 -0.310036,0.5364937 -0.389118,0.850891 -0.09108,0.325808 -0.338531,0.5165962 -0.354992,0.8564149 -0.02795,0.4021682 -0.337307,0.681508 -0.308742,1.0839089 0.02922,0.2991187 -0.132203,0.9180208 -0.05149,1.2075569 0.06003,0.2768282 0.09575,0.6297928 0.05983,0.9137815 -0.04953,0.6529942 0.703329,1.2543655 0.601648,1.900895 -0.138614,0.9061059 -0.268322,1.8144673 -0.456368,2.7117858 -0.09514,0.440458 -0.146061,0.902509 -0.35337,1.306897 -0.246625,0.437833 -0.07438,1.017992 -0.390913,1.405285 -0.06778,0.08049 -0.205548,0.351253 -0.269812,0.449592 -0.100329,0.153532 -0.326964,0.635463 -0.377777,0.809188 -0.130621,0.441093 -0.278344,0.635907 -0.465081,1.056912 -0.129427,0.268953 -0.213234,0.292807 -0.378039,0.542891 -0.250443,0.380035 -0.232225,0.640173 -0.509868,0.998235 -0.04122,0.06954 -0.240678,0.368182 -0.277913,0.440001 -0.07397,0.142697 -0.220501,0.381225 -0.268464,0.537572 -0.08441,0.275156 -0.438585,0.475251 -0.511496,0.753768 -0.126357,0.393361 -0.3302,0.303214 -0.452552,0.698065 -0.117015,0.370356 -0.238332,0.739253 -0.334037,1.116113 -0.09377,0.280204 -0.208648,0.553139 -0.367224,0.802799 -0.112703,0.182231 -0.22391,0.374935 -0.39717,0.505048 -0.224296,0.174706 -0.111415,0.778287 -0.273019,1.012593 -0.239586,0.35117 -0.538235,0.608738 -0.543359,1.039376 -0.02537,0.549455 -0.158557,0.809634 -0.267109,1.349919 -0.06529,0.345126 -0.176743,0.67655 -0.273916,1.013504 -0.100785,0.374729 -0.216597,0.745341 -0.321506,1.11883 -0.122861,0.381346 -0.231602,0.767268 -0.258954,1.169746 -0.05937,0.429814 -0.129282,0.858648 -0.131983,1.294196 -0.02367,0.365885 -0.07035,0.726772 -0.137197,1.087089 -0.05232,0.341948 -0.09468,0.685177 -0.149346,1.026811 -0.04822,0.400657 -0.120866,0.797235 -0.168098,1.197976 -0.02878,0.369278 -0.237646,0.706651 -0.225496,1.077537 -0.0038,0.444634 -0.162538,0.92074 -0.203878,1.363789 -0.04486,0.41169 -0.08935,0.772547 -0.132703,1.184464 -0.0425,0.408 -0.06353,0.932736 -0.102819,1.340924 -0.0328,0.474989 -0.115454,1.007069 -0.165159,1.480312 -0.05846,0.561062 0.157123,0.984319 0.101321,1.545662 -0.04293,0.399806 -0.07833,0.800116 -0.112236,1.200835 -0.01588,0.384818 -0.04723,0.768361 -0.0707,1.152702 -1.53e-4,0.4525 -2.01e-4,0.905046 -0.0098,1.357466 -0.01336,0.490292 -0.03955,0.979883 -0.08669,1.468162 -0.04355,0.559235 -0.07015,1.119828 -0.127456,1.678024 -0.02595,0.485062 -0.05314,0.969905 -0.03657,1.455929 0.0057,0.37776 0.0155,0.755896 0.0601,1.131425 0.06017,0.578748 0.108045,1.158075 0.133888,1.739608 0.02437,0.59438 0.06333,1.18812 0.152023,1.776766 0.05067,0.432495 0.09898,0.866677 0.08805,1.303128 0,0.536488 -3e-6,1.072977 2.3e-5,1.609462 4.3e-5,0.568971 1.25e-4,1.137942 2.65e-4,1.706913 1.96e-4,0.419829 7.94e-4,0.839658 7.9e-5,1.259487 -0.0016,0.293544 -0.003,0.587419 -0.02352,0.880363 -0.02233,0.256513 -0.06585,0.508851 -0.100914,0.763538 -0.03851,0.233465 -0.108726,0.45743 -0.175042,0.683958 -0.05629,0.212857 -0.05558,0.429228 -0.04994,0.648448 0,0.327497 5e-6,0.654993 7e-6,0.98249 3e-6,0.477367 6e-6,0.954735 -10e-6,1.432102 z"
       sodipodi:nodetypes="csccccccccccccccccccccccccccccccccccccccsscsccscccccccccccscccccccccsccsccsccccccccccccccccccccccccccccccccccccccscc" />
    <path
       style="fill:#ff6467;fill-opacity:1;stroke:#ff6467;stroke-width:0.225309;stroke-opacity:1"
       id="path14"
       d="m 32.471201,79.530989 c 0.07547,0.0218 0.153479,0.0304 0.23082,0.04292 0.101462,0.01674 0.203344,0.02854 0.305867,0.03598 0.06765,0.0031 0.135473,0.002 0.203214,0.0029 0.0507,2.2e-4 0.101395,4.4e-4 0.152095,4.4e-4 0.05131,-0.0016 0.102647,-4.4e-4 0.153961,1.84e-4 0.01931,0.0073 0.03925,0.01052 0.05962,0.01295 0,0 -0.655884,-0.490732 -0.655884,-0.490732 v 0 c -0.02202,-0.0036 -0.04378,-0.007 -0.06615,-0.0035 -0.05115,6.6e-4 -0.102313,0.0017 -0.153455,4.4e-4 -0.04982,2.2e-4 -0.09963,9.15e-4 -0.149445,0.0013 -0.0653,0.0011 -0.130509,4.4e-4 -0.195697,-0.004 -0.09764,-0.0056 -0.194944,-0.01748 -0.290926,-0.03643 -0.08469,-0.01716 -0.168447,-0.03782 -0.252932,-0.05559 z" />
    <path
       style="fill:#ff6467;fill-opacity:1;stroke:#ff6467;stroke-width:0.225309;stroke-opacity:1"
       id="path14-3"
       d="m 36.36641,65.969624 c 0.07547,0.0218 0.153479,0.0304 0.23082,0.04292 0.101462,0.01674 0.203344,0.02854 0.305867,0.03598 0.06765,0.0031 0.135473,0.002 0.203214,0.0029 0.0507,2.2e-4 0.101395,4.4e-4 0.152095,4.4e-4 0.05131,-0.0016 0.102647,-4.4e-4 0.153961,1.84e-4 0.01931,0.0073 0.03925,0.01052 0.05962,0.01295 0,0 -0.655884,-0.490732 -0.655884,-0.490732 v 0 c -0.02202,-0.0036 -0.04378,-0.007 -0.06615,-0.0035 -0.05115,6.6e-4 -0.102313,0.0017 -0.153455,4.4e-4 -0.04982,2.2e-4 -0.09963,9.15e-4 -0.149445,0.0013 -0.0653,0.0011 -0.130509,4.4e-4 -0.195697,-0.004 -0.09764,-0.0056 -0.194944,-0.01748 -0.290926,-0.03643 -0.08469,-0.01716 -0.168447,-0.03782 -0.252932,-0.05559 z" />
    <path
       style="fill:#ff6467;fill-opacity:1;stroke:#ff6467;stroke-width:0.225309;stroke-opacity:1"
       id="path14-34"
       d="m 46.246076,1.2226274 c 0.07547,0.0218 0.153479,0.0304 0.23082,0.04292 0.101462,0.01674 0.203344,0.02854 0.305867,0.03598 0.06765,0.0031 0.135473,0.002 0.203214,0.0029 0.0507,2.2e-4 0.101395,4.4e-4 0.152095,4.4e-4 0.05131,-0.0016 0.102647,-4.4e-4 0.153961,1.84e-4 0.01931,0.0073 0.03925,0.01052 0.05962,0.01295 0,0 -0.655884,-0.49073199 -0.655884,-0.49073199 v 0 c -0.02202,-0.0036 -0.04378,-0.007 -0.06615,-0.0035 -0.05115,6.6e-4 -0.102313,0.0017 -0.153455,4.4e-4 -0.04982,2.2e-4 -0.09963,9.15e-4 -0.149445,0.0013 -0.0653,0.0011 -0.130509,4.4e-4 -0.195697,-0.004 -0.09764,-0.0056 -0.194944,-0.01748 -0.290926,-0.03643 -0.08469,-0.01716 -0.168447,-0.03782 -0.252932,-0.05559 z" />
    <text
       xml:space="preserve"
       style="font-style:normal;font-variant:normal;font-weight:bold;font-stretch:normal;font-size:3.52778px;line-height:1;font-family:Calibri;-inkscape-font-specification:'Calibri, Bold';font-variant-ligatures:normal;font-variant-caps:normal;font-variant-numeric:normal;font-variant-east-asian:normal;text-align:end;writing-mode:lr-tb;direction:ltr;text-anchor:end;fill:#ff6467;fill-opacity:1;stroke:#ff6467;stroke-width:0.270999;stroke-dasharray:none;stroke-dashoffset:0;stroke-opacity:1"
       x="35.336369"
       y="43.886898"
       id="text14"><tspan
         sodipodi:role="line"
         id="tspan14"
         style="font-style:normal;font-variant:normal;font-weight:bold;font-stretch:normal;font-size:3.52778px;font-family:Calibri;-inkscape-font-specification:'Calibri, Bold';font-variant-ligatures:normal;font-variant-caps:normal;font-variant-numeric:normal;font-variant-east-asian:normal;fill:#ff6467;fill-opacity:1;stroke-width:0.271;stroke-dasharray:none;stroke-dashoffset:0"
         x="35.336369"
         y="43.886898">δ<tspan
   style="font-style:normal;font-variant:normal;font-weight:bold;font-stretch:normal;font-size:2.11667px;font-family:Sans;-inkscape-font-specification:'Sans, Bold';font-variant-ligatures:normal;font-variant-caps:normal;font-variant-numeric:normal;font-variant-east-asian:normal;baseline-shift:sub;fill:#ff6467;fill-opacity:1;stroke-dasharray:none;stroke-dashoffset:0"
   id="tspan15">0</tspan></tspan></text>
    <text
       xml:space="preserve"
       style="font-style:normal;font-variant:normal;font-weight:bold;font-stretch:normal;font-size:2.11667px;line-height:1;font-family:Sans;-inkscape-font-specification:'Sans, Bold';font-variant-ligatures:normal;font-variant-caps:normal;font-variant-numeric:normal;font-variant-east-asian:normal;text-align:end;writing-mode:lr-tb;direction:ltr;text-anchor:end;fill:#ff6467;fill-opacity:1;stroke:#ff6467;stroke-width:0.270999;stroke-dasharray:none;stroke-dashoffset:0;stroke-opacity:1"
       x="36.12162"
       y="74.25"
       id="text16"><tspan
         sodipodi:role="line"
         id="tspan16"
         style="stroke-width:0.271"></tspan></text>
    <text
       xml:space="preserve"
       style="font-style:normal;font-variant:normal;font-weight:bold;font-stretch:normal;font-size:2.82222px;line-height:1;font-family:Calibri;-inkscape-font-specification:'Calibri, Bold';font-variant-ligatures:normal;font-variant-caps:normal;font-variant-numeric:normal;font-variant-east-asian:normal;text-align:end;writing-mode:lr-tb;direction:ltr;text-anchor:end;fill:#ff6467;fill-opacity:1;stroke:#ff6467;stroke-width:0.270999;stroke-dasharray:none;stroke-dashoffset:0;stroke-opacity:1"
       x="33.504116"
       y="73.551994"
       id="text17"><tspan
         sodipodi:role="line"
         id="tspan17"
         style="font-style:normal;font-variant:normal;font-weight:bold;font-stretch:normal;font-size:2.82222px;font-family:Calibri;-inkscape-font-specification:'Calibri, Bold';font-variant-ligatures:normal;font-variant-caps:normal;font-variant-numeric:normal;font-variant-east-asian:normal;stroke-width:0.271"
         x="33.504116"
         y="73.551994">α</tspan></text>
  </g>
  <g
     inkscape:groupmode="layer"
     id="layer2"
     inkscape:label="[e]Način2">
    <path
       sodipodi:type="star"
       style="fill:none;stroke:#646464;stroke-width:0.270999"
       id="path1-3"
       inkscape:flatsided="true"
       sodipodi:sides="3"
       sodipodi:cx="24.779083"
       sodipodi:cy="23.38308"
       sodipodi:r1="52.617638"
       sodipodi:r2="27.358219"
       sodipodi:arg1="0.52449365"
       sodipodi:arg2="1.5716912"
       inkscape:rounded="0"
       inkscape:randomized="0"
       d="M 70.323733,49.732666 -20.812652,49.65111 24.826169,-29.234537 Z"
       inkscape:transform-center-x="-0.078528493"
       inkscape:transform-center-y="-13.611046"
       transform="translate(21.593071,113.43277)" />
    <path
       style="fill:#000000;fill-opacity:1;stroke:#05e972;stroke-width:0.27679;stroke-opacity:1"
       id="path2-8"
       d="m 46.408905,84.580152 c -0.378324,0.82361 -0.729033,1.65699 -1.0136,2.51595 -0.116299,0.40384 -0.238071,0.81284 -0.25731,1.23508 -0.02083,0.45681 0.07239,0.9014 0.160981,1.34649 0.276461,1.07744 0.386941,2.17813 0.450182,3.28378 0.09569,1.31457 -0.275288,2.34512 -0.821743,3.51908 -0.774343,1.6164 -1.638319,3.1882 -2.511185,4.755258 -0.886823,1.5111 -1.701995,3.06319 -2.383467,4.67352 -0.41991,0.99226 -0.493055,1.2423 -0.852038,2.24817 -0.552221,1.64116 -0.820605,3.35169 -1.123998,5.04787 -0.44406,2.48261 -0.160807,0.8334 -0.583747,3.36142 -0.429273,2.52612 -0.659869,5.07533 -0.828414,7.62842 -0.18511,2.17983 -0.234521,4.36637 -0.240566,6.55262 1.18e-4,3.90415 0.07525,7.80761 0.145273,11.71099 0.0125,1.55962 0.09186,3.11968 0.03,4.67892 -0.04676,1.0045 -0.06429,2.00949 -0.116905,3.01374 -0.03091,0.55548 -0.03568,1.11598 -0.116324,1.66787 -0.08015,0.54852 -0.233088,1.08177 -0.386123,1.61384 -0.211978,0.76492 -0.557442,1.4841 -0.827682,2.22883 -0.07087,0.1953 -0.38737,1.15802 -0.448792,1.3439 -0.357263,1.07833 -0.675388,2.16878 -1.082951,3.23039 -0.176374,0.40997 -0.351286,0.81922 -0.53173,1.22743 -0.191609,0.40861 -0.321071,0.84827 -0.573284,1.22712 0,0 8.2e-4,5.3e-4 8.2e-4,5.3e-4 v 0 c 0.252196,-0.37886 0.381678,-0.81851 0.57329,-1.22714 0.180444,-0.4082 0.355357,-0.81745 0.531716,-1.22743 0.407535,-1.06162 0.725654,-2.15209 1.082919,-3.23042 0.06151,-0.18613 0.377843,-1.14833 0.448802,-1.34388 0.270246,-0.74474 0.6157,-1.46392 0.82769,-2.22884 0.153035,-0.53207 0.305984,-1.06533 0.386131,-1.61385 0.08065,-0.5519 0.08541,-1.1124 0.116327,-1.66787 0.05261,-1.00425 0.07017,-2.00925 0.116914,-3.01374 0.06185,-1.55926 -0.01756,-3.11935 -0.0301,-4.67898 -0.0701,-3.90338 -0.145262,-7.80684 -0.145265,-11.71098 0.0061,-2.18625 0.05551,-4.37277 0.240609,-6.5526 0.168521,-2.5531 0.39906,-5.10232 0.828334,-7.62845 0.423012,-2.5284 0.139622,-0.87843 0.583775,-3.36141 0.303413,-1.69617 0.571803,-3.40668 1.124017,-5.04784 0.358973,-1.00585 0.432131,-1.25592 0.852028,-2.24816 0.68146,-1.61034 1.496627,-3.16243 2.38347,-4.67351 0.87289,-1.567048 1.736887,-3.138838 2.511237,-4.755248 0.546476,-1.17397 0.917465,-2.20452 0.821773,-3.51911 -0.06324,-1.10565 -0.173702,-2.20635 -0.450169,-3.28379 -0.08859,-0.44508 -0.181792,-0.88966 -0.160986,-1.34645 0.01923,-0.42224 0.141001,-0.83124 0.257292,-1.23508 0.284556,-0.85895 0.635257,-1.69234 1.013639,-2.51593 z" />
    <path
       style="fill:#000000;fill-opacity:1;stroke:#05e972;stroke-width:0.280358;stroke-opacity:1"
       id="path3-9"
       d="m 46.491525,84.642862 c 2e-5,0.84481 1.7e-5,1.68962 2e-5,2.53443 -0.01609,0.78306 0.01248,1.5656 0.09418,2.34482 0.124499,0.72584 0.309211,1.44216 0.483071,2.15866 0.311248,1.33216 0.423747,2.69405 0.554969,4.05018 0.197343,1.94819 0.33298,3.90363 0.587403,5.846338 0.06196,0.47311 0.139448,0.94424 0.209171,1.41637 0.434185,2.49566 0.926111,4.98158 1.367867,7.47618 0.386316,2.17626 0.427431,4.38605 0.46944,6.58723 0.03636,1.93688 -0.0092,3.87563 0.09443,5.81116 0.06039,1.12759 0.151251,2.01009 0.253576,3.13439 0.321286,2.83706 0.923714,5.63752 1.475214,8.43995 0.424307,1.9771 0.732642,3.97313 1.03403,5.96975 0.290618,1.97568 0.457506,3.96575 0.674855,5.9498 0.260712,2.26544 0.564309,4.52555 0.93133,6.77744 0.236321,1.3257 0.413868,2.66084 0.653446,3.9859 0.130288,0.64837 0.209044,1.30365 0.333445,1.95304 0.08309,0.52349 0.180563,1.04437 0.283782,1.56458 0.100287,0.47849 0.123317,0.96648 0.184016,1.45014 0.03941,0.29106 0.05132,0.58417 0.09545,0.87452 0,0 8.39e-4,5.4e-4 8.39e-4,5.4e-4 v 0 c -0.04415,-0.29036 -0.05604,-0.58346 -0.09545,-0.87452 -0.06071,-0.48367 -0.08374,-0.97166 -0.184014,-1.45015 -0.103221,-0.52021 -0.200692,-1.0411 -0.283779,-1.56459 -0.124407,-0.64938 -0.203154,-1.30466 -0.333461,-1.95304 -0.23961,-1.32507 -0.417156,-2.66021 -0.653503,-3.98592 -0.367047,-2.25189 -0.670642,-4.512 -0.931338,-6.77745 -0.217345,-1.98404 -0.38423,-3.97411 -0.674836,-5.94978 -0.301392,-1.99664 -0.609741,-3.99267 -1.034067,-5.96977 -0.551506,-2.80244 -1.15395,-5.6029 -1.475242,-8.43996 -0.102336,-1.12441 -0.193178,-2.00668 -0.253571,-3.13439 -0.103658,-1.93552 -0.05807,-3.87427 -0.09442,-5.81114 -0.042,-2.20118 -0.08308,-4.41097 -0.469409,-6.58724 -0.441777,-2.4946 -0.933733,-4.98053 -1.367906,-7.47619 -0.06972,-0.47212 -0.147205,-0.94325 -0.20916,-1.41636 -0.25441,-1.942698 -0.39005,-3.898138 -0.587369,-5.846318 -0.131205,-1.35613 -0.243686,-2.71802 -0.554911,-4.05017 -0.173856,-0.7165 -0.358557,-1.43281 -0.483069,-2.15865 -0.0817,-0.77921 -0.110282,-1.56175 -0.09421,-2.34482 2e-6,-0.8448 0,-1.68961 1.9e-5,-2.53441 z" />
    <path
       style="fill:#000000;fill-opacity:1;stroke:#05e972;stroke-width:0.278487;stroke-opacity:1"
       id="path4-3"
       d="m 36.405807,133.30368 c 0.217525,0.75923 0.354277,1.5389 0.490885,2.31442 0.140274,1.07393 0.265189,2.14667 0.477007,3.21073 0.286504,1.5605 0.607443,3.11393 0.991316,4.65558 0.412843,1.61924 0.802819,3.24311 1.165618,4.87302 0.290145,1.30958 0.567812,2.62102 0.901275,3.92144 0.32845,1.21808 0.617774,2.44515 0.871045,3.67914 0.163898,0.70106 0.210285,1.41641 0.279763,2.12877 0.04866,0.63632 0.183326,1.26174 0.356784,1.87691 0.103723,0.39514 0.323791,0.74029 0.511601,1.10072 0.112758,0.27286 0.223296,0.54749 0.315727,0.82724 0.06446,0.26589 0.167329,0.52442 0.295808,0.76843 0.08941,0.11207 0.03919,0.0624 0.149592,0.14988 0,0 8.38e-4,2.7e-4 8.38e-4,2.7e-4 v 0 c -0.110421,-0.0874 -0.06019,-0.0378 -0.149611,-0.14985 -0.128494,-0.244 -0.23136,-0.50254 -0.29582,-0.76841 -0.09242,-0.27976 -0.202971,-0.55439 -0.315718,-0.82726 -0.187804,-0.36043 -0.407901,-0.70557 -0.511629,-1.10071 -0.173463,-0.61516 -0.308127,-1.24058 -0.356786,-1.87689 -0.06949,-0.71238 -0.115875,-1.42773 -0.279783,-2.1288 -0.25328,-1.23399 -0.542609,-2.46106 -0.871058,-3.67915 -0.333459,-1.30042 -0.611134,-2.61186 -0.901284,-3.92143 -0.362808,-1.62992 -0.752787,-3.25379 -1.165627,-4.87303 -0.38387,-1.54164 -0.70481,-3.09508 -0.991299,-4.65557 -0.211813,-1.06405 -0.336717,-2.1368 -0.476994,-3.21072 -0.136601,-0.77552 -0.273361,-1.55518 -0.490831,-2.31443 z" />
    <path
       style="fill:#000000;fill-opacity:1;stroke:#05e972;stroke-width:0.276304;stroke-opacity:1"
       id="path5-4"
       d="m 36.276572,149.28589 c -0.584745,-0.0547 -1.188625,-0.0217 -1.762428,0.11215 -0.157324,0.0367 -0.310497,0.0901 -0.465745,0.13509 -0.732319,0.25602 -1.431647,0.6159 -2.036521,1.11531 -0.126469,0.10442 -0.243316,0.22055 -0.364972,0.33082 -0.978439,0.97388 -1.905367,1.99338 -2.744806,3.09562 -0.593737,0.78891 -0.96417,1.71078 -1.392337,2.59596 -0.406752,0.82879 -1.001885,1.53298 -1.58562,2.23354 -0.418143,0.48612 -0.7912,1.01632 -1.084321,1.59204 -0.188809,0.37084 -0.297697,0.67518 -0.449885,1.06231 -0.139238,0.41488 -0.285859,0.82607 -0.450385,1.23099 0,0 8.52e-4,5.5e-4 8.52e-4,5.5e-4 v 0 c 0.164517,-0.40493 0.31113,-0.81612 0.450364,-1.231 0.152198,-0.38717 0.26106,-0.69143 0.449883,-1.06231 0.293117,-0.57571 0.666186,-1.1059 1.084322,-1.59201 0.583737,-0.70057 1.17887,-1.40477 1.585627,-2.23356 0.428167,-0.88518 0.798594,-1.80704 1.392313,-2.59595 0.839426,-1.10225 1.766348,-2.12175 2.744811,-3.0956 0.121657,-0.11027 0.2385,-0.22639 0.364967,-0.33081 0.604872,-0.4994 1.30419,-0.85928 2.036501,-1.11528 0.155247,-0.045 0.308422,-0.0984 0.465741,-0.13509 0.573808,-0.13378 1.177695,-0.16679 1.762445,-0.1121 z" />
    <path
       style="fill:#000000;fill-opacity:1;stroke:#05e972;stroke-width:0.2814;stroke-opacity:1"
       id="path6-4"
       d="m 54.519701,150.9525 c 1.222994,0.51486 2.274221,1.34818 3.287096,2.17578 1.07542,0.90349 2.092856,1.87303 2.989976,2.94629 0.60854,0.70131 1.070399,1.50298 1.484624,2.32357 0.404163,0.79266 0.713256,1.62635 1.097866,2.42778 0.257186,0.52752 0.498663,1.06105 0.770752,1.5814 0.112366,0.18956 0.174925,0.37266 0.204286,0.58697 0,0 8.35e-4,5.5e-4 8.35e-4,5.5e-4 v 0 c -0.02935,-0.21433 -0.0919,-0.39743 -0.204277,-0.58701 -0.272092,-0.52035 -0.513575,-1.05387 -0.770761,-1.5814 -0.384627,-0.80143 -0.693718,-1.63513 -1.097883,-2.42779 -0.414217,-0.8206 -0.876068,-1.62228 -1.484616,-2.32359 -0.897125,-1.07328 -1.914577,-2.04281 -2.990004,-2.94632 -1.013378,-0.82802 -2.065189,-1.66165 -3.288804,-2.17675 z" />
    <circle
       style="fill:#05e972;fill-opacity:0.5;stroke:#05e972;stroke-width:0.270999;stroke-opacity:1"
       id="path8-6"
       cx="36.690784"
       cy="149.51263"
       r="0.80203843" />
    <circle
       style="fill:#000000;fill-opacity:0.5;stroke:#464646;stroke-width:0.270999;stroke-opacity:0.97950822"
       id="path8-6-5"
       cx="36.593681"
       cy="144.57002"
       r="0.80203843" />
    <circle
       style="fill:#000000;fill-opacity:0.5;stroke:#464646;stroke-width:0.270999;stroke-opacity:0.979508"
       id="path8-6-5-9"
       cx="18.162085"
       cy="162.72882"
       r="0.80203843" />
    <circle
       style="fill:#05e972;fill-opacity:0.5;stroke:#05e972;stroke-width:0.270999;stroke-opacity:1"
       id="path8-4-0"
       cx="36.672981"
       cy="133.57593"
       r="0.80203843" />
    <circle
       style="fill:#05e972;fill-opacity:0.5;stroke:#05e972;stroke-width:0.270999;stroke-opacity:1"
       id="path8-7-6"
       cx="54.620758"
       cy="150.83432"
       r="0.80203843" />
    <circle
       style="fill:#05e972;fill-opacity:0.5;stroke:#05e972;stroke-width:0.270999;stroke-opacity:1"
       id="path8-2-6"
       cx="23.903286"
       cy="163.14635"
       r="0.80203843" />
    <circle
       style="fill:#05e972;fill-opacity:0.5;stroke:#05e972;stroke-width:0.270999;stroke-opacity:1"
       id="path8-42-1"
       cx="32.612656"
       cy="162.91704"
       r="0.80203843" />
    <circle
       style="fill:#05e972;fill-opacity:0.5;stroke:#05e972;stroke-width:0.270999;stroke-opacity:1"
       id="path8-1-8"
       cx="43.081005"
       cy="162.99347"
       r="0.80203843" />
    <circle
       style="fill:#05e972;fill-opacity:0.5;stroke:#05e972;stroke-width:0.270999;stroke-opacity:1"
       id="path8-76-4"
       cx="56.348225"
       cy="162.88544"
       r="0.80203843" />
    <circle
       style="fill:#05e972;fill-opacity:0.5;stroke:#05e972;stroke-width:0.270999;stroke-opacity:1"
       id="path8-27-9"
       cx="64.464973"
       cy="162.99837"
       r="0.80203843" />
    <path
       style="fill:#ff6467;fill-opacity:0.5;stroke:#ff6467;stroke-width:0.232829;stroke-opacity:1"
       id="path9-6"
       d="m 36.596331,133.74274 c 0.0049,0.19586 -0.0048,0.39126 -0.01805,0.5867 -0.009,0.16976 -0.02585,0.33918 -0.04931,0.50786 -0.02796,0.19569 -0.07265,0.38909 -0.105879,0.58409 -0.07072,0.32163 0.08169,0.17866 0.01624,0.50123 -0.06738,0.31487 0.06357,0.58631 -0.01192,0.89981 -0.06804,0.30011 0.18152,0.65123 0.06771,0.93965 0.01296,1.29847 0.02262,1.59841 -0.04706,2.80302 0.118111,0.40609 0.282251,1.26321 0.0776,2.56975 -0.06211,0.54309 0.05902,0.56425 0.104729,1.02198 l -0.0077,0 c -0.198007,10e-5 0.07829,-0.53954 -0.104006,-1.12954 0.212722,-1.4163 -0.159978,-1.93276 -0.04677,-2.43865 0.01994,-1.74385 -0.05033,-2.07874 -0.0455,-2.79533 0.113818,-0.28842 -0.06631,-0.60097 0.0017,-0.90109 0.07549,-0.31351 -0.02465,-0.64665 0.04274,-0.96153 0.06546,-0.32256 -0.11778,-0.1873 -0.04706,-0.50892 0.03323,-0.19501 0.07795,-0.38841 0.105893,-0.58409 0.02348,-0.16868 0.04033,-0.3381 0.04931,-0.50787 0.01329,-0.19543 0.02296,-0.39084 0.01807,-0.58669 z"
       sodipodi:nodetypes="ccccccccccscccccccccc" />
    <path
       style="fill:#ff6467;fill-opacity:0.5;stroke:#ff6467;stroke-width:0.237375;stroke-dasharray:0.237375, 0.712125;stroke-dashoffset:0;stroke-opacity:1"
       id="path12-3"
       d="m 36.425822,133.67439 c -1.3e-5,-0.3618 -10e-6,-0.7236 -7e-6,-1.0854 l 7e-6,-0.74463 c -0.0056,-0.16614 -0.0064,-0.33012 0.04994,-0.49144 0.06634,-0.17168 -0.110217,-0.35685 -0.07169,-0.5338 0.03508,-0.19303 0.01691,-0.38428 0.03925,-0.57869 0.02057,-0.22202 -0.07052,-0.46019 -0.06901,-0.68266 3.87e-4,-0.15528 0.09215,-1.00078 0.09216,-3.31382 0.01093,-0.3308 0.271096,-0.78325 0.220416,-1.11104 -0.08873,-0.44614 -0.127718,-0.89613 -0.152082,-1.34662 -0.02586,-0.44074 0.296442,-0.69473 0.236266,-1.13336 -0.04459,-0.28461 0.0073,-0.58663 0.0016,-0.87293 -0.01656,-0.36836 0.118577,-0.90548 0.144537,-1.27312 0.05732,-0.42305 0.02223,-0.61656 0.06579,-1.04041 0.04715,-0.37007 0.104208,-0.24757 0.117568,-0.61916 0.04546,-1.55277 0.503523,-2.54077 0.507853,-2.57252 0.445203,-3.2116 0.168604,-0.94264 0.345187,-2.22702 0.658383,-4.73939 0.07093,-0.61152 0.253739,-2.38951 0.103698,-0.56243 0.28636,-1.04744 0.394649,-1.60905 0.06688,-0.2731 0.468288,-1.37949 0.491974,-1.6568 0.0027,-0.3301 0.473659,-1.07155 0.533039,-1.39731 0.869186,-2.91253 1.596211,-3.20271 1.599922,-3.26356 0.0051,-0.32637 0.473496,-1.2072 0.713142,-1.47334 0.161644,-0.17758 0.341789,-1.04449 0.566137,-1.17688 1.035009,-0.58883 0.192865,-0.14043 1.011401,-1.993814 1.903731,-3.79996 1.568036,-3.023464 1.884757,-4.105691 0.730446,-2.076135 -0.0077,-0.613836 0.39348,-2.492494 0.207377,-0.306488 -0.497449,-0.132282 -0.402289,-0.466107 0.188075,-0.680089 -0.237461,-1.368544 -0.09881,-2.055294 0.10172,-0.489999 -0.126915,-0.899016 -0.07735,-1.393919 0.03594,-0.215236 -0.04606,-0.506134 -0.106099,-0.715952 -0.08073,-0.219435 0.09617,-0.735263 0.06693,-0.961959 -0.02852,-0.30498 0.327215,-0.481617 0.355106,-0.786422 0.01646,-0.257543 0.263972,-0.390449 0.355082,-0.637373 0.0791,-0.238285 0.339048,-0.427449 0.404652,-0.668273 l -7.94e-4,-3.56e-4 v 0 c -0.06561,0.240823 -0.310118,0.406615 -0.389221,0.644891 -0.0911,0.246932 -0.338621,0.391533 -0.355087,0.649083 -0.02796,0.304805 -0.337396,0.516518 -0.308824,0.821497 0.02923,0.226704 -0.132238,0.69577 -0.0515,0.915205 0.06005,0.20981 0.09578,0.477327 0.05985,0.692563 -0.04954,0.494903 0.19453,0.919834 0.09282,1.409841 -0.138651,0.686742 0.240593,1.406038 0.0525,2.086119 -0.09517,0.333818 0.547972,0.221292 0.340608,0.52778 -0.275977,0.545637 0.666017,0.299472 -0.254654,2.419119 -0.455246,1.178669 -0.367861,0.613719 -1.097987,2.726991 -0.438476,1.034279 -0.689379,0.992521 -0.833069,1.421235 -0.816031,1.84757 0.03572,1.2416 -1.042226,1.85495 -0.224355,0.13242 -0.450768,1.20683 -0.612415,1.38441 -0.23965,0.26615 -0.569226,1.03204 -0.574352,1.35843 -0.991075,0.81374 -0.677361,0.34223 -1.584497,3.2944 -0.05939,0.32575 -0.653726,1.08264 -0.656428,1.41274 -0.02368,0.2773 -0.332575,1.33743 -0.399438,1.61051 -0.103772,0.56246 -0.326263,1.32344 -0.425496,1.88669 -0.151679,1.47449 0.311949,-2.27751 -0.315445,2.239 -0.136591,0.99358 0.06368,-0.79254 -0.329744,2.04569 0.04225,0.12243 -0.471663,1.00738 -0.507883,2.5959 -0.01336,0.37159 -0.05498,0.29537 -0.102134,0.66543 -0.04356,0.42385 -0.0085,0.64821 -0.0658,1.07127 -0.02596,0.36763 -0.238235,0.82763 -0.221665,1.19599 0.0057,0.28631 0.06177,0.65001 0.106391,0.93463 0.06019,0.43863 -0.30837,0.6772 -0.28252,1.11794 0.02438,0.45048 0.06335,0.90048 0.152064,1.34662 0.05068,0.32779 -0.22489,0.76482 -0.23583,1.09561 -0.0015,1.15602 -0.09044,2.17322 -0.09218,3.32924 -0.0016,0.22247 0.135814,0.44521 0.115284,0.66723 -0.02234,0.1944 -0.03502,0.4165 -0.07009,0.60953 -0.03852,0.17694 0.138026,0.34669 0.07169,0.51838 -0.05631,0.16132 -0.05559,0.32531 -0.04995,0.49145 0,0.24822 5e-6,0.49643 7e-6,0.74463 3e-6,0.3618 6e-6,0.7236 -1e-5,1.0854 z"
       sodipodi:nodetypes="csccccccccccccccccccccccccccccccccccscccccccccccccccccccccccccccccccccscc" />
    <path
       style="fill:#ff6467;fill-opacity:1;stroke:#ff6467;stroke-width:0.225309;stroke-opacity:1"
       id="path14-3-8"
       d="m 36.383104,133.7071 c 0.07547,0.0218 0.153479,0.0304 0.23082,0.0429 0.101462,0.0167 0.203344,0.0285 0.305867,0.036 0.06765,0.003 0.135473,0.002 0.203214,0.003 0.0507,2.2e-4 0.101395,4.4e-4 0.152095,4.4e-4 0.05131,-0.002 0.102647,-4.4e-4 0.153961,1.9e-4 0.01931,0.007 0.03925,0.0105 0.05962,0.0129 0,0 -0.655884,-0.49073 -0.655884,-0.49073 v 0 c -0.02202,-0.004 -0.04378,-0.007 -0.06615,-0.004 -0.05115,6.6e-4 -0.102313,0.002 -0.153455,4.4e-4 -0.04982,2.2e-4 -0.09963,9.1e-4 -0.149445,10e-4 -0.0653,0.001 -0.130509,4.4e-4 -0.195697,-0.004 -0.09764,-0.006 -0.194944,-0.0175 -0.290926,-0.0364 -0.08469,-0.0172 -0.168447,-0.0378 -0.252932,-0.0556 z" />
    <path
       style="fill:#ff6467;fill-opacity:1;stroke:#ff6467;stroke-width:0.225309;stroke-opacity:1"
       id="path14-34-8"
       d="m 46.201075,84.815802 c 0.07547,0.0218 0.153479,0.0304 0.23082,0.0429 0.101462,0.0167 0.203344,0.0285 0.305867,0.036 0.06765,0.003 0.135473,0.002 0.203214,0.003 0.0507,2.2e-4 0.101395,4.4e-4 0.152095,4.4e-4 0.05131,-0.002 0.102647,-4.4e-4 0.153961,1.8e-4 0.01931,0.007 0.03925,0.0105 0.05962,0.0129 0,0 -0.655884,-0.49073 -0.655884,-0.49073 v 0 c -0.02202,-0.004 -0.04378,-0.007 -0.06615,-0.004 -0.05115,6.6e-4 -0.102313,0.002 -0.153455,4.4e-4 -0.04982,2.2e-4 -0.09963,9.1e-4 -0.149445,10e-4 -0.0653,0.001 -0.130509,4.4e-4 -0.195697,-0.004 -0.09764,-0.006 -0.194944,-0.0175 -0.290926,-0.0364 -0.08469,-0.0172 -0.168447,-0.0378 -0.252932,-0.0556 z" />
    <text
       xml:space="preserve"
       style="font-style:normal;font-variant:normal;font-weight:bold;font-stretch:normal;font-size:3.52778px;line-height:1;font-family:Calibri;-inkscape-font-specification:'Calibri, Bold';font-variant-ligatures:normal;font-variant-caps:normal;font-variant-numeric:normal;font-variant-east-asian:normal;text-align:end;writing-mode:lr-tb;direction:ltr;text-anchor:end;fill:#ff6467;fill-opacity:1;stroke:#ff6467;stroke-width:0.270999;stroke-dasharray:none;stroke-dashoffset:0;stroke-opacity:1"
       x="36.338371"
       y="115.61401"
       id="text14-2"><tspan
         sodipodi:role="line"
         id="tspan14-9"
         style="font-style:normal;font-variant:normal;font-weight:bold;font-stretch:normal;font-size:3.52778px;font-family:Calibri;-inkscape-font-specification:'Calibri, Bold';font-variant-ligatures:normal;font-variant-caps:normal;font-variant-numeric:normal;font-variant-east-asian:normal;fill:#ff6467;fill-opacity:1;stroke-width:0.271;stroke-dasharray:none;stroke-dashoffset:0"
         x="36.338371"
         y="115.61401">δ<tspan
   style="font-style:normal;font-variant:normal;font-weight:bold;font-stretch:normal;font-size:2.11667px;font-family:Sans;-inkscape-font-specification:'Sans, Bold';font-variant-ligatures:normal;font-variant-caps:normal;font-variant-numeric:normal;font-variant-east-asian:normal;baseline-shift:sub;fill:#ff6467;fill-opacity:1;stroke-dasharray:none;stroke-dashoffset:0"
   id="tspan15-1">0</tspan></tspan></text>
    <text
       xml:space="preserve"
       style="font-style:normal;font-variant:normal;font-weight:bold;font-stretch:normal;font-size:2.11667px;line-height:1;font-family:Sans;-inkscape-font-specification:'Sans, Bold';font-variant-ligatures:normal;font-variant-caps:normal;font-variant-numeric:normal;font-variant-east-asian:normal;text-align:end;writing-mode:lr-tb;direction:ltr;text-anchor:end;fill:#ff6467;fill-opacity:1;stroke:#ff6467;stroke-width:0.270999;stroke-dasharray:none;stroke-dashoffset:0;stroke-opacity:1"
       x="29.445597"
       y="211.76385"
       id="text16-3"><tspan
         sodipodi:role="line"
         id="tspan16-5"
         style="stroke-width:0.271"
         x="29.445597"
         y="211.76385" /></text>
    <text
       xml:space="preserve"
       style="font-style:normal;font-variant:normal;font-weight:bold;font-stretch:normal;font-size:2.82222px;line-height:1;font-family:Calibri;-inkscape-font-specification:'Calibri, Bold';font-variant-ligatures:normal;font-variant-caps:normal;font-variant-numeric:normal;font-variant-east-asian:normal;text-align:end;writing-mode:lr-tb;direction:ltr;text-anchor:end;fill:#ff6467;fill-opacity:1;stroke:#ff6467;stroke-width:0.270999;stroke-dasharray:none;stroke-dashoffset:0;stroke-opacity:1"
       x="35.702068"
       y="139.54448"
       id="text17-9"><tspan
         sodipodi:role="line"
         id="tspan17-8"
         style="font-style:normal;font-variant:normal;font-weight:bold;font-stretch:normal;font-size:2.82222px;font-family:Calibri;-inkscape-font-specification:'Calibri, Bold';font-variant-ligatures:normal;font-variant-caps:normal;font-variant-numeric:normal;font-variant-east-asian:normal;stroke-width:0.271"
         x="35.702068"
         y="139.54448">α</tspan></text>
    <circle
       id="path18"
       style="fill:#000000;stroke:#000000;stroke-width:0.264583"
       cx="37.155979"
       cy="146.04042"
       r="2.6303462e-07" />
    <circle
       id="path19"
       style="fill:#000000;stroke:#000000;stroke-width:0.264583"
       cx="37.063435"
       cy="144.50577"
       r="2.6303462e-07" />
    <path
       style="fill:#ff6467;fill-opacity:1;stroke:#ff6467;stroke-width:0.225309;stroke-opacity:1"
       id="path14-7"
       d="m 36.359273,144.33794 c 0.07547,0.0218 0.153479,0.0304 0.23082,0.0429 0.101462,0.0167 0.203344,0.0285 0.305867,0.036 0.06765,0.003 0.135473,0.002 0.203214,0.003 0.0507,2.2e-4 0.101395,4.4e-4 0.152095,4.4e-4 0.05131,-0.002 0.102647,-4.4e-4 0.153961,1.8e-4 0.01931,0.007 0.03925,0.0105 0.05962,0.0129 0,0 -0.655884,-0.49073 -0.655884,-0.49073 v 0 c -0.02202,-0.004 -0.04378,-0.007 -0.06615,-0.004 -0.05115,6.6e-4 -0.102313,0.002 -0.153455,4.4e-4 -0.04982,2.2e-4 -0.09963,9.2e-4 -0.149445,0.001 -0.0653,0.001 -0.130509,4.4e-4 -0.195697,-0.004 -0.09764,-0.006 -0.194944,-0.0175 -0.290926,-0.0364 -0.08469,-0.0172 -0.168447,-0.0378 -0.252932,-0.0556 z" />
    <path
       style="fill:#464646;fill-opacity:1;stroke:#464646;stroke-width:0.225309;stroke-opacity:1"
       id="path14-7-2"
       d="m 36.155997,149.66551 c 0.07547,0.0218 0.153479,0.0304 0.23082,0.0429 0.101462,0.0167 0.203344,0.0285 0.305867,0.036 0.06765,0.003 0.135473,0.002 0.203214,0.003 0.0507,2.2e-4 0.101395,4.4e-4 0.152095,4.4e-4 0.05131,-0.002 0.102647,-4.4e-4 0.153961,1.8e-4 0.01931,0.007 0.03925,0.0105 0.05962,0.0129 0,0 -0.655884,-0.49073 -0.655884,-0.49073 v 0 c -0.02202,-0.004 -0.04378,-0.007 -0.06615,-0.004 -0.05115,6.6e-4 -0.102313,0.002 -0.153455,4.4e-4 -0.04982,2.2e-4 -0.09963,9.2e-4 -0.149445,0.001 -0.0653,0.001 -0.130509,4.4e-4 -0.195697,-0.004 -0.09764,-0.006 -0.194944,-0.0175 -0.290926,-0.0364 -0.08469,-0.0172 -0.168447,-0.0378 -0.252932,-0.0556 z" />
    <text
       xml:space="preserve"
       style="font-style:normal;font-variant:normal;font-weight:bold;font-stretch:normal;font-size:2.82223px;line-height:1;font-family:Calibri;-inkscape-font-specification:'Calibri, Bold';font-variant-ligatures:normal;font-variant-caps:normal;font-variant-numeric:normal;font-variant-east-asian:normal;text-align:end;writing-mode:lr-tb;direction:ltr;text-anchor:end;fill:#000000;fill-opacity:1;stroke:#000000;stroke-width:0.270999;stroke-dasharray:none;stroke-dashoffset:0;stroke-opacity:1"
       x="28.138498"
       y="146.46849"
       id="text19"><tspan
         sodipodi:role="line"
         id="tspan19"
         style="stroke-width:0.271"
         x="28.138498"
         y="146.46849">x</tspan></text>
    <path
       style="fill:#000000;fill-opacity:0.5;stroke:#464646;stroke-width:0.270999;stroke-dasharray:none;stroke-dashoffset:0;stroke-opacity:0.979508"
       id="path20"
       d="m 35.730473,144.96607 c -0.445188,-0.0134 -0.890249,-0.0262 -1.335762,-0.0264 -0.410736,0.0103 -0.826709,0.0116 -1.229783,0.10236 -0.229063,0.0516 -0.33042,0.095 -0.555787,0.17415 -0.69419,0.30146 -1.379788,0.62293 -2.067972,0.93803 -0.65958,0.31726 -1.298104,0.67566 -1.949728,1.00878 -0.727964,0.35638 -1.417349,0.78443 -2.116677,1.19263 -0.487824,0.28896 -0.985277,0.56219 -1.465571,0.86376 -0.285691,0.17939 -0.343575,0.2233 -0.618537,0.4123 -0.514191,0.37055 -0.964024,0.82418 -1.360736,1.31725 -0.08995,0.11179 -0.174291,0.22798 -0.261437,0.34197 -0.526084,0.75574 -0.898497,1.60279 -1.27118,2.44086 -0.284938,0.68346 -0.602851,1.3515 -0.95951,2.00024 -0.301485,0.53094 -0.607522,1.05922 -0.907621,1.59097 -0.261684,0.42524 -0.464293,0.87968 -0.635511,1.34746 -0.129174,0.36545 -0.176989,0.75036 -0.231232,1.13193 -0.04393,0.28827 -0.07274,0.57739 -0.06691,0.86898 0.0018,0.13551 0.01639,0.27128 0.007,0.40684 -0.007,0.10179 -0.02583,0.20945 -0.0411,0.30973 -0.0691,0.31214 -0.137758,0.62389 -0.181482,0.94073 -0.02773,0.20325 -0.09708,0.40612 -0.06349,0.61212 0.0084,0.0233 0.0169,0.0465 0.02535,0.0698 0,0 8.73e-4,5.3e-4 8.73e-4,5.3e-4 v 0 c -0.0085,-0.0233 -0.0169,-0.0465 -0.02535,-0.0698 -0.03362,-0.206 0.03573,-0.40886 0.06346,-0.6121 0.04371,-0.31685 0.112361,-0.6286 0.18147,-0.94074 0.01527,-0.10027 0.03406,-0.20796 0.04112,-0.30973 0.0094,-0.13556 -0.0052,-0.27133 -0.007,-0.40685 -0.0059,-0.29159 0.02294,-0.5807 0.06687,-0.86898 0.05425,-0.38156 0.102061,-0.76646 0.231219,-1.13191 0.171205,-0.46778 0.373809,-0.92222 0.635484,-1.34746 0.300093,-0.53175 0.606134,-1.06002 0.907615,-1.59098 0.356648,-0.64874 0.674548,-1.3168 0.959483,-2.00026 0.37267,-0.83807 0.745073,-1.68512 1.271171,-2.44084 0.08715,-0.11399 0.171494,-0.23017 0.261441,-0.34196 0.396716,-0.49305 0.846548,-0.94668 1.360734,-1.31722 0.274958,-0.18901 0.332838,-0.23291 0.618525,-0.4123 0.480288,-0.30159 0.977738,-0.57482 1.465562,-0.86376 0.699331,-0.40821 1.388721,-0.83626 2.116701,-1.19262 0.651619,-0.33312 1.290132,-0.69155 1.94972,-1.00878 0.688179,-0.31511 1.373772,-0.6366 2.067978,-0.93801 0.225369,-0.0791 0.326726,-0.12257 0.555789,-0.17414 0.403064,-0.0907 0.819028,-0.0921 1.229754,-0.10235 0.445537,1.5e-4 0.890622,0.013 1.335836,0.0264 z" />
    <path
       style="fill:#000000;fill-opacity:0.5;stroke:#464646;stroke-width:0.270999;stroke-dasharray:none;stroke-dashoffset:0;stroke-opacity:0.979508"
       id="path21"
       d="m 36.721502,144.7025 c -0.05118,0.24446 -0.0844,0.49212 -0.123574,0.73867 -0.06416,0.31009 -0.107495,0.62327 -0.150807,0.93673 -0.05379,0.2812 -0.08029,0.56593 -0.09603,0.85144 -0.01161,0.24507 -0.01233,0.49046 -0.0127,0.73574 -2.7e-5,0.20203 5.29e-4,0.40407 7.94e-4,0.6061 0.003,0.16117 -0.0059,0.32274 0.0054,0.48361 0.0061,0.0667 0.01463,0.13275 0.02627,0.19871 0,0 7.94e-4,5.3e-4 7.94e-4,5.3e-4 v 0 c -0.01164,-0.0659 -0.02021,-0.13197 -0.0263,-0.1987 -0.01138,-0.16087 -0.0024,-0.32244 -0.0055,-0.48361 -2.65e-4,-0.20203 -7.94e-4,-0.40407 -7.94e-4,-0.6061 2.65e-4,-0.24529 0.0011,-0.49068 0.0127,-0.73574 0.01574,-0.28551 0.04224,-0.57024 0.09603,-0.85143 0.04331,-0.31347 0.08664,-0.62665 0.150805,-0.93674 0.03917,-0.24654 0.07239,-0.4942 0.123597,-0.73864 z" />
    <text
       xml:space="preserve"
       style="font-style:normal;font-variant:normal;font-weight:bold;font-stretch:normal;font-size:1.9341px;line-height:1;font-family:Calibri;-inkscape-font-specification:'Calibri, Bold';font-variant-ligatures:normal;font-variant-caps:normal;font-variant-numeric:normal;font-variant-east-asian:normal;text-align:end;writing-mode:lr-tb;direction:ltr;text-anchor:end;fill:#000000;fill-opacity:1;stroke:#000000;stroke-width:0.185718;stroke-dasharray:none;stroke-dashoffset:0;stroke-opacity:1"
       x="38.063885"
       y="147.76212"
       id="text21"><tspan
         sodipodi:role="line"
         id="tspan21"
         style="fill:#000000;fill-opacity:1;stroke:#000000;stroke-width:0.185718;stroke-opacity:1"
         x="38.063885"
         y="147.76212">β</tspan></text>
  </g>
  <g
     inkscape:groupmode="layer"
     id="layer3"
     inkscape:label="[e]Način3">
    <path
       sodipodi:type="star"
       style="fill:none;stroke:#646464;stroke-width:0.270999"
       id="path1-3-6"
       inkscape:flatsided="true"
       sodipodi:sides="3"
       sodipodi:cx="24.779083"
       sodipodi:cy="23.38308"
       sodipodi:r1="52.617638"
       sodipodi:r2="27.358219"
       sodipodi:arg1="0.52449365"
       sodipodi:arg2="1.5716912"
       inkscape:rounded="0"
       inkscape:randomized="0"
       d="M 70.323733,49.732666 -20.812652,49.65111 24.826169,-29.234537 Z"
       inkscape:transform-center-x="-0.078528493"
       inkscape:transform-center-y="-13.611046"
       transform="translate(131.11413,66.282618)" />
    <path
       style="fill:#000000;fill-opacity:1;stroke:#05e972;stroke-width:0.27679;stroke-opacity:1"
       id="path2-8-5"
       d="m 155.92996,37.43 c -0.37832,0.82361 -0.72903,1.65699 -1.0136,2.51595 -0.11629,0.40384 -0.23807,0.81284 -0.25731,1.23508 -0.0208,0.45681 0.0724,0.9014 0.16099,1.34649 0.27646,1.07744 0.38694,2.17813 0.45018,3.28378 0.0957,1.31457 -0.27529,2.34512 -0.82175,3.51908 -0.77434,1.6164 -1.63831,3.1882 -2.51118,4.755258 -0.88682,1.5111 -1.702,3.06319 -2.38347,4.67352 -0.41991,0.99226 -0.49305,1.2423 -0.85204,2.24817 -0.55222,1.64116 -0.8206,3.35169 -1.12399,5.04787 -0.44406,2.48261 -0.16081,0.8334 -0.58375,3.36142 -0.42927,2.52612 -0.65987,5.07533 -0.82841,7.62842 -0.18511,2.17983 -0.23453,4.36637 -0.24057,6.55262 1.2e-4,3.904149 0.0753,7.807609 0.14527,11.710989 0.0125,1.55962 0.0919,3.11968 0.03,4.67892 -0.0468,1.004503 -0.0643,2.009493 -0.1169,3.013743 -0.0309,0.55548 -0.0357,1.11598 -0.11633,1.66787 -0.0802,0.54852 -0.23308,1.08177 -0.38612,1.61384 -0.21198,0.76492 -0.55744,1.4841 -0.82768,2.22883 -0.0709,0.1953 -0.38737,1.15802 -0.44879,1.3439 -0.35727,1.07833 -0.67539,2.16878 -1.08295,3.23039 -0.17638,0.40997 -0.35129,0.81922 -0.53173,1.22743 -0.19161,0.40861 -0.32108,0.84827 -0.57329,1.22712 0,0 8.2e-4,5.3e-4 8.2e-4,5.3e-4 v 0 c 0.2522,-0.37886 0.38168,-0.81851 0.57329,-1.22714 0.18045,-0.4082 0.35536,-0.81745 0.53172,-1.22743 0.40753,-1.06162 0.72565,-2.15209 1.08292,-3.23042 0.0615,-0.18613 0.37784,-1.14833 0.4488,-1.34388 0.27024,-0.74474 0.6157,-1.46392 0.82769,-2.22884 0.15303,-0.53207 0.30598,-1.06533 0.38613,-1.61385 0.0806,-0.5519 0.0854,-1.1124 0.11633,-1.66787 0.0526,-1.00425 0.0702,-2.00925 0.11691,-3.013743 0.0618,-1.55926 -0.0176,-3.11935 -0.0301,-4.67898 -0.0701,-3.90338 -0.14526,-7.80684 -0.14526,-11.710979 0.006,-2.18625 0.0555,-4.37277 0.2406,-6.5526 0.16853,-2.5531 0.39906,-5.10232 0.82834,-7.62845 0.42301,-2.5284 0.13962,-0.87843 0.58377,-3.36141 0.30342,-1.69617 0.57181,-3.40668 1.12402,-5.04784 0.35897,-1.00585 0.43213,-1.25592 0.85203,-2.24816 0.68146,-1.61034 1.49663,-3.16243 2.38347,-4.67351 0.87289,-1.567048 1.73689,-3.138838 2.51124,-4.755248 0.54647,-1.17397 0.91746,-2.20452 0.82177,-3.51911 -0.0632,-1.10565 -0.1737,-2.20635 -0.45017,-3.28379 -0.0886,-0.44508 -0.18179,-0.88966 -0.16099,-1.34645 0.0192,-0.42224 0.141,-0.83124 0.2573,-1.23508 0.28455,-0.85895 0.63525,-1.69234 1.01363,-2.51593 z" />
    <path
       style="fill:#000000;fill-opacity:1;stroke:#05e972;stroke-width:0.280358;stroke-opacity:1"
       id="path3-9-7"
       d="m 156.01258,37.49271 c 2e-5,0.84481 2e-5,1.68962 2e-5,2.53443 -0.0161,0.78306 0.0125,1.5656 0.0942,2.34482 0.1245,0.72584 0.30922,1.44216 0.48308,2.15866 0.31124,1.33216 0.42374,2.69405 0.55497,4.05018 0.19734,1.94819 0.33297,3.90363 0.5874,5.846338 0.062,0.47311 0.13945,0.94424 0.20917,1.41637 0.43418,2.49566 0.92611,4.98158 1.36787,7.47618 0.38631,2.17626 0.42743,4.38605 0.46944,6.58723 0.0364,1.93688 -0.009,3.87563 0.0944,5.81116 0.0604,1.12759 0.15125,2.01009 0.25357,3.13439 0.32129,2.83706 0.92372,5.63752 1.47522,8.439949 0.4243,1.9771 0.73264,3.97313 1.03403,5.96975 0.29061,1.97568 0.4575,3.96575 0.67485,5.9498 0.26071,2.265443 0.56431,4.525553 0.93133,6.777443 0.23632,1.3257 0.41387,2.66084 0.65345,3.9859 0.13028,0.64837 0.20904,1.30365 0.33344,1.95304 0.0831,0.52349 0.18056,1.04437 0.28378,1.56458 0.10029,0.47849 0.12332,0.96648 0.18402,1.45014 0.0394,0.29106 0.0513,0.58417 0.0954,0.87452 0,0 8.4e-4,5.4e-4 8.4e-4,5.4e-4 v 0 c -0.0442,-0.29036 -0.056,-0.58346 -0.0954,-0.87452 -0.0607,-0.48367 -0.0837,-0.97166 -0.18401,-1.45015 -0.10323,-0.52021 -0.2007,-1.0411 -0.28378,-1.56459 -0.12441,-0.64938 -0.20316,-1.30466 -0.33347,-1.95304 -0.23961,-1.32507 -0.41715,-2.66021 -0.6535,-3.98592 -0.36704,-2.25189 -0.67064,-4.512 -0.93134,-6.777453 -0.21734,-1.98404 -0.38423,-3.97411 -0.67483,-5.94978 -0.30139,-1.99664 -0.60974,-3.99267 -1.03407,-5.96977 -0.5515,-2.802439 -1.15395,-5.602899 -1.47524,-8.439959 -0.10234,-1.12441 -0.19318,-2.00668 -0.25357,-3.13439 -0.10366,-1.93552 -0.0581,-3.87427 -0.0944,-5.81114 -0.042,-2.20118 -0.0831,-4.41097 -0.46941,-6.58724 -0.44178,-2.4946 -0.93373,-4.98053 -1.36791,-7.47619 -0.0697,-0.47212 -0.1472,-0.94325 -0.20916,-1.41636 -0.25441,-1.942698 -0.39005,-3.898138 -0.58737,-5.846318 -0.1312,-1.35613 -0.24368,-2.71802 -0.55491,-4.05017 -0.17385,-0.7165 -0.35855,-1.43281 -0.48307,-2.15865 -0.0817,-0.77921 -0.11028,-1.56175 -0.0942,-2.34482 1e-5,-0.8448 0,-1.68961 2e-5,-2.53441 z" />
    <path
       style="fill:#000000;fill-opacity:1;stroke:#05e972;stroke-width:0.278487;stroke-opacity:1"
       id="path4-3-5"
       d="m 145.92687,86.153527 c 0.21752,0.75923 0.35427,1.5389 0.49088,2.31442 0.14028,1.07393 0.26519,2.14667 0.47701,3.21073 0.2865,1.5605 0.60744,3.11393 0.99131,4.65558 0.41285,1.61924 0.80282,3.24311 1.16562,4.873023 0.29015,1.30958 0.56781,2.62102 0.90128,3.92144 0.32845,1.21808 0.61777,2.44515 0.87104,3.67914 0.1639,0.70106 0.21029,1.41641 0.27977,2.12877 0.0487,0.63632 0.18332,1.26174 0.35678,1.87691 0.10372,0.39514 0.32379,0.74029 0.5116,1.10072 0.11276,0.27286 0.2233,0.54749 0.31573,0.82724 0.0645,0.26589 0.16733,0.52442 0.29581,0.76843 0.0894,0.11207 0.0392,0.0624 0.14959,0.14988 0,0 8.4e-4,2.7e-4 8.4e-4,2.7e-4 v 0 c -0.11043,-0.0874 -0.0602,-0.0378 -0.14962,-0.14985 -0.12849,-0.244 -0.23136,-0.50254 -0.29582,-0.76841 -0.0924,-0.27976 -0.20297,-0.55439 -0.31571,-0.82726 -0.18781,-0.36043 -0.4079,-0.70557 -0.51163,-1.10071 -0.17347,-0.61516 -0.30813,-1.24058 -0.35679,-1.87689 -0.0695,-0.71238 -0.11587,-1.42773 -0.27978,-2.1288 -0.25328,-1.23399 -0.54261,-2.46106 -0.87106,-3.67915 -0.33346,-1.30042 -0.61113,-2.61186 -0.90128,-3.92143 -0.36281,-1.629923 -0.75279,-3.253793 -1.16563,-4.873033 -0.38387,-1.54164 -0.70481,-3.09508 -0.9913,-4.65557 -0.21181,-1.06405 -0.33672,-2.1368 -0.47699,-3.21072 -0.1366,-0.77552 -0.27336,-1.55518 -0.49083,-2.31443 z" />
    <path
       style="fill:#000000;fill-opacity:1;stroke:#05e972;stroke-width:0.276304;stroke-opacity:1"
       id="path5-4-4"
       d="m 145.79763,102.13574 c -0.58474,-0.0547 -1.18862,-0.0217 -1.76243,0.11215 -0.15732,0.0367 -0.31049,0.0901 -0.46574,0.13509 -0.73232,0.25602 -1.43165,0.6159 -2.03652,1.11531 -0.12647,0.10442 -0.24332,0.22055 -0.36497,0.33082 -0.97844,0.97388 -1.90537,1.99338 -2.74481,3.09562 -0.59374,0.78891 -0.96417,1.71078 -1.39234,2.59596 -0.40675,0.82879 -1.00188,1.53298 -1.58562,2.23354 -0.41814,0.48612 -0.7912,1.01632 -1.08432,1.59204 -0.18881,0.37084 -0.2977,0.67518 -0.44988,1.06231 -0.13924,0.41488 -0.28586,0.82607 -0.45039,1.23099 0,0 8.5e-4,5.5e-4 8.5e-4,5.5e-4 v 0 c 0.16452,-0.40493 0.31113,-0.81612 0.45037,-1.231 0.1522,-0.38717 0.26106,-0.69143 0.44988,-1.06231 0.29312,-0.57571 0.66619,-1.1059 1.08432,-1.59201 0.58374,-0.70057 1.17887,-1.40477 1.58563,-2.23356 0.42817,-0.88518 0.79859,-1.80704 1.39231,-2.59595 0.83943,-1.10225 1.76635,-2.12175 2.74481,-3.0956 0.12166,-0.11027 0.2385,-0.22639 0.36497,-0.33081 0.60487,-0.4994 1.30419,-0.85928 2.0365,-1.11528 0.15525,-0.045 0.30842,-0.0984 0.46574,-0.13509 0.57381,-0.13378 1.1777,-0.16679 1.76245,-0.1121 z" />
    <path
       style="fill:#000000;fill-opacity:1;stroke:#05e972;stroke-width:0.2814;stroke-opacity:1"
       id="path6-4-1"
       d="m 164.04076,103.80235 c 1.22299,0.51486 2.27422,1.34818 3.2871,2.17578 1.07542,0.90349 2.09285,1.87303 2.98997,2.94629 0.60854,0.70131 1.0704,1.50298 1.48463,2.32357 0.40416,0.79266 0.71325,1.62635 1.09786,2.42778 0.25719,0.52752 0.49867,1.06105 0.77075,1.5814 0.11237,0.18956 0.17493,0.37266 0.20429,0.58697 0,0 8.4e-4,5.5e-4 8.4e-4,5.5e-4 v 0 c -0.0293,-0.21433 -0.0919,-0.39743 -0.20428,-0.58701 -0.27209,-0.52035 -0.51358,-1.05387 -0.77076,-1.5814 -0.38463,-0.80143 -0.69372,-1.63513 -1.09789,-2.42779 -0.41421,-0.8206 -0.87606,-1.62228 -1.48461,-2.32359 -0.89713,-1.07328 -1.91458,-2.04281 -2.99001,-2.94632 -1.01337,-0.82802 -2.06518,-1.66165 -3.2888,-2.17675 z" />
    <circle
       style="fill:#05e972;fill-opacity:0.5;stroke:#05e972;stroke-width:0.270999;stroke-opacity:1"
       id="path8-6-2"
       cx="146.21185"
       cy="102.36246"
       r="0.80203843" />
    <circle
       style="fill:#05e972;fill-opacity:0.5;stroke:#05e972;stroke-width:0.270999;stroke-opacity:1"
       id="path8-4-0-1"
       cx="146.19405"
       cy="86.425781"
       r="0.80203843" />
    <circle
       style="fill:#05e972;fill-opacity:0.5;stroke:#05e972;stroke-width:0.270999;stroke-opacity:1"
       id="path8-7-6-4"
       cx="164.14182"
       cy="103.68417"
       r="0.80203843" />
    <circle
       style="fill:#05e972;fill-opacity:0.5;stroke:#05e972;stroke-width:0.270999;stroke-opacity:1"
       id="path8-2-6-6"
       cx="133.42435"
       cy="115.9962"
       r="0.80203843" />
    <circle
       style="fill:#05e972;fill-opacity:0.5;stroke:#05e972;stroke-width:0.270999;stroke-opacity:1"
       id="path8-42-1-0"
       cx="142.13371"
       cy="115.76689"
       r="0.80203843" />
    <circle
       style="fill:#05e972;fill-opacity:0.5;stroke:#05e972;stroke-width:0.270999;stroke-opacity:1"
       id="path8-1-8-7"
       cx="152.60207"
       cy="115.84332"
       r="0.80203843" />
    <circle
       style="fill:#05e972;fill-opacity:0.5;stroke:#05e972;stroke-width:0.270999;stroke-opacity:1"
       id="path8-76-4-1"
       cx="165.86929"
       cy="115.73529"
       r="0.80203843" />
    <circle
       style="fill:#05e972;fill-opacity:0.5;stroke:#05e972;stroke-width:0.270999;stroke-opacity:1"
       id="path8-27-9-7"
       cx="173.98604"
       cy="115.84822"
       r="0.80203843" />
    <path
       style="fill:#ff6467;fill-opacity:0.5;stroke:#ff6467;stroke-width:0.232829;stroke-opacity:1"
       id="path9-6-7"
       d="m 146.11739,86.592587 c 0.005,0.19586 -0.005,0.39126 -0.018,0.5867 -0.009,0.16976 -0.0258,0.33918 -0.0493,0.50786 -0.028,0.19569 -0.0727,0.38909 -0.10588,0.58409 -0.0707,0.32163 0.0817,0.17866 0.0162,0.50123 -0.0674,0.31487 0.0636,0.58631 -0.0119,0.89981 -0.068,0.30011 0.18152,0.65123 0.0677,0.93965 0.013,1.29847 0.0226,1.59841 -0.0471,2.80302 0.11811,0.40609 0.28225,1.26321 0.0776,2.56975 -0.0621,0.54309 0.059,0.56425 0.10473,1.02198 h -0.008 c -0.19801,1e-4 0.0783,-0.53954 -0.10401,-1.12954 0.21273,-1.4163 -0.15997,-1.93276 -0.0468,-2.43865 0.0199,-1.74385 -0.0503,-2.07874 -0.0455,-2.79533 0.11382,-0.28842 -0.0663,-0.60097 0.002,-0.90109 0.0755,-0.31351 -0.0247,-0.64665 0.0427,-0.96153 0.0655,-0.32256 -0.11778,-0.1873 -0.0471,-0.50892 0.0332,-0.19501 0.078,-0.38841 0.1059,-0.58409 0.0235,-0.16868 0.0403,-0.3381 0.0493,-0.50787 0.0133,-0.19543 0.023,-0.39084 0.0181,-0.58669 z"
       sodipodi:nodetypes="ccccccccccscccccccccc" />
    <path
       style="fill:#ff6467;fill-opacity:0.5;stroke:#ff6467;stroke-width:0.237375;stroke-dasharray:0.237375, 0.712125;stroke-dashoffset:0;stroke-opacity:1"
       id="path12-3-7"
       d="m 145.94688,86.524237 c -1e-5,-0.3618 -1e-5,-0.723599 -1e-5,-1.085399 l 1e-5,-0.74463 c -0.006,-0.16614 -0.006,-0.33012 0.0499,-0.49144 0.0663,-0.17168 -0.11022,-0.35685 -0.0717,-0.5338 0.0351,-0.19303 0.0169,-0.38428 0.0392,-0.57869 0.0206,-0.22202 -0.0705,-0.46019 -0.069,-0.68266 3.9e-4,-0.15528 0.0922,-1.00078 0.0922,-3.31382 0.0109,-0.3308 0.2711,-0.78325 0.22042,-1.11104 -0.0887,-0.44614 -0.12772,-0.89613 -0.15208,-1.34662 -0.0259,-0.44074 0.29644,-0.69473 0.23626,-1.13336 -0.0446,-0.28461 0.007,-0.58663 0.002,-0.87293 -0.0166,-0.36836 0.11858,-0.90548 0.14454,-1.27312 0.0573,-0.42305 0.0222,-0.61656 0.0658,-1.04041 0.0472,-0.37007 0.10421,-0.24757 0.11757,-0.61916 0.0455,-1.55277 0.50352,-2.54077 0.50785,-2.57252 0.4452,-3.2116 0.1686,-0.94264 0.34519,-2.22702 0.65838,-4.73939 0.0709,-0.61152 0.25374,-2.38951 0.10369,-0.56243 0.28636,-1.04744 0.39464,-1.60905 0.0669,-0.2731 0.46829,-1.37949 0.49198,-1.6568 0.003,-0.3301 0.47366,-1.07155 0.53304,-1.39731 0.86918,-2.91253 1.59621,-3.20271 1.59992,-3.26356 0.005,-0.32637 0.4735,-1.2072 0.71314,-1.47334 0.16165,-0.17758 0.34179,-1.04449 0.56614,-1.17688 1.03501,-0.58883 0.19286,-0.14043 1.0114,-1.993814 1.90373,-3.79996 1.56804,-3.023464 1.88476,-4.105691 0.73044,-2.076135 -0.008,-0.613836 0.39348,-2.492494 0.20737,-0.306488 -0.49745,-0.132282 -0.40229,-0.466107 0.18807,-0.680089 -0.23746,-1.368544 -0.0988,-2.055294 0.10172,-0.489999 -0.12692,-0.899016 -0.0773,-1.393919 0.0359,-0.215236 -0.0461,-0.506134 -0.1061,-0.715952 -0.0807,-0.219435 0.0962,-0.735263 0.0669,-0.961959 -0.0285,-0.30498 0.32721,-0.481617 0.3551,-0.786422 0.0165,-0.257543 0.26398,-0.390449 0.35509,-0.637373 0.0791,-0.238285 0.33904,-0.427449 0.40465,-0.668273 l -8e-4,-3.56e-4 v 0 c -0.0656,0.240823 -0.31011,0.406615 -0.38922,0.644891 -0.0911,0.246932 -0.33862,0.391533 -0.35508,0.649083 -0.028,0.304805 -0.3374,0.516518 -0.30883,0.821497 0.0292,0.226704 -0.13224,0.69577 -0.0515,0.915205 0.06,0.20981 0.0958,0.477327 0.0598,0.692563 -0.0495,0.494903 0.19453,0.919834 0.0928,1.409841 -0.13865,0.686742 0.2406,1.406038 0.0525,2.086119 -0.0952,0.333818 0.54797,0.221292 0.34061,0.52778 -0.27598,0.545637 0.66602,0.299472 -0.25465,2.419119 -0.45525,1.178669 -0.36786,0.613719 -1.09799,2.726991 -0.43848,1.034279 -0.68938,0.992521 -0.83307,1.421235 -0.81603,1.84757 0.0357,1.2416 -1.04223,1.85495 -0.22435,0.13242 -0.45076,1.20683 -0.61241,1.38441 -0.23965,0.26615 -0.56923,1.03204 -0.57435,1.35843 -0.99108,0.81374 -0.67736,0.34223 -1.5845,3.2944 -0.0594,0.32575 -0.65373,1.08264 -0.65643,1.41274 -0.0237,0.2773 -0.33257,1.33743 -0.39944,1.61051 -0.10377,0.56246 -0.32626,1.32344 -0.42549,1.88669 -0.15168,1.47449 0.31195,-2.27751 -0.31545,2.239 -0.13659,0.99358 0.0637,-0.79254 -0.32974,2.04569 0.0422,0.12243 -0.47166,1.00738 -0.50788,2.5959 -0.0134,0.37159 -0.055,0.29537 -0.10214,0.66543 -0.0436,0.42385 -0.008,0.64821 -0.0658,1.07127 -0.026,0.36763 -0.23823,0.82763 -0.22166,1.19599 0.006,0.28631 0.0618,0.65001 0.10639,0.93463 0.0602,0.43863 -0.30837,0.6772 -0.28252,1.11794 0.0244,0.45048 0.0633,0.90048 0.15206,1.34662 0.0507,0.32779 -0.22489,0.76482 -0.23583,1.09561 -10e-4,1.15602 -0.0904,2.17322 -0.0922,3.32924 -0.002,0.22247 0.13582,0.44521 0.11529,0.66723 -0.0223,0.1944 -0.035,0.4165 -0.0701,0.60953 -0.0385,0.17694 0.13802,0.34669 0.0717,0.51838 -0.0563,0.16132 -0.0556,0.32531 -0.0499,0.49145 0,0.24822 0,0.49643 0,0.74463 1e-5,0.3618 1e-5,0.723599 -1e-5,1.085399 z"
       sodipodi:nodetypes="csccccccccccccccccccccccccccccccccccscccccccccccccccccccccccccccccccccscc" />
    <path
       style="fill:#ff6467;fill-opacity:1;stroke:#ff6467;stroke-width:0.225309;stroke-opacity:1"
       id="path14-3-8-7"
       d="m 145.90416,86.556947 c 0.0755,0.0218 0.15348,0.0304 0.23082,0.0429 0.10147,0.0167 0.20335,0.0285 0.30587,0.036 0.0677,0.003 0.13547,0.002 0.20321,0.003 0.0507,2.2e-4 0.1014,4.4e-4 0.1521,4.4e-4 0.0513,-0.002 0.10265,-4.4e-4 0.15396,1.9e-4 0.0193,0.007 0.0393,0.0105 0.0596,0.0129 0,0 -0.65588,-0.49073 -0.65588,-0.49073 v 0 c -0.022,-0.004 -0.0438,-0.007 -0.0662,-0.004 -0.0511,6.6e-4 -0.10232,0.002 -0.15346,4.4e-4 -0.0498,2.2e-4 -0.0996,9.1e-4 -0.14944,0.001 -0.0653,0.001 -0.13051,4.4e-4 -0.1957,-0.004 -0.0976,-0.006 -0.19494,-0.0175 -0.29093,-0.0364 -0.0847,-0.0172 -0.16844,-0.0378 -0.25293,-0.0556 z" />
    <path
       style="fill:#ff6467;fill-opacity:1;stroke:#ff6467;stroke-width:0.225309;stroke-opacity:1"
       id="path14-34-8-3"
       d="m 155.72213,37.66565 c 0.0755,0.0218 0.15348,0.0304 0.23082,0.0429 0.10147,0.0167 0.20335,0.0285 0.30587,0.036 0.0676,0.003 0.13547,0.002 0.20322,0.003 0.0507,2.2e-4 0.10139,4.4e-4 0.15209,4.4e-4 0.0513,-0.002 0.10265,-4.4e-4 0.15396,1.8e-4 0.0193,0.007 0.0393,0.0105 0.0596,0.0129 0,0 -0.65588,-0.49073 -0.65588,-0.49073 v 0 c -0.022,-0.004 -0.0438,-0.007 -0.0661,-0.004 -0.0512,6.6e-4 -0.10231,0.002 -0.15346,4.4e-4 -0.0498,2.2e-4 -0.0996,9.1e-4 -0.14944,0.001 -0.0653,10e-4 -0.13051,4.4e-4 -0.1957,-0.004 -0.0976,-0.006 -0.19494,-0.0175 -0.29093,-0.0364 -0.0847,-0.0172 -0.16844,-0.0378 -0.25293,-0.0556 z" />
    <text
       xml:space="preserve"
       style="font-style:normal;font-variant:normal;font-weight:bold;font-stretch:normal;font-size:3.52778px;line-height:1;font-family:Calibri;-inkscape-font-specification:'Calibri, Bold';font-variant-ligatures:normal;font-variant-caps:normal;font-variant-numeric:normal;font-variant-east-asian:normal;text-align:end;writing-mode:lr-tb;direction:ltr;text-anchor:end;fill:#ff6467;fill-opacity:1;stroke:#ff6467;stroke-width:0.270999;stroke-dasharray:none;stroke-dashoffset:0;stroke-opacity:1"
       x="145.85944"
       y="68.46386"
       id="text14-2-3"><tspan
         sodipodi:role="line"
         id="tspan14-9-5"
         style="font-style:normal;font-variant:normal;font-weight:bold;font-stretch:normal;font-size:3.52778px;font-family:Calibri;-inkscape-font-specification:'Calibri, Bold';font-variant-ligatures:normal;font-variant-caps:normal;font-variant-numeric:normal;font-variant-east-asian:normal;fill:#ff6467;fill-opacity:1;stroke-width:0.271;stroke-dasharray:none;stroke-dashoffset:0"
         x="145.85944"
         y="68.46386">δ<tspan
   style="font-style:normal;font-variant:normal;font-weight:bold;font-stretch:normal;font-size:2.11667px;font-family:Sans;-inkscape-font-specification:'Sans, Bold';font-variant-ligatures:normal;font-variant-caps:normal;font-variant-numeric:normal;font-variant-east-asian:normal;baseline-shift:sub;fill:#ff6467;fill-opacity:1;stroke-dasharray:none;stroke-dashoffset:0"
   id="tspan15-1-9">0</tspan></tspan></text>
    <text
       xml:space="preserve"
       style="font-style:normal;font-variant:normal;font-weight:bold;font-stretch:normal;font-size:2.82222px;line-height:1;font-family:Calibri;-inkscape-font-specification:'Calibri, Bold';font-variant-ligatures:normal;font-variant-caps:normal;font-variant-numeric:normal;font-variant-east-asian:normal;text-align:end;writing-mode:lr-tb;direction:ltr;text-anchor:end;fill:#ff6467;fill-opacity:1;stroke:#ff6467;stroke-width:0.270999;stroke-dasharray:none;stroke-dashoffset:0;stroke-opacity:1"
       x="145.22313"
       y="92.394325"
       id="text17-9-9"><tspan
         sodipodi:role="line"
         id="tspan17-8-8"
         style="font-style:normal;font-variant:normal;font-weight:bold;font-stretch:normal;font-size:2.82222px;font-family:Calibri;-inkscape-font-specification:'Calibri, Bold';font-variant-ligatures:normal;font-variant-caps:normal;font-variant-numeric:normal;font-variant-east-asian:normal;stroke-width:0.271"
         x="145.22313"
         y="92.394325">α</tspan></text>
    <path
       style="fill:#ff6467;fill-opacity:1;stroke:#ff6467;stroke-width:0.225309;stroke-opacity:1"
       id="path14-7-1"
       d="m 145.88033,97.187787 c 0.0755,0.0218 0.15348,0.0304 0.23082,0.0429 0.10146,0.0167 0.20335,0.0285 0.30587,0.036 0.0677,0.003 0.13547,0.002 0.20321,0.003 0.0507,2.2e-4 0.1014,4.4e-4 0.1521,4.4e-4 0.0513,-0.002 0.10265,-4.4e-4 0.15396,1.8e-4 0.0193,0.007 0.0392,0.0105 0.0596,0.0129 0,0 -0.65588,-0.49073 -0.65588,-0.49073 v 0 c -0.022,-0.004 -0.0438,-0.007 -0.0662,-0.004 -0.0511,6.6e-4 -0.10232,0.002 -0.15346,4.4e-4 -0.0498,2.2e-4 -0.0996,9.2e-4 -0.14944,0.001 -0.0653,10e-4 -0.13051,4.4e-4 -0.1957,-0.004 -0.0976,-0.006 -0.19495,-0.0175 -0.29093,-0.0364 -0.0847,-0.0172 -0.16844,-0.0378 -0.25293,-0.0556 z" />
    <path
       style="fill:#464646;fill-opacity:1;stroke:#464646;stroke-width:0.169247;stroke-opacity:1"
       id="path14-7-2-8"
       d="m 145.85621,100.04201 c 0.0567,0.0164 0.11529,0.0228 0.17339,0.0322 0.0762,0.0126 0.15274,0.0214 0.22975,0.027 0.0509,0.002 0.10177,0.002 0.15266,0.002 0.0381,1.6e-4 0.0762,3.3e-4 0.11424,3.3e-4 0.0385,-10e-4 0.0771,-3.3e-4 0.11566,1.3e-4 0.0145,0.005 0.0295,0.008 0.0448,0.01 0,0 -0.49269,-0.368622 -0.49269,-0.368622 v 0 c -0.0165,-0.003 -0.0329,-0.0053 -0.0496,-0.003 -0.0385,4.95e-4 -0.0769,0.0015 -0.11527,3.3e-4 -0.0374,1.65e-4 -0.0748,6.91e-4 -0.11226,7.51e-4 -0.049,7.51e-4 -0.098,3.31e-4 -0.14701,-0.003 -0.0733,-0.0045 -0.14643,-0.01315 -0.21853,-0.02734 -0.0636,-0.01292 -0.12653,-0.02839 -0.19,-0.04177 z" />
    <text
       xml:space="preserve"
       style="font-style:normal;font-variant:normal;font-weight:bold;font-stretch:normal;font-size:2.11554px;line-height:1;font-family:Calibri;-inkscape-font-specification:'Calibri, Bold';font-variant-ligatures:normal;font-variant-caps:normal;font-variant-numeric:normal;font-variant-east-asian:normal;text-align:end;writing-mode:lr-tb;direction:ltr;text-anchor:end;fill:#000000;fill-opacity:1;stroke:#000000;stroke-width:0.203141;stroke-dasharray:none;stroke-dashoffset:0;stroke-opacity:1"
       x="147.66135"
       y="99.197861"
       id="text19-2"><tspan
         sodipodi:role="line"
         id="tspan19-6"
         style="stroke-width:0.203141"
         x="147.66135"
         y="99.197861">x</tspan></text>
    <path
       style="fill:#000000;fill-opacity:0.5;stroke:#464646;stroke-width:0.244215;stroke-dasharray:none;stroke-dashoffset:0;stroke-opacity:0.979508"
       id="path21-0"
       d="m 146.04876,97.446844 c -0.058,0.175269 0.12253,0.429177 0.0782,0.605946 -0.0727,0.222324 0.0255,0.47413 -0.0236,0.698871 -0.0609,0.201611 0.0235,0.38394 0.006,0.588643 -0.0131,0.175707 0.041,0.303391 -0.009,0.554768 -0.0164,0.165348 -0.0145,0.154888 9.1e-4,0.0058 3e-4,-0.175865 -0.01,-0.379068 0.004,-0.554768 0.0178,-0.204703 -0.094,-0.43611 -0.033,-0.637714 0.049,-0.224748 -0.0164,-0.432929 0.0563,-0.655253 0.0444,-0.176761 -0.12522,-0.425216 -0.0672,-0.600472 z"
       sodipodi:nodetypes="ccccccccccc" />
  </g>
</svg>
