<?xml version="1.0" encoding="UTF-8" standalone="no"?>
<!-- Created with Inkscape (http://www.inkscape.org/) -->

<svg
   width="91.605766mm"
   height="80.156654mm"
   viewBox="0 0 91.605766 80.156654"
   version="1.1"
   id="svg1"
   xmlns="http://www.w3.org/2000/svg"
   xmlns:svg="http://www.w3.org/2000/svg">
  <defs
     id="defs1" />
  <g
     id="layer3"
     style="display:inline"
     transform="translate(-110.06666,-36.777082)">
    <path
       style="fill:none;stroke:#646464;stroke-width:0.270999"
       id="path1-3-6"
       d="M 70.323733,49.732666 -20.812652,49.65111 24.826169,-29.234537 Z"
       transform="translate(131.11413,66.282618)" />
    <path
       style="fill:#000000;fill-opacity:1;stroke:#05e972;stroke-width:0.27679;stroke-opacity:1"
       id="path2-8-5"
       d="m 155.92996,37.43 c -0.37832,0.82361 -0.72903,1.65699 -1.0136,2.51595 -0.11629,0.40384 -0.23807,0.81284 -0.25731,1.23508 -0.0208,0.45681 0.0724,0.9014 0.16099,1.34649 0.27646,1.07744 0.38694,2.17813 0.45018,3.28378 0.0957,1.31457 -0.27529,2.34512 -0.82175,3.51908 -0.77434,1.6164 -1.63831,3.1882 -2.51118,4.755258 -0.88682,1.5111 -1.702,3.06319 -2.38347,4.67352 -0.41991,0.99226 -0.49305,1.2423 -0.85204,2.24817 -0.55222,1.64116 -0.8206,3.35169 -1.12399,5.04787 -0.44406,2.48261 -0.16081,0.8334 -0.58375,3.36142 -0.42927,2.52612 -0.65987,5.07533 -0.82841,7.62842 -0.18511,2.17983 -0.23453,4.36637 -0.24057,6.55262 1.2e-4,3.904149 0.0753,7.807609 0.14527,11.710989 0.0125,1.55962 0.0919,3.11968 0.03,4.67892 -0.0468,1.004503 -0.0643,2.009493 -0.1169,3.013743 -0.0309,0.55548 -0.0357,1.11598 -0.11633,1.66787 -0.0802,0.54852 -0.23308,1.08177 -0.38612,1.61384 -0.21198,0.76492 -0.55744,1.4841 -0.82768,2.22883 -0.0709,0.1953 -0.38737,1.15802 -0.44879,1.3439 -0.35727,1.07833 -0.67539,2.16878 -1.08295,3.23039 -0.17638,0.40997 -0.35129,0.81922 -0.53173,1.22743 -0.19161,0.40861 -0.32108,0.84827 -0.57329,1.22712 0,0 8.2e-4,5.3e-4 8.2e-4,5.3e-4 v 0 c 0.2522,-0.37886 0.38168,-0.81851 0.57329,-1.22714 0.18045,-0.4082 0.35536,-0.81745 0.53172,-1.22743 0.40753,-1.06162 0.72565,-2.15209 1.08292,-3.23042 0.0615,-0.18613 0.37784,-1.14833 0.4488,-1.34388 0.27024,-0.74474 0.6157,-1.46392 0.82769,-2.22884 0.15303,-0.53207 0.30598,-1.06533 0.38613,-1.61385 0.0806,-0.5519 0.0854,-1.1124 0.11633,-1.66787 0.0526,-1.00425 0.0702,-2.00925 0.11691,-3.013743 0.0618,-1.55926 -0.0176,-3.11935 -0.0301,-4.67898 -0.0701,-3.90338 -0.14526,-7.80684 -0.14526,-11.710979 0.006,-2.18625 0.0555,-4.37277 0.2406,-6.5526 0.16853,-2.5531 0.39906,-5.10232 0.82834,-7.62845 0.42301,-2.5284 0.13962,-0.87843 0.58377,-3.36141 0.30342,-1.69617 0.57181,-3.40668 1.12402,-5.04784 0.35897,-1.00585 0.43213,-1.25592 0.85203,-2.24816 0.68146,-1.61034 1.49663,-3.16243 2.38347,-4.67351 0.87289,-1.567048 1.73689,-3.138838 2.51124,-4.755248 0.54647,-1.17397 0.91746,-2.20452 0.82177,-3.51911 -0.0632,-1.10565 -0.1737,-2.20635 -0.45017,-3.28379 -0.0886,-0.44508 -0.18179,-0.88966 -0.16099,-1.34645 0.0192,-0.42224 0.141,-0.83124 0.2573,-1.23508 0.28455,-0.85895 0.63525,-1.69234 1.01363,-2.51593 z" />
    <path
       style="fill:#000000;fill-opacity:1;stroke:#05e972;stroke-width:0.280358;stroke-opacity:1"
       id="path3-9-7"
       d="m 156.01258,37.49271 c 2e-5,0.84481 2e-5,1.68962 2e-5,2.53443 -0.0161,0.78306 0.0125,1.5656 0.0942,2.34482 0.1245,0.72584 0.30922,1.44216 0.48308,2.15866 0.31124,1.33216 0.42374,2.69405 0.55497,4.05018 0.19734,1.94819 0.33297,3.90363 0.5874,5.846338 0.062,0.47311 0.13945,0.94424 0.20917,1.41637 0.43418,2.49566 0.92611,4.98158 1.36787,7.47618 0.38631,2.17626 0.42743,4.38605 0.46944,6.58723 0.0364,1.93688 -0.009,3.87563 0.0944,5.81116 0.0604,1.12759 0.15125,2.01009 0.25357,3.13439 0.32129,2.83706 0.92372,5.63752 1.47522,8.439949 0.4243,1.9771 0.73264,3.97313 1.03403,5.96975 0.29061,1.97568 0.4575,3.96575 0.67485,5.9498 0.26071,2.265443 0.56431,4.525553 0.93133,6.777443 0.23632,1.3257 0.41387,2.66084 0.65345,3.9859 0.13028,0.64837 0.20904,1.30365 0.33344,1.95304 0.0831,0.52349 0.18056,1.04437 0.28378,1.56458 0.10029,0.47849 0.12332,0.96648 0.18402,1.45014 0.0394,0.29106 0.0513,0.58417 0.0954,0.87452 0,0 8.4e-4,5.4e-4 8.4e-4,5.4e-4 v 0 c -0.0442,-0.29036 -0.056,-0.58346 -0.0954,-0.87452 -0.0607,-0.48367 -0.0837,-0.97166 -0.18401,-1.45015 -0.10323,-0.52021 -0.2007,-1.0411 -0.28378,-1.56459 -0.12441,-0.64938 -0.20316,-1.30466 -0.33347,-1.95304 -0.23961,-1.32507 -0.41715,-2.66021 -0.6535,-3.98592 -0.36704,-2.25189 -0.67064,-4.512 -0.93134,-6.777453 -0.21734,-1.98404 -0.38423,-3.97411 -0.67483,-5.94978 -0.30139,-1.99664 -0.60974,-3.99267 -1.03407,-5.96977 -0.5515,-2.802439 -1.15395,-5.602899 -1.47524,-8.439959 -0.10234,-1.12441 -0.19318,-2.00668 -0.25357,-3.13439 -0.10366,-1.93552 -0.0581,-3.87427 -0.0944,-5.81114 -0.042,-2.20118 -0.0831,-4.41097 -0.46941,-6.58724 -0.44178,-2.4946 -0.93373,-4.98053 -1.36791,-7.47619 -0.0697,-0.47212 -0.1472,-0.94325 -0.20916,-1.41636 -0.25441,-1.942698 -0.39005,-3.898138 -0.58737,-5.846318 -0.1312,-1.35613 -0.24368,-2.71802 -0.55491,-4.05017 -0.17385,-0.7165 -0.35855,-1.43281 -0.48307,-2.15865 -0.0817,-0.77921 -0.11028,-1.56175 -0.0942,-2.34482 1e-5,-0.8448 0,-1.68961 2e-5,-2.53441 z" />
    <path
       style="fill:#000000;fill-opacity:1;stroke:#05e972;stroke-width:0.278487;stroke-opacity:1"
       id="path4-3-5"
       d="m 145.92687,86.153527 c 0.21752,0.75923 0.35427,1.5389 0.49088,2.31442 0.14028,1.07393 0.26519,2.14667 0.47701,3.21073 0.2865,1.5605 0.60744,3.11393 0.99131,4.65558 0.41285,1.61924 0.80282,3.24311 1.16562,4.873023 0.29015,1.30958 0.56781,2.62102 0.90128,3.92144 0.32845,1.21808 0.61777,2.44515 0.87104,3.67914 0.1639,0.70106 0.21029,1.41641 0.27977,2.12877 0.0487,0.63632 0.18332,1.26174 0.35678,1.87691 0.10372,0.39514 0.32379,0.74029 0.5116,1.10072 0.11276,0.27286 0.2233,0.54749 0.31573,0.82724 0.0645,0.26589 0.16733,0.52442 0.29581,0.76843 0.0894,0.11207 0.0392,0.0624 0.14959,0.14988 0,0 8.4e-4,2.7e-4 8.4e-4,2.7e-4 v 0 c -0.11043,-0.0874 -0.0602,-0.0378 -0.14962,-0.14985 -0.12849,-0.244 -0.23136,-0.50254 -0.29582,-0.76841 -0.0924,-0.27976 -0.20297,-0.55439 -0.31571,-0.82726 -0.18781,-0.36043 -0.4079,-0.70557 -0.51163,-1.10071 -0.17347,-0.61516 -0.30813,-1.24058 -0.35679,-1.87689 -0.0695,-0.71238 -0.11587,-1.42773 -0.27978,-2.1288 -0.25328,-1.23399 -0.54261,-2.46106 -0.87106,-3.67915 -0.33346,-1.30042 -0.61113,-2.61186 -0.90128,-3.92143 -0.36281,-1.629923 -0.75279,-3.253793 -1.16563,-4.873033 -0.38387,-1.54164 -0.70481,-3.09508 -0.9913,-4.65557 -0.21181,-1.06405 -0.33672,-2.1368 -0.47699,-3.21072 -0.1366,-0.77552 -0.27336,-1.55518 -0.49083,-2.31443 z" />
    <path
       style="fill:#000000;fill-opacity:1;stroke:#05e972;stroke-width:0.276304;stroke-opacity:1"
       id="path5-4-4"
       d="m 145.79763,102.13574 c -0.58474,-0.0547 -1.18862,-0.0217 -1.76243,0.11215 -0.15732,0.0367 -0.31049,0.0901 -0.46574,0.13509 -0.73232,0.25602 -1.43165,0.6159 -2.03652,1.11531 -0.12647,0.10442 -0.24332,0.22055 -0.36497,0.33082 -0.97844,0.97388 -1.90537,1.99338 -2.74481,3.09562 -0.59374,0.78891 -0.96417,1.71078 -1.39234,2.59596 -0.40675,0.82879 -1.00188,1.53298 -1.58562,2.23354 -0.41814,0.48612 -0.7912,1.01632 -1.08432,1.59204 -0.18881,0.37084 -0.2977,0.67518 -0.44988,1.06231 -0.13924,0.41488 -0.28586,0.82607 -0.45039,1.23099 0,0 8.5e-4,5.5e-4 8.5e-4,5.5e-4 v 0 c 0.16452,-0.40493 0.31113,-0.81612 0.45037,-1.231 0.1522,-0.38717 0.26106,-0.69143 0.44988,-1.06231 0.29312,-0.57571 0.66619,-1.1059 1.08432,-1.59201 0.58374,-0.70057 1.17887,-1.40477 1.58563,-2.23356 0.42817,-0.88518 0.79859,-1.80704 1.39231,-2.59595 0.83943,-1.10225 1.76635,-2.12175 2.74481,-3.0956 0.12166,-0.11027 0.2385,-0.22639 0.36497,-0.33081 0.60487,-0.4994 1.30419,-0.85928 2.0365,-1.11528 0.15525,-0.045 0.30842,-0.0984 0.46574,-0.13509 0.57381,-0.13378 1.1777,-0.16679 1.76245,-0.1121 z" />
    <path
       style="fill:#000000;fill-opacity:1;stroke:#05e972;stroke-width:0.2814;stroke-opacity:1"
       id="path6-4-1"
       d="m 164.04076,103.80235 c 1.22299,0.51486 2.27422,1.34818 3.2871,2.17578 1.07542,0.90349 2.09285,1.87303 2.98997,2.94629 0.60854,0.70131 1.0704,1.50298 1.48463,2.32357 0.40416,0.79266 0.71325,1.62635 1.09786,2.42778 0.25719,0.52752 0.49867,1.06105 0.77075,1.5814 0.11237,0.18956 0.17493,0.37266 0.20429,0.58697 0,0 8.4e-4,5.5e-4 8.4e-4,5.5e-4 v 0 c -0.0293,-0.21433 -0.0919,-0.39743 -0.20428,-0.58701 -0.27209,-0.52035 -0.51358,-1.05387 -0.77076,-1.5814 -0.38463,-0.80143 -0.69372,-1.63513 -1.09789,-2.42779 -0.41421,-0.8206 -0.87606,-1.62228 -1.48461,-2.32359 -0.89713,-1.07328 -1.91458,-2.04281 -2.99001,-2.94632 -1.01337,-0.82802 -2.06518,-1.66165 -3.2888,-2.17675 z" />
    <circle
       style="fill:#05e972;fill-opacity:0.5;stroke:#05e972;stroke-width:0.270999;stroke-opacity:1"
       id="path8-6-2"
       cx="146.21185"
       cy="102.36246"
       r="0.80203843" />
    <circle
       style="fill:#05e972;fill-opacity:0.5;stroke:#05e972;stroke-width:0.270999;stroke-opacity:1"
       id="path8-4-0-1"
       cx="146.19405"
       cy="86.425781"
       r="0.80203843" />
    <circle
       style="fill:#05e972;fill-opacity:0.5;stroke:#05e972;stroke-width:0.270999;stroke-opacity:1"
       id="path8-7-6-4"
       cx="164.14182"
       cy="103.68417"
       r="0.80203843" />
    <circle
       style="fill:#05e972;fill-opacity:0.5;stroke:#05e972;stroke-width:0.270999;stroke-opacity:1"
       id="path8-2-6-6"
       cx="133.42435"
       cy="115.9962"
       r="0.80203843" />
    <circle
       style="fill:#05e972;fill-opacity:0.5;stroke:#05e972;stroke-width:0.270999;stroke-opacity:1"
       id="path8-42-1-0"
       cx="142.13371"
       cy="115.76689"
       r="0.80203843" />
    <circle
       style="fill:#05e972;fill-opacity:0.5;stroke:#05e972;stroke-width:0.270999;stroke-opacity:1"
       id="path8-1-8-7"
       cx="152.60207"
       cy="115.84332"
       r="0.80203843" />
    <circle
       style="fill:#05e972;fill-opacity:0.5;stroke:#05e972;stroke-width:0.270999;stroke-opacity:1"
       id="path8-76-4-1"
       cx="165.86929"
       cy="115.73529"
       r="0.80203843" />
    <circle
       style="fill:#05e972;fill-opacity:0.5;stroke:#05e972;stroke-width:0.270999;stroke-opacity:1"
       id="path8-27-9-7"
       cx="173.98604"
       cy="115.84822"
       r="0.80203843" />
    <path
       style="fill:#ff6467;fill-opacity:0.5;stroke:#ff6467;stroke-width:0.232829;stroke-opacity:1"
       id="path9-6-7"
       d="m 146.11739,86.592587 c 0.005,0.19586 -0.005,0.39126 -0.018,0.5867 -0.009,0.16976 -0.0258,0.33918 -0.0493,0.50786 -0.028,0.19569 -0.0727,0.38909 -0.10588,0.58409 -0.0707,0.32163 0.0817,0.17866 0.0162,0.50123 -0.0674,0.31487 0.0636,0.58631 -0.0119,0.89981 -0.068,0.30011 0.18152,0.65123 0.0677,0.93965 0.013,1.29847 0.0226,1.59841 -0.0471,2.80302 0.11811,0.40609 0.28225,1.26321 0.0776,2.56975 -0.0621,0.54309 0.059,0.56425 0.10473,1.02198 h -0.008 c -0.19801,1e-4 0.0783,-0.53954 -0.10401,-1.12954 0.21273,-1.4163 -0.15997,-1.93276 -0.0468,-2.43865 0.0199,-1.74385 -0.0503,-2.07874 -0.0455,-2.79533 0.11382,-0.28842 -0.0663,-0.60097 0.002,-0.90109 0.0755,-0.31351 -0.0247,-0.64665 0.0427,-0.96153 0.0655,-0.32256 -0.11778,-0.1873 -0.0471,-0.50892 0.0332,-0.19501 0.078,-0.38841 0.1059,-0.58409 0.0235,-0.16868 0.0403,-0.3381 0.0493,-0.50787 0.0133,-0.19543 0.023,-0.39084 0.0181,-0.58669 z" />
    <path
       style="fill:#ff6467;fill-opacity:0.5;stroke:#ff6467;stroke-width:0.237375;stroke-dasharray:0.237375, 0.712125;stroke-dashoffset:0;stroke-opacity:1"
       id="path12-3-7"
       d="m 145.94688,86.524237 c -1e-5,-0.3618 -1e-5,-0.723599 -1e-5,-1.085399 l 1e-5,-0.74463 c -0.006,-0.16614 -0.006,-0.33012 0.0499,-0.49144 0.0663,-0.17168 -0.11022,-0.35685 -0.0717,-0.5338 0.0351,-0.19303 0.0169,-0.38428 0.0392,-0.57869 0.0206,-0.22202 -0.0705,-0.46019 -0.069,-0.68266 3.9e-4,-0.15528 0.0922,-1.00078 0.0922,-3.31382 0.0109,-0.3308 0.2711,-0.78325 0.22042,-1.11104 -0.0887,-0.44614 -0.12772,-0.89613 -0.15208,-1.34662 -0.0259,-0.44074 0.29644,-0.69473 0.23626,-1.13336 -0.0446,-0.28461 0.007,-0.58663 0.002,-0.87293 -0.0166,-0.36836 0.11858,-0.90548 0.14454,-1.27312 0.0573,-0.42305 0.0222,-0.61656 0.0658,-1.04041 0.0472,-0.37007 0.10421,-0.24757 0.11757,-0.61916 0.0455,-1.55277 0.50352,-2.54077 0.50785,-2.57252 0.4452,-3.2116 0.1686,-0.94264 0.34519,-2.22702 0.65838,-4.73939 0.0709,-0.61152 0.25374,-2.38951 0.10369,-0.56243 0.28636,-1.04744 0.39464,-1.60905 0.0669,-0.2731 0.46829,-1.37949 0.49198,-1.6568 0.003,-0.3301 0.47366,-1.07155 0.53304,-1.39731 0.86918,-2.91253 1.59621,-3.20271 1.59992,-3.26356 0.005,-0.32637 0.4735,-1.2072 0.71314,-1.47334 0.16165,-0.17758 0.34179,-1.04449 0.56614,-1.17688 1.03501,-0.58883 0.19286,-0.14043 1.0114,-1.993814 1.90373,-3.79996 1.56804,-3.023464 1.88476,-4.105691 0.73044,-2.076135 -0.008,-0.613836 0.39348,-2.492494 0.20737,-0.306488 -0.49745,-0.132282 -0.40229,-0.466107 0.18807,-0.680089 -0.23746,-1.368544 -0.0988,-2.055294 0.10172,-0.489999 -0.12692,-0.899016 -0.0773,-1.393919 0.0359,-0.215236 -0.0461,-0.506134 -0.1061,-0.715952 -0.0807,-0.219435 0.0962,-0.735263 0.0669,-0.961959 -0.0285,-0.30498 0.32721,-0.481617 0.3551,-0.786422 0.0165,-0.257543 0.26398,-0.390449 0.35509,-0.637373 0.0791,-0.238285 0.33904,-0.427449 0.40465,-0.668273 l -8e-4,-3.56e-4 v 0 c -0.0656,0.240823 -0.31011,0.406615 -0.38922,0.644891 -0.0911,0.246932 -0.33862,0.391533 -0.35508,0.649083 -0.028,0.304805 -0.3374,0.516518 -0.30883,0.821497 0.0292,0.226704 -0.13224,0.69577 -0.0515,0.915205 0.06,0.20981 0.0958,0.477327 0.0598,0.692563 -0.0495,0.494903 0.19453,0.919834 0.0928,1.409841 -0.13865,0.686742 0.2406,1.406038 0.0525,2.086119 -0.0952,0.333818 0.54797,0.221292 0.34061,0.52778 -0.27598,0.545637 0.66602,0.299472 -0.25465,2.419119 -0.45525,1.178669 -0.36786,0.613719 -1.09799,2.726991 -0.43848,1.034279 -0.68938,0.992521 -0.83307,1.421235 -0.81603,1.84757 0.0357,1.2416 -1.04223,1.85495 -0.22435,0.13242 -0.45076,1.20683 -0.61241,1.38441 -0.23965,0.26615 -0.56923,1.03204 -0.57435,1.35843 -0.99108,0.81374 -0.67736,0.34223 -1.5845,3.2944 -0.0594,0.32575 -0.65373,1.08264 -0.65643,1.41274 -0.0237,0.2773 -0.33257,1.33743 -0.39944,1.61051 -0.10377,0.56246 -0.32626,1.32344 -0.42549,1.88669 -0.15168,1.47449 0.31195,-2.27751 -0.31545,2.239 -0.13659,0.99358 0.0637,-0.79254 -0.32974,2.04569 0.0422,0.12243 -0.47166,1.00738 -0.50788,2.5959 -0.0134,0.37159 -0.055,0.29537 -0.10214,0.66543 -0.0436,0.42385 -0.008,0.64821 -0.0658,1.07127 -0.026,0.36763 -0.23823,0.82763 -0.22166,1.19599 0.006,0.28631 0.0618,0.65001 0.10639,0.93463 0.0602,0.43863 -0.30837,0.6772 -0.28252,1.11794 0.0244,0.45048 0.0633,0.90048 0.15206,1.34662 0.0507,0.32779 -0.22489,0.76482 -0.23583,1.09561 -10e-4,1.15602 -0.0904,2.17322 -0.0922,3.32924 -0.002,0.22247 0.13582,0.44521 0.11529,0.66723 -0.0223,0.1944 -0.035,0.4165 -0.0701,0.60953 -0.0385,0.17694 0.13802,0.34669 0.0717,0.51838 -0.0563,0.16132 -0.0556,0.32531 -0.0499,0.49145 0,0.24822 0,0.49643 0,0.74463 1e-5,0.3618 1e-5,0.723599 -1e-5,1.085399 z" />
    <path
       style="fill:#ff6467;fill-opacity:1;stroke:#ff6467;stroke-width:0.225309;stroke-opacity:1"
       id="path14-3-8-7"
       d="m 145.90416,86.556947 c 0.0755,0.0218 0.15348,0.0304 0.23082,0.0429 0.10147,0.0167 0.20335,0.0285 0.30587,0.036 0.0677,0.003 0.13547,0.002 0.20321,0.003 0.0507,2.2e-4 0.1014,4.4e-4 0.1521,4.4e-4 0.0513,-0.002 0.10265,-4.4e-4 0.15396,1.9e-4 0.0193,0.007 0.0393,0.0105 0.0596,0.0129 0,0 -0.65588,-0.49073 -0.65588,-0.49073 v 0 c -0.022,-0.004 -0.0438,-0.007 -0.0662,-0.004 -0.0511,6.6e-4 -0.10232,0.002 -0.15346,4.4e-4 -0.0498,2.2e-4 -0.0996,9.1e-4 -0.14944,0.001 -0.0653,0.001 -0.13051,4.4e-4 -0.1957,-0.004 -0.0976,-0.006 -0.19494,-0.0175 -0.29093,-0.0364 -0.0847,-0.0172 -0.16844,-0.0378 -0.25293,-0.0556 z" />
    <path
       style="fill:#ff6467;fill-opacity:1;stroke:#ff6467;stroke-width:0.225309;stroke-opacity:1"
       id="path14-34-8-3"
       d="m 155.72213,37.66565 c 0.0755,0.0218 0.15348,0.0304 0.23082,0.0429 0.10147,0.0167 0.20335,0.0285 0.30587,0.036 0.0676,0.003 0.13547,0.002 0.20322,0.003 0.0507,2.2e-4 0.10139,4.4e-4 0.15209,4.4e-4 0.0513,-0.002 0.10265,-4.4e-4 0.15396,1.8e-4 0.0193,0.007 0.0393,0.0105 0.0596,0.0129 0,0 -0.65588,-0.49073 -0.65588,-0.49073 v 0 c -0.022,-0.004 -0.0438,-0.007 -0.0661,-0.004 -0.0512,6.6e-4 -0.10231,0.002 -0.15346,4.4e-4 -0.0498,2.2e-4 -0.0996,9.1e-4 -0.14944,0.001 -0.0653,10e-4 -0.13051,4.4e-4 -0.1957,-0.004 -0.0976,-0.006 -0.19494,-0.0175 -0.29093,-0.0364 -0.0847,-0.0172 -0.16844,-0.0378 -0.25293,-0.0556 z" />
    <text
       xml:space="preserve"
       style="font-style:normal;font-variant:normal;font-weight:bold;font-stretch:normal;font-size:3.52778px;line-height:1;font-family:Calibri;-inkscape-font-specification:'Calibri, Bold';font-variant-ligatures:normal;font-variant-caps:normal;font-variant-numeric:normal;font-variant-east-asian:normal;text-align:end;writing-mode:lr-tb;direction:ltr;text-anchor:end;fill:#ff6467;fill-opacity:1;stroke:#ff6467;stroke-width:0.270999;stroke-dasharray:none;stroke-dashoffset:0;stroke-opacity:1"
       x="145.85944"
       y="68.46386"
       id="text14-2-3"><tspan
         id="tspan14-9-5"
         style="font-style:normal;font-variant:normal;font-weight:bold;font-stretch:normal;font-size:3.52778px;font-family:Calibri;-inkscape-font-specification:'Calibri, Bold';font-variant-ligatures:normal;font-variant-caps:normal;font-variant-numeric:normal;font-variant-east-asian:normal;fill:#ff6467;fill-opacity:1;stroke-width:0.271;stroke-dasharray:none;stroke-dashoffset:0"
         x="145.85944"
         y="68.46386">δ<tspan
   style="font-style:normal;font-variant:normal;font-weight:bold;font-stretch:normal;font-size:2.11667px;font-family:Sans;-inkscape-font-specification:'Sans, Bold';font-variant-ligatures:normal;font-variant-caps:normal;font-variant-numeric:normal;font-variant-east-asian:normal;baseline-shift:sub;fill:#ff6467;fill-opacity:1;stroke-dasharray:none;stroke-dashoffset:0"
   id="tspan15-1-9">0</tspan></tspan></text>
    <text
       xml:space="preserve"
       style="font-style:normal;font-variant:normal;font-weight:bold;font-stretch:normal;font-size:2.82222px;line-height:1;font-family:Calibri;-inkscape-font-specification:'Calibri, Bold';font-variant-ligatures:normal;font-variant-caps:normal;font-variant-numeric:normal;font-variant-east-asian:normal;text-align:end;writing-mode:lr-tb;direction:ltr;text-anchor:end;fill:#ff6467;fill-opacity:1;stroke:#ff6467;stroke-width:0.270999;stroke-dasharray:none;stroke-dashoffset:0;stroke-opacity:1"
       x="145.22313"
       y="92.394325"
       id="text17-9-9"><tspan
         id="tspan17-8-8"
         style="font-style:normal;font-variant:normal;font-weight:bold;font-stretch:normal;font-size:2.82222px;font-family:Calibri;-inkscape-font-specification:'Calibri, Bold';font-variant-ligatures:normal;font-variant-caps:normal;font-variant-numeric:normal;font-variant-east-asian:normal;stroke-width:0.271"
         x="145.22313"
         y="92.394325">α</tspan></text>
    <path
       style="fill:#ff6467;fill-opacity:1;stroke:#ff6467;stroke-width:0.225309;stroke-opacity:1"
       id="path14-7-1"
       d="m 145.88033,97.187787 c 0.0755,0.0218 0.15348,0.0304 0.23082,0.0429 0.10146,0.0167 0.20335,0.0285 0.30587,0.036 0.0677,0.003 0.13547,0.002 0.20321,0.003 0.0507,2.2e-4 0.1014,4.4e-4 0.1521,4.4e-4 0.0513,-0.002 0.10265,-4.4e-4 0.15396,1.8e-4 0.0193,0.007 0.0392,0.0105 0.0596,0.0129 0,0 -0.65588,-0.49073 -0.65588,-0.49073 v 0 c -0.022,-0.004 -0.0438,-0.007 -0.0662,-0.004 -0.0511,6.6e-4 -0.10232,0.002 -0.15346,4.4e-4 -0.0498,2.2e-4 -0.0996,9.2e-4 -0.14944,0.001 -0.0653,10e-4 -0.13051,4.4e-4 -0.1957,-0.004 -0.0976,-0.006 -0.19495,-0.0175 -0.29093,-0.0364 -0.0847,-0.0172 -0.16844,-0.0378 -0.25293,-0.0556 z" />
    <path
       style="fill:#464646;fill-opacity:1;stroke:#464646;stroke-width:0.169247;stroke-opacity:1"
       id="path14-7-2-8"
       d="m 145.85621,100.04201 c 0.0567,0.0164 0.11529,0.0228 0.17339,0.0322 0.0762,0.0126 0.15274,0.0214 0.22975,0.027 0.0509,0.002 0.10177,0.002 0.15266,0.002 0.0381,1.6e-4 0.0762,3.3e-4 0.11424,3.3e-4 0.0385,-10e-4 0.0771,-3.3e-4 0.11566,1.3e-4 0.0145,0.005 0.0295,0.008 0.0448,0.01 0,0 -0.49269,-0.368622 -0.49269,-0.368622 v 0 c -0.0165,-0.003 -0.0329,-0.0053 -0.0496,-0.003 -0.0385,4.95e-4 -0.0769,0.0015 -0.11527,3.3e-4 -0.0374,1.65e-4 -0.0748,6.91e-4 -0.11226,7.51e-4 -0.049,7.51e-4 -0.098,3.31e-4 -0.14701,-0.003 -0.0733,-0.0045 -0.14643,-0.01315 -0.21853,-0.02734 -0.0636,-0.01292 -0.12653,-0.02839 -0.19,-0.04177 z" />
    <text
       xml:space="preserve"
       style="font-style:normal;font-variant:normal;font-weight:bold;font-stretch:normal;font-size:2.11554px;line-height:1;font-family:Calibri;-inkscape-font-specification:'Calibri, Bold';font-variant-ligatures:normal;font-variant-caps:normal;font-variant-numeric:normal;font-variant-east-asian:normal;text-align:end;writing-mode:lr-tb;direction:ltr;text-anchor:end;fill:#000000;fill-opacity:1;stroke:#000000;stroke-width:0.203141;stroke-dasharray:none;stroke-dashoffset:0;stroke-opacity:1"
       x="147.66135"
       y="99.197861"
       id="text19-2"><tspan
         id="tspan19-6"
         style="stroke-width:0.203141"
         x="147.66135"
         y="99.197861">x</tspan></text>
    <path
       style="fill:#000000;fill-opacity:0.5;stroke:#464646;stroke-width:0.244215;stroke-dasharray:none;stroke-dashoffset:0;stroke-opacity:0.979508"
       id="path21-0"
       d="m 146.04876,97.446844 c -0.058,0.175269 0.12253,0.429177 0.0782,0.605946 -0.0727,0.222324 0.0255,0.47413 -0.0236,0.698871 -0.0609,0.201611 0.0235,0.38394 0.006,0.588643 -0.0131,0.175707 0.041,0.303391 -0.009,0.554768 -0.0164,0.165348 -0.0145,0.154888 9.1e-4,0.0058 3e-4,-0.175865 -0.01,-0.379068 0.004,-0.554768 0.0178,-0.204703 -0.094,-0.43611 -0.033,-0.637714 0.049,-0.224748 -0.0164,-0.432929 0.0563,-0.655253 0.0444,-0.176761 -0.12522,-0.425216 -0.0672,-0.600472 z" />
  </g>
</svg>
