<?xml version="1.0" encoding="UTF-8" standalone="no"?>
<!-- Created with Inkscape (http://www.inkscape.org/) -->

<svg
   width="91.605766mm"
   height="80.156654mm"
   viewBox="0 0 91.605766 80.156654"
   version="1.1"
   id="svg1"
   xmlns="http://www.w3.org/2000/svg"
   xmlns:svg="http://www.w3.org/2000/svg">
  <defs
     id="defs1" />
  <g
     id="layer2"
     style="display:inline"
     transform="translate(-0.54560534,-83.927234)">
    <path
       style="fill:none;stroke:#646464;stroke-width:0.270999"
       id="path1-3"
       d="M 70.323733,49.732666 -20.812652,49.65111 24.826169,-29.234537 Z"
       transform="translate(21.593071,113.43277)" />
    <path
       style="fill:#000000;fill-opacity:1;stroke:#05e972;stroke-width:0.27679;stroke-opacity:1"
       id="path2-8"
       d="m 46.408905,84.580152 c -0.378324,0.82361 -0.729033,1.65699 -1.0136,2.51595 -0.116299,0.40384 -0.238071,0.81284 -0.25731,1.23508 -0.02083,0.45681 0.07239,0.9014 0.160981,1.34649 0.276461,1.07744 0.386941,2.17813 0.450182,3.28378 0.09569,1.31457 -0.275288,2.34512 -0.821743,3.51908 -0.774343,1.6164 -1.638319,3.1882 -2.511185,4.755258 -0.886823,1.5111 -1.701995,3.06319 -2.383467,4.67352 -0.41991,0.99226 -0.493055,1.2423 -0.852038,2.24817 -0.552221,1.64116 -0.820605,3.35169 -1.123998,5.04787 -0.44406,2.48261 -0.160807,0.8334 -0.583747,3.36142 -0.429273,2.52612 -0.659869,5.07533 -0.828414,7.62842 -0.18511,2.17983 -0.234521,4.36637 -0.240566,6.55262 1.18e-4,3.90415 0.07525,7.80761 0.145273,11.71099 0.0125,1.55962 0.09186,3.11968 0.03,4.67892 -0.04676,1.0045 -0.06429,2.00949 -0.116905,3.01374 -0.03091,0.55548 -0.03568,1.11598 -0.116324,1.66787 -0.08015,0.54852 -0.233088,1.08177 -0.386123,1.61384 -0.211978,0.76492 -0.557442,1.4841 -0.827682,2.22883 -0.07087,0.1953 -0.38737,1.15802 -0.448792,1.3439 -0.357263,1.07833 -0.675388,2.16878 -1.082951,3.23039 -0.176374,0.40997 -0.351286,0.81922 -0.53173,1.22743 -0.191609,0.40861 -0.321071,0.84827 -0.573284,1.22712 0,0 8.2e-4,5.3e-4 8.2e-4,5.3e-4 v 0 c 0.252196,-0.37886 0.381678,-0.81851 0.57329,-1.22714 0.180444,-0.4082 0.355357,-0.81745 0.531716,-1.22743 0.407535,-1.06162 0.725654,-2.15209 1.082919,-3.23042 0.06151,-0.18613 0.377843,-1.14833 0.448802,-1.34388 0.270246,-0.74474 0.6157,-1.46392 0.82769,-2.22884 0.153035,-0.53207 0.305984,-1.06533 0.386131,-1.61385 0.08065,-0.5519 0.08541,-1.1124 0.116327,-1.66787 0.05261,-1.00425 0.07017,-2.00925 0.116914,-3.01374 0.06185,-1.55926 -0.01756,-3.11935 -0.0301,-4.67898 -0.0701,-3.90338 -0.145262,-7.80684 -0.145265,-11.71098 0.0061,-2.18625 0.05551,-4.37277 0.240609,-6.5526 0.168521,-2.5531 0.39906,-5.10232 0.828334,-7.62845 0.423012,-2.5284 0.139622,-0.87843 0.583775,-3.36141 0.303413,-1.69617 0.571803,-3.40668 1.124017,-5.04784 0.358973,-1.00585 0.432131,-1.25592 0.852028,-2.24816 0.68146,-1.61034 1.496627,-3.16243 2.38347,-4.67351 0.87289,-1.567048 1.736887,-3.138838 2.511237,-4.755248 0.546476,-1.17397 0.917465,-2.20452 0.821773,-3.51911 -0.06324,-1.10565 -0.173702,-2.20635 -0.450169,-3.28379 -0.08859,-0.44508 -0.181792,-0.88966 -0.160986,-1.34645 0.01923,-0.42224 0.141001,-0.83124 0.257292,-1.23508 0.284556,-0.85895 0.635257,-1.69234 1.013639,-2.51593 z" />
    <path
       style="fill:#000000;fill-opacity:1;stroke:#05e972;stroke-width:0.280358;stroke-opacity:1"
       id="path3-9"
       d="m 46.491525,84.642862 c 2e-5,0.84481 1.7e-5,1.68962 2e-5,2.53443 -0.01609,0.78306 0.01248,1.5656 0.09418,2.34482 0.124499,0.72584 0.309211,1.44216 0.483071,2.15866 0.311248,1.33216 0.423747,2.69405 0.554969,4.05018 0.197343,1.94819 0.33298,3.90363 0.587403,5.846338 0.06196,0.47311 0.139448,0.94424 0.209171,1.41637 0.434185,2.49566 0.926111,4.98158 1.367867,7.47618 0.386316,2.17626 0.427431,4.38605 0.46944,6.58723 0.03636,1.93688 -0.0092,3.87563 0.09443,5.81116 0.06039,1.12759 0.151251,2.01009 0.253576,3.13439 0.321286,2.83706 0.923714,5.63752 1.475214,8.43995 0.424307,1.9771 0.732642,3.97313 1.03403,5.96975 0.290618,1.97568 0.457506,3.96575 0.674855,5.9498 0.260712,2.26544 0.564309,4.52555 0.93133,6.77744 0.236321,1.3257 0.413868,2.66084 0.653446,3.9859 0.130288,0.64837 0.209044,1.30365 0.333445,1.95304 0.08309,0.52349 0.180563,1.04437 0.283782,1.56458 0.100287,0.47849 0.123317,0.96648 0.184016,1.45014 0.03941,0.29106 0.05132,0.58417 0.09545,0.87452 0,0 8.39e-4,5.4e-4 8.39e-4,5.4e-4 v 0 c -0.04415,-0.29036 -0.05604,-0.58346 -0.09545,-0.87452 -0.06071,-0.48367 -0.08374,-0.97166 -0.184014,-1.45015 -0.103221,-0.52021 -0.200692,-1.0411 -0.283779,-1.56459 -0.124407,-0.64938 -0.203154,-1.30466 -0.333461,-1.95304 -0.23961,-1.32507 -0.417156,-2.66021 -0.653503,-3.98592 -0.367047,-2.25189 -0.670642,-4.512 -0.931338,-6.77745 -0.217345,-1.98404 -0.38423,-3.97411 -0.674836,-5.94978 -0.301392,-1.99664 -0.609741,-3.99267 -1.034067,-5.96977 -0.551506,-2.80244 -1.15395,-5.6029 -1.475242,-8.43996 -0.102336,-1.12441 -0.193178,-2.00668 -0.253571,-3.13439 -0.103658,-1.93552 -0.05807,-3.87427 -0.09442,-5.81114 -0.042,-2.20118 -0.08308,-4.41097 -0.469409,-6.58724 -0.441777,-2.4946 -0.933733,-4.98053 -1.367906,-7.47619 -0.06972,-0.47212 -0.147205,-0.94325 -0.20916,-1.41636 -0.25441,-1.942698 -0.39005,-3.898138 -0.587369,-5.846318 -0.131205,-1.35613 -0.243686,-2.71802 -0.554911,-4.05017 -0.173856,-0.7165 -0.358557,-1.43281 -0.483069,-2.15865 -0.0817,-0.77921 -0.110282,-1.56175 -0.09421,-2.34482 2e-6,-0.8448 0,-1.68961 1.9e-5,-2.53441 z" />
    <path
       style="fill:#000000;fill-opacity:1;stroke:#05e972;stroke-width:0.278487;stroke-opacity:1"
       id="path4-3"
       d="m 36.405807,133.30368 c 0.217525,0.75923 0.354277,1.5389 0.490885,2.31442 0.140274,1.07393 0.265189,2.14667 0.477007,3.21073 0.286504,1.5605 0.607443,3.11393 0.991316,4.65558 0.412843,1.61924 0.802819,3.24311 1.165618,4.87302 0.290145,1.30958 0.567812,2.62102 0.901275,3.92144 0.32845,1.21808 0.617774,2.44515 0.871045,3.67914 0.163898,0.70106 0.210285,1.41641 0.279763,2.12877 0.04866,0.63632 0.183326,1.26174 0.356784,1.87691 0.103723,0.39514 0.323791,0.74029 0.511601,1.10072 0.112758,0.27286 0.223296,0.54749 0.315727,0.82724 0.06446,0.26589 0.167329,0.52442 0.295808,0.76843 0.08941,0.11207 0.03919,0.0624 0.149592,0.14988 0,0 8.38e-4,2.7e-4 8.38e-4,2.7e-4 v 0 c -0.110421,-0.0874 -0.06019,-0.0378 -0.149611,-0.14985 -0.128494,-0.244 -0.23136,-0.50254 -0.29582,-0.76841 -0.09242,-0.27976 -0.202971,-0.55439 -0.315718,-0.82726 -0.187804,-0.36043 -0.407901,-0.70557 -0.511629,-1.10071 -0.173463,-0.61516 -0.308127,-1.24058 -0.356786,-1.87689 -0.06949,-0.71238 -0.115875,-1.42773 -0.279783,-2.1288 -0.25328,-1.23399 -0.542609,-2.46106 -0.871058,-3.67915 -0.333459,-1.30042 -0.611134,-2.61186 -0.901284,-3.92143 -0.362808,-1.62992 -0.752787,-3.25379 -1.165627,-4.87303 -0.38387,-1.54164 -0.70481,-3.09508 -0.991299,-4.65557 -0.211813,-1.06405 -0.336717,-2.1368 -0.476994,-3.21072 -0.136601,-0.77552 -0.273361,-1.55518 -0.490831,-2.31443 z" />
    <path
       style="fill:#000000;fill-opacity:1;stroke:#05e972;stroke-width:0.276304;stroke-opacity:1"
       id="path5-4"
       d="m 36.276572,149.28589 c -0.584745,-0.0547 -1.188625,-0.0217 -1.762428,0.11215 -0.157324,0.0367 -0.310497,0.0901 -0.465745,0.13509 -0.732319,0.25602 -1.431647,0.6159 -2.036521,1.11531 -0.126469,0.10442 -0.243316,0.22055 -0.364972,0.33082 -0.978439,0.97388 -1.905367,1.99338 -2.744806,3.09562 -0.593737,0.78891 -0.96417,1.71078 -1.392337,2.59596 -0.406752,0.82879 -1.001885,1.53298 -1.58562,2.23354 -0.418143,0.48612 -0.7912,1.01632 -1.084321,1.59204 -0.188809,0.37084 -0.297697,0.67518 -0.449885,1.06231 -0.139238,0.41488 -0.285859,0.82607 -0.450385,1.23099 0,0 8.52e-4,5.5e-4 8.52e-4,5.5e-4 v 0 c 0.164517,-0.40493 0.31113,-0.81612 0.450364,-1.231 0.152198,-0.38717 0.26106,-0.69143 0.449883,-1.06231 0.293117,-0.57571 0.666186,-1.1059 1.084322,-1.59201 0.583737,-0.70057 1.17887,-1.40477 1.585627,-2.23356 0.428167,-0.88518 0.798594,-1.80704 1.392313,-2.59595 0.839426,-1.10225 1.766348,-2.12175 2.744811,-3.0956 0.121657,-0.11027 0.2385,-0.22639 0.364967,-0.33081 0.604872,-0.4994 1.30419,-0.85928 2.036501,-1.11528 0.155247,-0.045 0.308422,-0.0984 0.465741,-0.13509 0.573808,-0.13378 1.177695,-0.16679 1.762445,-0.1121 z" />
    <path
       style="fill:#000000;fill-opacity:1;stroke:#05e972;stroke-width:0.2814;stroke-opacity:1"
       id="path6-4"
       d="m 54.519701,150.9525 c 1.222994,0.51486 2.274221,1.34818 3.287096,2.17578 1.07542,0.90349 2.092856,1.87303 2.989976,2.94629 0.60854,0.70131 1.070399,1.50298 1.484624,2.32357 0.404163,0.79266 0.713256,1.62635 1.097866,2.42778 0.257186,0.52752 0.498663,1.06105 0.770752,1.5814 0.112366,0.18956 0.174925,0.37266 0.204286,0.58697 0,0 8.35e-4,5.5e-4 8.35e-4,5.5e-4 v 0 c -0.02935,-0.21433 -0.0919,-0.39743 -0.204277,-0.58701 -0.272092,-0.52035 -0.513575,-1.05387 -0.770761,-1.5814 -0.384627,-0.80143 -0.693718,-1.63513 -1.097883,-2.42779 -0.414217,-0.8206 -0.876068,-1.62228 -1.484616,-2.32359 -0.897125,-1.07328 -1.914577,-2.04281 -2.990004,-2.94632 -1.013378,-0.82802 -2.065189,-1.66165 -3.288804,-2.17675 z" />
    <circle
       style="fill:#05e972;fill-opacity:0.5;stroke:#05e972;stroke-width:0.270999;stroke-opacity:1"
       id="path8-6"
       cx="36.690784"
       cy="149.51263"
       r="0.80203843" />
    <circle
       style="fill:#000000;fill-opacity:0.5;stroke:#464646;stroke-width:0.270999;stroke-opacity:0.979508"
       id="path8-6-5"
       cx="36.593681"
       cy="144.57002"
       r="0.80203843" />
    <circle
       style="fill:#000000;fill-opacity:0.5;stroke:#464646;stroke-width:0.270999;stroke-opacity:0.979508"
       id="path8-6-5-9"
       cx="18.162085"
       cy="162.72882"
       r="0.80203843" />
    <circle
       style="fill:#05e972;fill-opacity:0.5;stroke:#05e972;stroke-width:0.270999;stroke-opacity:1"
       id="path8-4-0"
       cx="36.672981"
       cy="133.57593"
       r="0.80203843" />
    <circle
       style="fill:#05e972;fill-opacity:0.5;stroke:#05e972;stroke-width:0.270999;stroke-opacity:1"
       id="path8-7-6"
       cx="54.620758"
       cy="150.83432"
       r="0.80203843" />
    <circle
       style="fill:#05e972;fill-opacity:0.5;stroke:#05e972;stroke-width:0.270999;stroke-opacity:1"
       id="path8-2-6"
       cx="23.903286"
       cy="163.14635"
       r="0.80203843" />
    <circle
       style="fill:#05e972;fill-opacity:0.5;stroke:#05e972;stroke-width:0.270999;stroke-opacity:1"
       id="path8-42-1"
       cx="32.612656"
       cy="162.91704"
       r="0.80203843" />
    <circle
       style="fill:#05e972;fill-opacity:0.5;stroke:#05e972;stroke-width:0.270999;stroke-opacity:1"
       id="path8-1-8"
       cx="43.081005"
       cy="162.99347"
       r="0.80203843" />
    <circle
       style="fill:#05e972;fill-opacity:0.5;stroke:#05e972;stroke-width:0.270999;stroke-opacity:1"
       id="path8-76-4"
       cx="56.348225"
       cy="162.88544"
       r="0.80203843" />
    <circle
       style="fill:#05e972;fill-opacity:0.5;stroke:#05e972;stroke-width:0.270999;stroke-opacity:1"
       id="path8-27-9"
       cx="64.464973"
       cy="162.99837"
       r="0.80203843" />
    <path
       style="fill:#ff6467;fill-opacity:0.5;stroke:#ff6467;stroke-width:0.232829;stroke-opacity:1"
       id="path9-6"
       d="m 36.596331,133.74274 c 0.0049,0.19586 -0.0048,0.39126 -0.01805,0.5867 -0.009,0.16976 -0.02585,0.33918 -0.04931,0.50786 -0.02796,0.19569 -0.07265,0.38909 -0.105879,0.58409 -0.07072,0.32163 0.08169,0.17866 0.01624,0.50123 -0.06738,0.31487 0.06357,0.58631 -0.01192,0.89981 -0.06804,0.30011 0.18152,0.65123 0.06771,0.93965 0.01296,1.29847 0.02262,1.59841 -0.04706,2.80302 0.118111,0.40609 0.282251,1.26321 0.0776,2.56975 -0.06211,0.54309 0.05902,0.56425 0.104729,1.02198 h -0.0077 c -0.198007,10e-5 0.07829,-0.53954 -0.104006,-1.12954 0.212722,-1.4163 -0.159978,-1.93276 -0.04677,-2.43865 0.01994,-1.74385 -0.05033,-2.07874 -0.0455,-2.79533 0.113818,-0.28842 -0.06631,-0.60097 0.0017,-0.90109 0.07549,-0.31351 -0.02465,-0.64665 0.04274,-0.96153 0.06546,-0.32256 -0.11778,-0.1873 -0.04706,-0.50892 0.03323,-0.19501 0.07795,-0.38841 0.105893,-0.58409 0.02348,-0.16868 0.04033,-0.3381 0.04931,-0.50787 0.01329,-0.19543 0.02296,-0.39084 0.01807,-0.58669 z" />
    <path
       style="fill:#ff6467;fill-opacity:0.5;stroke:#ff6467;stroke-width:0.237375;stroke-dasharray:0.237375, 0.712125;stroke-dashoffset:0;stroke-opacity:1"
       id="path12-3"
       d="m 36.425822,133.67439 c -1.3e-5,-0.3618 -10e-6,-0.7236 -7e-6,-1.0854 l 7e-6,-0.74463 c -0.0056,-0.16614 -0.0064,-0.33012 0.04994,-0.49144 0.06634,-0.17168 -0.110217,-0.35685 -0.07169,-0.5338 0.03508,-0.19303 0.01691,-0.38428 0.03925,-0.57869 0.02057,-0.22202 -0.07052,-0.46019 -0.06901,-0.68266 3.87e-4,-0.15528 0.09215,-1.00078 0.09216,-3.31382 0.01093,-0.3308 0.271096,-0.78325 0.220416,-1.11104 -0.08873,-0.44614 -0.127718,-0.89613 -0.152082,-1.34662 -0.02586,-0.44074 0.296442,-0.69473 0.236266,-1.13336 -0.04459,-0.28461 0.0073,-0.58663 0.0016,-0.87293 -0.01656,-0.36836 0.118577,-0.90548 0.144537,-1.27312 0.05732,-0.42305 0.02223,-0.61656 0.06579,-1.04041 0.04715,-0.37007 0.104208,-0.24757 0.117568,-0.61916 0.04546,-1.55277 0.503523,-2.54077 0.507853,-2.57252 0.445203,-3.2116 0.168604,-0.94264 0.345187,-2.22702 0.658383,-4.73939 0.07093,-0.61152 0.253739,-2.38951 0.103698,-0.56243 0.28636,-1.04744 0.394649,-1.60905 0.06688,-0.2731 0.468288,-1.37949 0.491974,-1.6568 0.0027,-0.3301 0.473659,-1.07155 0.533039,-1.39731 0.869186,-2.91253 1.596211,-3.20271 1.599922,-3.26356 0.0051,-0.32637 0.473496,-1.2072 0.713142,-1.47334 0.161644,-0.17758 0.341789,-1.04449 0.566137,-1.17688 1.035009,-0.58883 0.192865,-0.14043 1.011401,-1.993814 1.903731,-3.79996 1.568036,-3.023464 1.884757,-4.105691 0.730446,-2.076135 -0.0077,-0.613836 0.39348,-2.492494 0.207377,-0.306488 -0.497449,-0.132282 -0.402289,-0.466107 0.188075,-0.680089 -0.237461,-1.368544 -0.09881,-2.055294 0.10172,-0.489999 -0.126915,-0.899016 -0.07735,-1.393919 0.03594,-0.215236 -0.04606,-0.506134 -0.106099,-0.715952 -0.08073,-0.219435 0.09617,-0.735263 0.06693,-0.961959 -0.02852,-0.30498 0.327215,-0.481617 0.355106,-0.786422 0.01646,-0.257543 0.263972,-0.390449 0.355082,-0.637373 0.0791,-0.238285 0.339048,-0.427449 0.404652,-0.668273 l -7.94e-4,-3.56e-4 v 0 c -0.06561,0.240823 -0.310118,0.406615 -0.389221,0.644891 -0.0911,0.246932 -0.338621,0.391533 -0.355087,0.649083 -0.02796,0.304805 -0.337396,0.516518 -0.308824,0.821497 0.02923,0.226704 -0.132238,0.69577 -0.0515,0.915205 0.06005,0.20981 0.09578,0.477327 0.05985,0.692563 -0.04954,0.494903 0.19453,0.919834 0.09282,1.409841 -0.138651,0.686742 0.240593,1.406038 0.0525,2.086119 -0.09517,0.333818 0.547972,0.221292 0.340608,0.52778 -0.275977,0.545637 0.666017,0.299472 -0.254654,2.419119 -0.455246,1.178669 -0.367861,0.613719 -1.097987,2.726991 -0.438476,1.034279 -0.689379,0.992521 -0.833069,1.421235 -0.816031,1.84757 0.03572,1.2416 -1.042226,1.85495 -0.224355,0.13242 -0.450768,1.20683 -0.612415,1.38441 -0.23965,0.26615 -0.569226,1.03204 -0.574352,1.35843 -0.991075,0.81374 -0.677361,0.34223 -1.584497,3.2944 -0.05939,0.32575 -0.653726,1.08264 -0.656428,1.41274 -0.02368,0.2773 -0.332575,1.33743 -0.399438,1.61051 -0.103772,0.56246 -0.326263,1.32344 -0.425496,1.88669 -0.151679,1.47449 0.311949,-2.27751 -0.315445,2.239 -0.136591,0.99358 0.06368,-0.79254 -0.329744,2.04569 0.04225,0.12243 -0.471663,1.00738 -0.507883,2.5959 -0.01336,0.37159 -0.05498,0.29537 -0.102134,0.66543 -0.04356,0.42385 -0.0085,0.64821 -0.0658,1.07127 -0.02596,0.36763 -0.238235,0.82763 -0.221665,1.19599 0.0057,0.28631 0.06177,0.65001 0.106391,0.93463 0.06019,0.43863 -0.30837,0.6772 -0.28252,1.11794 0.02438,0.45048 0.06335,0.90048 0.152064,1.34662 0.05068,0.32779 -0.22489,0.76482 -0.23583,1.09561 -0.0015,1.15602 -0.09044,2.17322 -0.09218,3.32924 -0.0016,0.22247 0.135814,0.44521 0.115284,0.66723 -0.02234,0.1944 -0.03502,0.4165 -0.07009,0.60953 -0.03852,0.17694 0.138026,0.34669 0.07169,0.51838 -0.05631,0.16132 -0.05559,0.32531 -0.04995,0.49145 0,0.24822 5e-6,0.49643 7e-6,0.74463 3e-6,0.3618 6e-6,0.7236 -1e-5,1.0854 z" />
    <path
       style="fill:#ff6467;fill-opacity:1;stroke:#ff6467;stroke-width:0.225309;stroke-opacity:1"
       id="path14-3-8"
       d="m 36.383104,133.7071 c 0.07547,0.0218 0.153479,0.0304 0.23082,0.0429 0.101462,0.0167 0.203344,0.0285 0.305867,0.036 0.06765,0.003 0.135473,0.002 0.203214,0.003 0.0507,2.2e-4 0.101395,4.4e-4 0.152095,4.4e-4 0.05131,-0.002 0.102647,-4.4e-4 0.153961,1.9e-4 0.01931,0.007 0.03925,0.0105 0.05962,0.0129 0,0 -0.655884,-0.49073 -0.655884,-0.49073 v 0 c -0.02202,-0.004 -0.04378,-0.007 -0.06615,-0.004 -0.05115,6.6e-4 -0.102313,0.002 -0.153455,4.4e-4 -0.04982,2.2e-4 -0.09963,9.1e-4 -0.149445,10e-4 -0.0653,0.001 -0.130509,4.4e-4 -0.195697,-0.004 -0.09764,-0.006 -0.194944,-0.0175 -0.290926,-0.0364 -0.08469,-0.0172 -0.168447,-0.0378 -0.252932,-0.0556 z" />
    <path
       style="fill:#ff6467;fill-opacity:1;stroke:#ff6467;stroke-width:0.225309;stroke-opacity:1"
       id="path14-34-8"
       d="m 46.201075,84.815802 c 0.07547,0.0218 0.153479,0.0304 0.23082,0.0429 0.101462,0.0167 0.203344,0.0285 0.305867,0.036 0.06765,0.003 0.135473,0.002 0.203214,0.003 0.0507,2.2e-4 0.101395,4.4e-4 0.152095,4.4e-4 0.05131,-0.002 0.102647,-4.4e-4 0.153961,1.8e-4 0.01931,0.007 0.03925,0.0105 0.05962,0.0129 0,0 -0.655884,-0.49073 -0.655884,-0.49073 v 0 c -0.02202,-0.004 -0.04378,-0.007 -0.06615,-0.004 -0.05115,6.6e-4 -0.102313,0.002 -0.153455,4.4e-4 -0.04982,2.2e-4 -0.09963,9.1e-4 -0.149445,10e-4 -0.0653,0.001 -0.130509,4.4e-4 -0.195697,-0.004 -0.09764,-0.006 -0.194944,-0.0175 -0.290926,-0.0364 -0.08469,-0.0172 -0.168447,-0.0378 -0.252932,-0.0556 z" />
    <text
       xml:space="preserve"
       style="font-style:normal;font-variant:normal;font-weight:bold;font-stretch:normal;font-size:3.52778px;line-height:1;font-family:Calibri;-inkscape-font-specification:'Calibri, Bold';font-variant-ligatures:normal;font-variant-caps:normal;font-variant-numeric:normal;font-variant-east-asian:normal;text-align:end;writing-mode:lr-tb;direction:ltr;text-anchor:end;fill:#ff6467;fill-opacity:1;stroke:#ff6467;stroke-width:0.270999;stroke-dasharray:none;stroke-dashoffset:0;stroke-opacity:1"
       x="36.338371"
       y="115.61401"
       id="text14-2"><tspan
         id="tspan14-9"
         style="font-style:normal;font-variant:normal;font-weight:bold;font-stretch:normal;font-size:3.52778px;font-family:Calibri;-inkscape-font-specification:'Calibri, Bold';font-variant-ligatures:normal;font-variant-caps:normal;font-variant-numeric:normal;font-variant-east-asian:normal;fill:#ff6467;fill-opacity:1;stroke-width:0.271;stroke-dasharray:none;stroke-dashoffset:0"
         x="36.338371"
         y="115.61401">δ<tspan
   style="font-style:normal;font-variant:normal;font-weight:bold;font-stretch:normal;font-size:2.11667px;font-family:Sans;-inkscape-font-specification:'Sans, Bold';font-variant-ligatures:normal;font-variant-caps:normal;font-variant-numeric:normal;font-variant-east-asian:normal;baseline-shift:sub;fill:#ff6467;fill-opacity:1;stroke-dasharray:none;stroke-dashoffset:0"
   id="tspan15-1">0</tspan></tspan></text>
    <text
       xml:space="preserve"
       style="font-style:normal;font-variant:normal;font-weight:bold;font-stretch:normal;font-size:2.11667px;line-height:1;font-family:Sans;-inkscape-font-specification:'Sans, Bold';font-variant-ligatures:normal;font-variant-caps:normal;font-variant-numeric:normal;font-variant-east-asian:normal;text-align:end;writing-mode:lr-tb;direction:ltr;text-anchor:end;fill:#ff6467;fill-opacity:1;stroke:#ff6467;stroke-width:0.270999;stroke-dasharray:none;stroke-dashoffset:0;stroke-opacity:1"
       x="29.445597"
       y="211.76385"
       id="text16-3"><tspan
         id="tspan16-5"
         style="stroke-width:0.271"
         x="29.445597"
         y="211.76385" /></text>
    <text
       xml:space="preserve"
       style="font-style:normal;font-variant:normal;font-weight:bold;font-stretch:normal;font-size:2.82222px;line-height:1;font-family:Calibri;-inkscape-font-specification:'Calibri, Bold';font-variant-ligatures:normal;font-variant-caps:normal;font-variant-numeric:normal;font-variant-east-asian:normal;text-align:end;writing-mode:lr-tb;direction:ltr;text-anchor:end;fill:#ff6467;fill-opacity:1;stroke:#ff6467;stroke-width:0.270999;stroke-dasharray:none;stroke-dashoffset:0;stroke-opacity:1"
       x="35.702068"
       y="139.54448"
       id="text17-9"><tspan
         id="tspan17-8"
         style="font-style:normal;font-variant:normal;font-weight:bold;font-stretch:normal;font-size:2.82222px;font-family:Calibri;-inkscape-font-specification:'Calibri, Bold';font-variant-ligatures:normal;font-variant-caps:normal;font-variant-numeric:normal;font-variant-east-asian:normal;stroke-width:0.271"
         x="35.702068"
         y="139.54448">α</tspan></text>
    <circle
       id="path18"
       style="fill:#000000;stroke:#000000;stroke-width:0.264583"
       cx="37.155979"
       cy="146.04042"
       r="2.6303462e-07" />
    <circle
       id="path19"
       style="fill:#000000;stroke:#000000;stroke-width:0.264583"
       cx="37.063435"
       cy="144.50577"
       r="2.6303462e-07" />
    <path
       style="fill:#ff6467;fill-opacity:1;stroke:#ff6467;stroke-width:0.225309;stroke-opacity:1"
       id="path14-7"
       d="m 36.359273,144.33794 c 0.07547,0.0218 0.153479,0.0304 0.23082,0.0429 0.101462,0.0167 0.203344,0.0285 0.305867,0.036 0.06765,0.003 0.135473,0.002 0.203214,0.003 0.0507,2.2e-4 0.101395,4.4e-4 0.152095,4.4e-4 0.05131,-0.002 0.102647,-4.4e-4 0.153961,1.8e-4 0.01931,0.007 0.03925,0.0105 0.05962,0.0129 0,0 -0.655884,-0.49073 -0.655884,-0.49073 v 0 c -0.02202,-0.004 -0.04378,-0.007 -0.06615,-0.004 -0.05115,6.6e-4 -0.102313,0.002 -0.153455,4.4e-4 -0.04982,2.2e-4 -0.09963,9.2e-4 -0.149445,0.001 -0.0653,0.001 -0.130509,4.4e-4 -0.195697,-0.004 -0.09764,-0.006 -0.194944,-0.0175 -0.290926,-0.0364 -0.08469,-0.0172 -0.168447,-0.0378 -0.252932,-0.0556 z" />
    <path
       style="fill:#464646;fill-opacity:1;stroke:#464646;stroke-width:0.225309;stroke-opacity:1"
       id="path14-7-2"
       d="m 36.155997,149.66551 c 0.07547,0.0218 0.153479,0.0304 0.23082,0.0429 0.101462,0.0167 0.203344,0.0285 0.305867,0.036 0.06765,0.003 0.135473,0.002 0.203214,0.003 0.0507,2.2e-4 0.101395,4.4e-4 0.152095,4.4e-4 0.05131,-0.002 0.102647,-4.4e-4 0.153961,1.8e-4 0.01931,0.007 0.03925,0.0105 0.05962,0.0129 0,0 -0.655884,-0.49073 -0.655884,-0.49073 v 0 c -0.02202,-0.004 -0.04378,-0.007 -0.06615,-0.004 -0.05115,6.6e-4 -0.102313,0.002 -0.153455,4.4e-4 -0.04982,2.2e-4 -0.09963,9.2e-4 -0.149445,0.001 -0.0653,0.001 -0.130509,4.4e-4 -0.195697,-0.004 -0.09764,-0.006 -0.194944,-0.0175 -0.290926,-0.0364 -0.08469,-0.0172 -0.168447,-0.0378 -0.252932,-0.0556 z" />
    <text
       xml:space="preserve"
       style="font-style:normal;font-variant:normal;font-weight:bold;font-stretch:normal;font-size:2.82223px;line-height:1;font-family:Calibri;-inkscape-font-specification:'Calibri, Bold';font-variant-ligatures:normal;font-variant-caps:normal;font-variant-numeric:normal;font-variant-east-asian:normal;text-align:end;writing-mode:lr-tb;direction:ltr;text-anchor:end;fill:#000000;fill-opacity:1;stroke:#000000;stroke-width:0.270999;stroke-dasharray:none;stroke-dashoffset:0;stroke-opacity:1"
       x="28.138498"
       y="146.46849"
       id="text19"><tspan
         id="tspan19"
         style="stroke-width:0.271"
         x="28.138498"
         y="146.46849">x</tspan></text>
    <path
       style="fill:#000000;fill-opacity:0.5;stroke:#464646;stroke-width:0.270999;stroke-dasharray:none;stroke-dashoffset:0;stroke-opacity:0.979508"
       id="path20"
       d="m 35.730473,144.96607 c -0.445188,-0.0134 -0.890249,-0.0262 -1.335762,-0.0264 -0.410736,0.0103 -0.826709,0.0116 -1.229783,0.10236 -0.229063,0.0516 -0.33042,0.095 -0.555787,0.17415 -0.69419,0.30146 -1.379788,0.62293 -2.067972,0.93803 -0.65958,0.31726 -1.298104,0.67566 -1.949728,1.00878 -0.727964,0.35638 -1.417349,0.78443 -2.116677,1.19263 -0.487824,0.28896 -0.985277,0.56219 -1.465571,0.86376 -0.285691,0.17939 -0.343575,0.2233 -0.618537,0.4123 -0.514191,0.37055 -0.964024,0.82418 -1.360736,1.31725 -0.08995,0.11179 -0.174291,0.22798 -0.261437,0.34197 -0.526084,0.75574 -0.898497,1.60279 -1.27118,2.44086 -0.284938,0.68346 -0.602851,1.3515 -0.95951,2.00024 -0.301485,0.53094 -0.607522,1.05922 -0.907621,1.59097 -0.261684,0.42524 -0.464293,0.87968 -0.635511,1.34746 -0.129174,0.36545 -0.176989,0.75036 -0.231232,1.13193 -0.04393,0.28827 -0.07274,0.57739 -0.06691,0.86898 0.0018,0.13551 0.01639,0.27128 0.007,0.40684 -0.007,0.10179 -0.02583,0.20945 -0.0411,0.30973 -0.0691,0.31214 -0.137758,0.62389 -0.181482,0.94073 -0.02773,0.20325 -0.09708,0.40612 -0.06349,0.61212 0.0084,0.0233 0.0169,0.0465 0.02535,0.0698 0,0 8.73e-4,5.3e-4 8.73e-4,5.3e-4 v 0 c -0.0085,-0.0233 -0.0169,-0.0465 -0.02535,-0.0698 -0.03362,-0.206 0.03573,-0.40886 0.06346,-0.6121 0.04371,-0.31685 0.112361,-0.6286 0.18147,-0.94074 0.01527,-0.10027 0.03406,-0.20796 0.04112,-0.30973 0.0094,-0.13556 -0.0052,-0.27133 -0.007,-0.40685 -0.0059,-0.29159 0.02294,-0.5807 0.06687,-0.86898 0.05425,-0.38156 0.102061,-0.76646 0.231219,-1.13191 0.171205,-0.46778 0.373809,-0.92222 0.635484,-1.34746 0.300093,-0.53175 0.606134,-1.06002 0.907615,-1.59098 0.356648,-0.64874 0.674548,-1.3168 0.959483,-2.00026 0.37267,-0.83807 0.745073,-1.68512 1.271171,-2.44084 0.08715,-0.11399 0.171494,-0.23017 0.261441,-0.34196 0.396716,-0.49305 0.846548,-0.94668 1.360734,-1.31722 0.274958,-0.18901 0.332838,-0.23291 0.618525,-0.4123 0.480288,-0.30159 0.977738,-0.57482 1.465562,-0.86376 0.699331,-0.40821 1.388721,-0.83626 2.116701,-1.19262 0.651619,-0.33312 1.290132,-0.69155 1.94972,-1.00878 0.688179,-0.31511 1.373772,-0.6366 2.067978,-0.93801 0.225369,-0.0791 0.326726,-0.12257 0.555789,-0.17414 0.403064,-0.0907 0.819028,-0.0921 1.229754,-0.10235 0.445537,1.5e-4 0.890622,0.013 1.335836,0.0264 z" />
    <path
       style="fill:#000000;fill-opacity:0.5;stroke:#464646;stroke-width:0.270999;stroke-dasharray:none;stroke-dashoffset:0;stroke-opacity:0.979508"
       id="path21"
       d="m 36.721502,144.7025 c -0.05118,0.24446 -0.0844,0.49212 -0.123574,0.73867 -0.06416,0.31009 -0.107495,0.62327 -0.150807,0.93673 -0.05379,0.2812 -0.08029,0.56593 -0.09603,0.85144 -0.01161,0.24507 -0.01233,0.49046 -0.0127,0.73574 -2.7e-5,0.20203 5.29e-4,0.40407 7.94e-4,0.6061 0.003,0.16117 -0.0059,0.32274 0.0054,0.48361 0.0061,0.0667 0.01463,0.13275 0.02627,0.19871 0,0 7.94e-4,5.3e-4 7.94e-4,5.3e-4 v 0 c -0.01164,-0.0659 -0.02021,-0.13197 -0.0263,-0.1987 -0.01138,-0.16087 -0.0024,-0.32244 -0.0055,-0.48361 -2.65e-4,-0.20203 -7.94e-4,-0.40407 -7.94e-4,-0.6061 2.65e-4,-0.24529 0.0011,-0.49068 0.0127,-0.73574 0.01574,-0.28551 0.04224,-0.57024 0.09603,-0.85143 0.04331,-0.31347 0.08664,-0.62665 0.150805,-0.93674 0.03917,-0.24654 0.07239,-0.4942 0.123597,-0.73864 z" />
    <text
       xml:space="preserve"
       style="font-style:normal;font-variant:normal;font-weight:bold;font-stretch:normal;font-size:1.9341px;line-height:1;font-family:Calibri;-inkscape-font-specification:'Calibri, Bold';font-variant-ligatures:normal;font-variant-caps:normal;font-variant-numeric:normal;font-variant-east-asian:normal;text-align:end;writing-mode:lr-tb;direction:ltr;text-anchor:end;fill:#000000;fill-opacity:1;stroke:#000000;stroke-width:0.185718;stroke-dasharray:none;stroke-dashoffset:0;stroke-opacity:1"
       x="38.063885"
       y="147.76212"
       id="text21"><tspan
         id="tspan21"
         style="fill:#000000;fill-opacity:1;stroke:#000000;stroke-width:0.185718;stroke-opacity:1"
         x="38.063885"
         y="147.76212">β</tspan></text>
  </g>
</svg>
